<svg width="102" height="21" viewBox="0 0 102 21" fill="none" xmlns="http://www.w3.org/2000/svg">
<path d="M20.8473 10.5988C20.749 16.2014 16.1785 20.6736 10.6251 20.6245C4.87504 20.5753 0.402798 15.8574 0.550235 10.1073C0.697671 4.5539 5.36648 0.130803 10.9199 0.27824C16.4734 0.425676 20.9456 5.04535 20.8473 10.5988Z" fill="#799FFC"/>
<path d="M61.1495 10.5988C61.0512 16.2014 56.4807 20.6736 50.9272 20.6245C45.1772 20.5753 40.705 15.8574 40.8524 10.1073C40.9999 4.5539 45.6687 0.130803 51.2221 0.27824C56.7755 0.425676 61.2478 5.04535 61.1495 10.5988Z" fill="#799FFC" fill-opacity="0.8"/>
<path d="M101.452 10.5988C101.353 16.2014 96.7829 20.6736 91.2295 20.6245C85.4795 20.5753 81.0072 15.8574 81.1547 10.1073C81.3021 4.5539 85.9709 0.130803 91.5243 0.27824C97.0778 0.425676 101.55 5.04535 101.452 10.5988Z" fill="#799FFC" fill-opacity="0.6"/>
</svg>
