<svg width="477" height="477" viewBox="0 0 477 477" fill="none" xmlns="http://www.w3.org/2000/svg">
<g filter="url(#filter0_d)">
<circle cx="208.5" cy="208.5" r="208.5" fill="white"/>
</g>
<mask id="mask0" style="mask-type:alpha" maskUnits="userSpaceOnUse" x="0" y="0" width="417" height="417">
<circle cx="208.5" cy="208.5" r="208.5" fill="#B85D5D"/>
</mask>
<g mask="url(#mask0)">
<g opacity="0.9">
<path opacity="0.9" fill-rule="evenodd" clip-rule="evenodd" d="M237.4 298C207.3 294.5 219.9 337.1 170.2 325C169.5 324.8 168.8 324.6 168 324.5C138.5 316.7 130 309.9 109.2 298.9C88.4 287.8 77 232.4 103.6 206.1C120.2 189.4 135.6 191.5 145.3 163.3C155 135 164.1 117.8 178.2 120.5C181.1 116.5 186.8 115.7 191.3 115.8C195 115.9 198 116.5 198 116.5C198 116.5 252.2 127 251.7 158.2C251.4 174.3 235.3 191.3 242.8 196.4C271.9 216.3 239.4 223.4 257.8 239.2C285 262.8 266.9 301.4 237.4 298Z" fill="#C85C5A" fill-opacity="0.74"/>
<path opacity="0.9" fill-rule="evenodd" clip-rule="evenodd" d="M225.4 296C198 292.9 206 327.8 170.2 325C169.5 324.8 168.8 324.6 168 324.5C138.5 316.7 130 309.9 109.2 298.9C88.4 287.8 77 232.4 103.6 206.1C120.2 189.4 135.6 191.5 145.3 163.3C155 135 164.1 117.8 178.2 120.5C181.1 116.5 186.8 115.7 191.3 115.8C204.9 119.4 240.1 131.1 239.7 156.2C239.4 172.3 223.3 189.3 230.8 194.4C259.9 214.3 227.4 221.4 245.8 237.2C273 260.8 254.9 299.4 225.4 296Z" fill="#C85C5A" fill-opacity="0.74"/>
<path opacity="0.9" fill-rule="evenodd" clip-rule="evenodd" d="M202.1 322.7C177.2 310.8 206.5 334.8 173.5 320.5L161 316C160.4 315.6 158.6 313.4 158 313C132.6 296.1 126.1 289.2 110 272C93.9 254.8 104 233 129 208C145.6 191.4 143.6 189.5 156.5 162.5C167.5 139.5 170.6 123.9 183 131C187 128.2 196.3 123.5 200.5 125C250.5 140 240.4 173.5 222.5 196C217.1 211.1 226.1 227.3 231.5 234.5C252.5 262.8 228.2 252.6 240.4 273.6C258.5 304.8 228.8 335.4 202.1 322.7Z" fill="#C85C5A" fill-opacity="0.74"/>
<path opacity="0.9" fill-rule="evenodd" clip-rule="evenodd" d="M224.7 160.9C209.5 166.1 202.8 155.1 202.8 155.1C202.8 155.1 193.7 139.5 193.7 150C193.7 155.6 184.1 149.7 181.2 156.1C179.2 160.4 186.5 164.4 179.7 176.2C178.9 189.8 187.7 194.4 187.7 197.9C187.7 197.9 190.2 223.9 181.2 231L183.6 232.8C184.2 242.2 192.7 249 202 247.5C210.9 246.1 216.8 237.6 215.1 228.8L211.4 209.5C234 205.9 230.1 174.7 224.7 160.9Z" fill="#FFC999"/>
<path opacity="0.9" fill-rule="evenodd" clip-rule="evenodd" d="M355.2 234.1L366.7 193.6C366.7 193.6 385.5 160.7 392.3 162.7C398.6 165.5 384.4 174.9 381.5 184.2C387.5 183.8 384.8 192.7 384.8 192.7C384.8 192.7 389.6 192.5 388.3 199.8C392.7 202.4 389.2 210.8 389.2 210.8C389.2 210.8 380.3 232.8 370.4 247.4C370.3 247.3 353.9 259.9 355.2 234.1Z" fill="#FFC999"/>
<path opacity="0.9" fill-rule="evenodd" clip-rule="evenodd" d="M357.7 220.4C357.7 220.4 359.4 206.5 360.7 199.4C362 192.3 359 179.5 364.2 182.9C367.7 185.2 367.1 192.8 366.9 198.4C366.8 204 375.8 217.3 369.1 226.5C364.5 232.7 357.3 233.5 357.7 220.4Z" fill="#FFC999"/>
<path fill-rule="evenodd" clip-rule="evenodd" d="M368.2 231.3C363.5 228.2 357.2 229.3 353.8 233.9L289.4 321.8C283.7 330.1 286 341.4 294.3 346.9C302.7 352.5 314.1 350.1 319.5 341.5L371.6 245.1C374.3 240.3 372.8 234.3 368.2 231.3Z" fill="#FFC999"/>
<path opacity="0.9" d="M198.5 182.1C198.8 181.6 199.5 181.5 199.9 181.9L200 182C200.1 182.1 200.2 182.1 200.3 182.2C200.7 182.4 201.2 182.7 201.8 182.9C204.3 184 207.2 184.3 210.2 183.5C210.7 183.4 211.3 183.7 211.4 184.2C211.5 184.7 211.2 185.3 210.7 185.4C207.2 186.3 203.9 185.9 201 184.7C199.9 184.2 199.1 183.8 198.7 183.5C198.2 183.2 198.1 182.5 198.5 182.1Z" fill="#F5222D" fill-opacity="0.8"/>
<path opacity="0.9" d="M197.8 166C198.3 165.9 198.8 166.3 198.9 166.8C199.5 170.5 197.2 174 193.7 174.6C190.2 175.2 186.9 172.6 186.3 168.9C186.2 168.4 186.6 167.9 187.1 167.8C187.6 167.7 188.1 168.1 188.2 168.6C188.6 171.3 190.9 173.1 193.3 172.7C195.7 172.3 197.3 169.9 196.9 167.2C196.9 166.6 197.3 166.1 197.8 166Z" fill="#425088"/>
<path opacity="0.9" d="M222.2 162.8C222.7 162.7 223.2 163.1 223.3 163.6C223.9 167.3 221.9 170.7 218.7 171.2C215.5 171.7 212.5 169.1 211.9 165.4C211.8 164.9 212.2 164.4 212.7 164.3C213.2 164.2 213.7 164.6 213.8 165.1C214.2 167.8 216.4 169.7 218.4 169.3C220.5 169 221.9 166.5 221.5 163.8C221.4 163.3 221.7 162.8 222.2 162.8Z" fill="#425088"/>
<path opacity="0.9" d="M187.6 156.2C190.8 155 194.2 154.9 197.3 155.5L197.8 155.6C198.3 155.7 198.6 155.8 198.9 155.9C199.4 156.1 199.7 156.6 199.5 157.1C199.3 157.6 198.8 157.9 198.3 157.7L198.1 157.6C197.8 157.5 197.5 157.4 197 157.3C194.2 156.7 191.2 156.8 188.3 157.9C187 158.4 185.8 159.1 184.7 160.1C184.3 160.5 183.7 160.4 183.3 160C182.9 159.6 183 159 183.4 158.6C184.7 157.6 186.1 156.7 187.6 156.2Z" fill="#425088"/>
<path opacity="0.9" fill-rule="evenodd" clip-rule="evenodd" d="M315.5 345.4C323.8 339.6 325.8 328.2 320.1 319.9L263.7 239C257.9 230.7 246.5 228.7 238.2 234.4C229.9 240.2 227.9 251.6 233.6 259.9L290 340.8C295.8 349.1 307.2 351.2 315.5 345.4Z" fill="#FFC999"/>
<path opacity="0.9" d="M232.8 259.8C233 259.6 233.3 259.7 233.5 259.9L233.6 260L257.2 293.8L286.6 272.9C286.8 272.7 287.1 272.8 287.3 273L287.4 273.1C287.6 273.3 287.5 273.6 287.3 273.8L287.2 273.9L257.4 295C257.2 295.2 256.9 295.1 256.7 294.9L256.6 294.8L232.7 260.5C232.5 260.3 232.6 259.9 232.8 259.8Z" fill="#C6BAC0"/>
<path fill-rule="evenodd" clip-rule="evenodd" d="M257.5 294.2L233.6 259.9C227.8 251.6 229.9 240.1 238.2 234.4C246.5 228.6 258 230.7 263.7 239L287.4 273L257.5 294.2Z" fill="#799FFC"/>
<path fill-rule="evenodd" clip-rule="evenodd" d="M249.5 264C253.4 272.5 260.7 287.2 261.6 296.9C263.1 312.6 252.8 324.3 252.8 324.3C252.8 324.3 252.7 319.7 251.7 360.4C204.8 368.6 174.9 359.9 174.9 359.9L175.8 349.1L168.2 323.6C168.2 323.6 163.6 314.1 154.1 292.9C147.5 278.1 147.9 259.9 148.8 250.1C149.2 245.9 147.2 237.2 151.4 236.5C165.5 234.3 175.3 233.1 175.3 233.1L177 227.8C177.2 226.2 178.6 225 180.2 225H216.5C218 225 219.3 226 219.6 227.4L222.1 233L241.2 233.7C244.6 234.4 247.5 244.9 247.8 248.3L249.5 264Z" fill="#799FFC"/>
<path opacity="0.9" d="M174.7 234.7C175 234.5 175.4 234.5 175.7 234.7L175.8 234.8L208.6 276.1L221.3 237.5C221.4 237.1 221.8 236.9 222.1 237H222.2C222.6 237.1 222.8 237.5 222.7 237.8V237.9L209.5 277.8C209.3 278.3 208.7 278.5 208.3 278.1L208.2 278L174.5 235.6C174.4 235.4 174.4 234.9 174.7 234.7Z" fill="#CCD7EE"/>
<path opacity="0.9" fill-rule="evenodd" clip-rule="evenodd" d="M213.9 278.1C215.8 281.3 215 285.4 212 287.2C209 289 205 287.8 203.1 284.5C201.2 281.3 202 277.2 205 275.4C208 273.7 211.9 274.9 213.9 278.1Z" fill="#CCD7EE"/>
<path opacity="0.9" fill-rule="evenodd" clip-rule="evenodd" d="M214.5 278.1C216.4 281.3 215.6 285.4 212.6 287.2C209.6 289 205.6 287.8 203.7 284.5C201.8 281.3 202.6 277.2 205.6 275.4C208.7 273.7 212.6 274.9 214.5 278.1Z" fill="#E4EBF7"/>
<path opacity="0.9" fill-rule="evenodd" clip-rule="evenodd" d="M213.3 278.7C214.8 281.2 214.1 284.4 211.8 285.7C209.5 287.1 206.4 286.2 204.9 283.6C203.4 281.1 204.1 277.9 206.4 276.6C208.8 275.2 211.8 276.2 213.3 278.7Z" fill="#FEA08F"/>
<path opacity="0.9" d="M148.7 249.6C149 249.6 149.3 249.9 149.3 250.2L149 252.5V253C148.9 257.6 148.9 262.4 149 267V268.3C149.1 273.2 149.4 277.2 149.9 279.8C150.4 282.8 152.3 287.9 155.3 294.5C155.8 295.7 156.4 296.8 156.9 298.1C158.5 301.5 160.2 304.9 161.9 308.2L162.8 309.9L164.2 312.5L164.3 312.6L176.6 349.3V349.5L175.6 360.1L176.5 360.3C176.8 360.3 177 360.4 177.3 360.5L177.7 360.6C179.9 361 182.4 361.4 185.3 361.7C204.9 364.2 227 364.2 249.9 360.1L250.8 359.9L250.9 356.9C251 355 251 352.3 251.2 349L251.6 336.3L252 325.6L252.1 325.3L252.4 324.8L252.8 323.9C252.9 323.7 253.1 323.4 253.2 323.1L253.4 322.7C254.4 320.7 255.4 318.5 256.3 316.2C257.6 313 258.7 309.8 259.4 306.8C260.1 303.9 260.5 301.3 260.5 299C260.5 293.3 259.7 288.9 258 284.3C257.1 282 256 279.7 254.5 276.7L253.7 275.2C252.6 273.3 250.6 269.6 249.4 267.4L248.5 265.8L248.4 265.5L248 255.8C248 255.5 248.2 255.2 248.6 255.2C248.9 255.2 249.1 255.4 249.2 255.7V255.8L249.6 265.3L254.3 273.9L255.2 275.5L255.8 276.7C257.2 279.5 258.3 281.7 259.1 283.8C260.9 288.5 261.6 293 261.6 298.9C261.6 301.3 261.2 304 260.5 307C259.7 310 258.6 313.2 257.3 316.5C256.5 318.5 255.6 320.4 254.8 322.2L254.4 323.1C254.2 323.5 254 323.9 253.8 324.3L253.1 325.6L252.2 352.1C252.1 356.3 252 359 252 360V360.2C252 360.5 251.8 360.7 251.5 360.8C227.9 365.2 205.1 365.2 184.9 362.7C182.3 362.4 179.9 362 177.9 361.7L177.2 361.6C176.7 361.5 176.3 361.4 175.9 361.4L174.4 361.1C174.1 361 174 360.8 173.9 360.6V359.4L175 348.6L163 312.9L162.4 311.7C161.9 310.8 161.4 309.7 160.8 308.6C159.1 305.3 157.5 302 155.9 298.7L155.1 296.9C155 296.6 154.8 296.3 154.7 296L154.3 295.1C151.3 288.5 149.4 283.5 148.9 280.4C148.4 277.5 148.1 273.1 148 267.7C147.9 263.9 147.9 259.8 148 255.9V251.9L148.1 250C148.2 249.9 148.4 249.6 148.7 249.6Z" fill="#545BD3"/>
<path fill-rule="evenodd" clip-rule="evenodd" d="M114.2 359L113.7 358.8C104.4 355.2 99.8 344.7 103.4 335.4L137.8 246.8C141.4 237.5 151.9 232.9 161.2 236.5L161.7 236.7C171 240.3 175.6 250.8 172 260.1L137.6 348.7C133.9 358 123.5 362.7 114.2 359Z" fill="#FFC999"/>
<path opacity="0.9" fill-rule="evenodd" clip-rule="evenodd" d="M175.2 368.7C158.7 370 110.1 472.9 95.3 510.1C97.3 517.6 118.8 532.1 118.8 532.1C118.8 532.1 117.5 538.1 116.7 541.7C130.8 553.3 158 559.6 158 559.6L158.1 564.7C201.6 584.7 259.8 565.5 259.8 565.5C259.8 565.5 260.9 564.4 260.1 560.4C279.9 560.2 322.1 535.1 322.1 535.1L316.1 522.7L333.5 504.9C333.5 504.9 286.5 418.5 272.1 394.3C259.4 373.1 247.5 367 247.5 367C247.5 367 204.5 366.4 175.2 368.7Z" fill="#7A7EF1"/>
<path opacity="0.9" fill-rule="evenodd" clip-rule="evenodd" d="M251 368.7L249.8 359.3C249.8 359.3 212.6 359.5 176.1 357.7C175.2 361.9 174.1 369.4 174.1 369.4C177.2 366.9 210.3 374.3 251 368.7Z" fill="#7A7EF1"/>
<path opacity="0.9" d="M249.7 387.1C250 386.9 250.4 387 250.6 387.3L250.7 387.4L322.5 534C322.7 534.3 322.6 534.7 322.3 534.9L321.8 535.2L321.1 535.7C320.9 535.8 320.7 536 320.5 536.1C319.1 537.1 317.4 538.2 315.5 539.5C310 543 303.6 546.5 296.5 549.7C285.4 554.7 273.6 558.8 261 561.3C260.6 561.4 260.2 561.1 260.1 560.7C260 560.3 260.3 559.9 260.7 559.8C273.1 557.2 284.9 553.3 295.8 548.3C302.8 545.1 309.1 541.6 314.6 538.2C316.3 537.1 317.8 536.1 319.1 535.2L319.9 534.7L320.8 534L249.3 387.9C249.1 387.6 249.2 387.2 249.5 387L249.7 387.1Z" fill="#9D9D9D"/>
<path opacity="0.9" d="M162.8 417.6C162.9 417.2 163.4 417 163.7 417.2C164 417.3 164.2 417.7 164.2 418V418.1L117.3 542.2L118.1 542.7L119 543.3C119.8 543.8 120.7 544.3 121.7 544.8C125.6 547 130 549.2 134.7 551.2C142.4 554.5 150.4 557.1 158.3 558.7C158.7 558.8 159 559.2 158.9 559.6C158.8 560 158.4 560.3 158 560.2C149.9 558.6 141.9 555.9 134.1 552.6C129.3 550.5 124.9 548.3 120.9 546.1C119.7 545.4 118.6 544.8 117.7 544.2L116.7 543.6L115.9 543.1C115.6 542.9 115.5 542.6 115.6 542.3V542.2L162.8 417.6Z" fill="#9D9D9D"/>
<path opacity="0.9" d="M194.2 371.5H194.3C194.7 371.6 194.9 371.9 194.9 372.2V372.3L192.1 386.5C191.1 391.4 190.1 396.7 189 402.2L188.4 405.3C183.9 428.5 179.4 452.1 175.1 474.9L174.1 480.2C173.6 483 173.1 485.8 172.6 488.5L169.9 503.3C165.9 525.3 162.5 544.7 159.9 561.1L159.3 565L160.3 565.3C161.4 565.6 162.4 566 163.5 566.3L165.1 566.8C191.2 574.2 219.1 573.8 245.4 568.6C249.6 567.8 253.3 566.9 256.6 566L257.6 565.7C258.1 565.6 258.5 565.5 258.9 565.3L260.1 565L227.4 401.3C227.3 400.9 227.5 400.6 227.9 400.5H228C228.4 400.4 228.7 400.6 228.8 401V401.1L261.6 565.5C261.7 565.9 261.5 566.2 261.1 566.3L260 566.6L259.2 566.8C258.7 567 258.1 567.1 257.4 567.3L256.9 567.4C253.6 568.3 249.8 569.2 245.6 570C219.1 575.2 191 575.6 164.6 568.2C162.4 567.6 160.3 566.9 158.1 566.2C157.8 566.1 157.6 565.7 157.6 565.4L158.5 559.8C161.1 543.7 164.5 524.6 168.4 503.2L170.1 493.8C170.9 489.3 171.8 484.7 172.6 480C176.8 457.3 181.3 433.7 185.8 410.5L189.7 390.5L193.3 372.2C193.6 371.7 193.9 371.5 194.2 371.5Z" fill="#9D9D9D"/>
<path opacity="0.9" d="M211.8 374.3C212.2 374.3 212.5 374.5 212.6 374.9V375L220.3 511.7C220.3 512.1 220 512.5 219.6 512.5C219.2 512.5 218.9 512.3 218.8 511.9V511.8L211.1 375.1C211.1 374.7 211.4 374.4 211.8 374.3Z" fill="#9D9D9D"/>
<path opacity="0.9" d="M231.4 370.8C231.7 370.7 232.1 370.9 232.3 371.2V371.3L261.2 464.5C261.3 464.9 261.1 465.3 260.7 465.4C260.4 465.5 260 465.3 259.8 465V464.9L230.9 371.7C230.8 371.4 231 371 231.4 370.8Z" fill="#9D9D9D"/>
<path opacity="0.9" d="M178 368.7C194.4 369.5 210.4 369.8 224.6 370H229.4C234.4 369.8 238.8 369.7 242.2 369.6L243.8 369.5C244.3 369.5 244.7 369.5 245.1 369.4H245.9C246.2 369.4 246.4 369.4 246.5 369.4H246.7H246.8C246.9 369.4 247 369.4 247.1 369.4H247.2H247.3C247.5 369.4 247.5 369.5 247.6 370.4L247.3 370.7C247.2 370.8 247.2 370.8 247.1 370.8C247 370.8 247 370.8 246.9 370.8H246.8C246.7 370.8 246.6 370.8 246.4 370.8H245.9C245.2 370.8 244.2 370.9 243 370.9L240.5 371C237.2 371.1 233.1 371.1 228.6 370.9H227.8C212.8 371.2 195.6 370.9 177.9 370C177.5 370 177.2 369.6 177.2 369.2C177.3 369 177.6 368.7 178 368.7Z" fill="#9D9D9D"/>
<path fill-rule="evenodd" clip-rule="evenodd" d="M158.2 295.5L173.3 256.5C176.9 247.1 172.2 236.4 162.8 232.8C153.4 229.2 142.7 233.9 139.1 243.3L124.1 281.9L158.2 295.5Z" fill="#799FFC"/>
<path opacity="0.9" d="M216.3 237C216.6 237.2 216.9 237.4 216.9 237.7C216.9 238 216.7 238.2 216.4 238.3L216.3 238H185.2C184.9 238.3 184.6 238.1 184.6 237.7C184.6 237.4 184.8 237.2 185.1 237.1L185.2 236.9H216.3V237Z" fill="#545BD3"/>
<path opacity="0.9" d="M173.3 256.5C173.4 256.2 173.8 256.1 174 256.2C174.3 256.3 174.4 256.6 174.4 256.8V256.9L159.3 295.9C159.2 296.2 158.9 296.3 158.6 296.3H158.5L124.5 282.7C124.2 282.6 124.1 282.2 124.2 281.9C124.3 281.6 124.6 281.5 124.9 281.5H125L158.5 294.9L173.3 256.5Z" fill="#545BD3"/>
<path fill-rule="evenodd" clip-rule="evenodd" d="M209.5 361.6L239.5 279.7C240 278.4 241.3 277.5 242.7 277.5L317.1 279.6C319.4 279.7 321 282 320.1 284.2L289 363.8C288.5 365.1 287.3 365.9 285.9 365.9L212.5 366C210.4 366.1 208.7 363.8 209.5 361.6Z" fill="#C6BAC0"/>
<path fill-rule="evenodd" clip-rule="evenodd" d="M217.3 366.1C214.5 366.1 212.5 363.3 213.5 360.7L243 280.3C243.6 278.7 245.2 277.6 246.9 277.6L322.3 279.8C323.9 279.8 325 281.5 324.4 283L292.9 363.7C292.3 365.1 291 366.1 289.5 366.1H217.3Z" fill="url(#paint0_linear)"/>
<path opacity="0.9" fill-rule="evenodd" clip-rule="evenodd" d="M253 286C253.8 287 253.4 288.6 252.2 289.6C250.9 290.6 249.3 290.7 248.5 289.7C247.7 288.7 248.1 287.1 249.3 286.1C250.5 285.1 252.2 285 253 286Z" fill="#C6BAC0"/>
<path fill-rule="evenodd" clip-rule="evenodd" d="M237.901 361.6C237.101 367.2 232.001 371.2 226.401 370.6L117.901 360.1C108.001 358.8 101.001 349.6 102.401 339.7C103.801 329.7 113.201 322.8 123.201 324.5L229.801 349.8C235.201 351.1 238.701 356.2 237.901 361.6Z" fill="#FFC999"/>
<path fill-rule="evenodd" clip-rule="evenodd" d="M237.9 373.8C237.9 373.8 213 371.3 209.8 360.2C206.9 350.2 216.6 346.1 216.6 346.1C216.6 346.1 225.6 340.5 237.1 338.6C244.7 337.3 259.5 336.4 260.7 340.3C262.3 345.4 245.5 345.5 245.5 349.4C245.5 353.4 248.9 353.6 256.6 356.8C261.4 358.8 264.4 357.5 268.2 360C275.6 364.6 267 378.8 237.9 373.8Z" fill="#FFC999"/>
<path opacity="0.9" d="M208.3 164.5C208.7 164.5 209 164.7 209.1 165L209.2 165.3C209.2 165.4 209.2 165.5 209.3 165.7C209.4 166.2 209.6 166.8 209.9 167.5C210.8 169.4 212.2 171.6 214.4 173.8C214.7 174.1 214.7 174.6 214.4 174.8L213.5 175.6C212.1 176.8 210.9 177.7 209.9 178.5L209.2 179L208.5 179.5C208.2 179.7 207.7 179.6 207.5 179.3C207.3 179 207.4 178.5 207.7 178.3L208 178.1L208.4 177.8C208.5 177.7 208.7 177.6 208.8 177.5L209 177.3C209.9 176.6 210.9 175.8 212.1 174.8L212.9 174.1L212.6 173.8C210.9 171.9 209.7 170.1 208.9 168.4L208.7 168C208.1 166.7 207.9 165.8 207.8 165.2C207.6 164.9 207.9 164.5 208.3 164.5Z" fill="#DD936F"/>
<path opacity="0.9" d="M196.3 208C196.4 207.6 196.8 207.4 197.2 207.6C202 209.3 206.7 209.8 211.3 209.1C211.7 209 212.1 209.3 212.1 209.7C212.2 210.1 211.9 210.5 211.5 210.5C206.7 211.2 201.7 210.7 196.7 208.9C196.4 208.8 196.2 208.4 196.3 208Z" fill="#DD936F"/>
<path opacity="0.9" d="M381.9 183.6C382.2 183.9 382.2 184.3 381.9 184.6L381.6 185L381.2 185.5C381.1 185.7 380.9 185.8 380.7 186C379.8 187.1 378.9 188.2 378 189.4C377.1 190.5 376.4 191.7 375.8 192.7C373.7 196.3 373.6 198.6 375.5 199.4C375.9 199.6 376 200 375.9 200.3C375.7 200.7 375.3 200.8 375 200.7C371.9 199.4 372.1 196.2 374.6 192C375.2 190.9 376 189.7 376.9 188.6C377.8 187.4 378.7 186.2 379.7 185.2L380.4 184.4L381 183.8C381.2 183.3 381.6 183.3 381.9 183.6Z" fill="#DD936F"/>
<path opacity="0.9" d="M384.7 192.5C384.9 192.8 384.9 193.3 384.6 193.5L384.2 193.8L383.8 194.2C383.6 194.3 383.5 194.5 383.3 194.6C382.3 195.4 381.4 196.3 380.5 197.2C379.5 198.2 378.7 199.1 378.1 200C376.4 202.3 376.1 203.8 377.3 204.6C377.8 204.9 378.4 205 379.1 204.8C380.1 204.6 381.2 203.9 382.3 202.8C382.8 202.3 383.3 201.8 383.7 201.3L384 200.9C384.1 200.8 384.2 200.7 384.2 200.6C384.4 200.3 384.9 200.2 385.2 200.5C385.5 200.7 385.6 201.2 385.3 201.5L385.1 201.8C385 201.9 384.9 202.1 384.7 202.2C384.2 202.7 383.7 203.3 383.1 203.8C381.8 205 380.5 205.8 379.2 206.1C378.2 206.3 377.2 206.2 376.3 205.7C374.1 204.3 374.5 201.9 376.7 199C377.4 198.1 378.3 197.1 379.3 196.1C380.2 195.2 381.2 194.3 382.2 193.4L382.7 193L383.5 192.3C384 192.1 384.5 192.1 384.7 192.5Z" fill="#DD936F"/>
<path opacity="0.9" d="M386.5 199.5C386.9 199.4 387.3 199.7 387.3 200.1C387.4 200.5 387.1 200.9 386.7 200.9C385.7 201.1 384.5 201.9 383 203.6C379.9 207.2 379.3 209.6 380.2 210.1C381.2 210.7 383.4 209.6 384.9 207.6C385.4 206.9 386.5 207.5 386.1 208.3C384.3 211.9 382.2 214.3 379.6 216.3L378.9 216.8C377.8 217.6 377.4 217.8 374.4 219.4L373.7 219.8C369.6 222.1 367.9 224.1 367 228.8C366.9 229.2 366.5 229.4 366.2 229.4C365.8 229.3 365.6 228.9 365.6 228.6C366.7 223.2 368.7 220.9 373.4 218.4L376.2 216.9C377.3 216.3 377.6 216.1 378.4 215.5C380 214.4 381.4 213.1 382.6 211.5V211.4L382.4 211.5C381.4 211.9 380.4 211.9 379.7 211.6L379.5 211.5C377.5 210.3 378.3 207.1 381.9 202.8C383.6 200.8 385.1 199.7 386.5 199.5Z" fill="#DD936F"/>
<path opacity="0.9" d="M367 190.7C367.4 190.7 367.7 190.9 367.8 191.2V191.3L368.7 201.8L369 202.3L369.2 202.7C369.6 203.5 370 204.4 370.4 205.3C371.5 208 372.2 210.8 372.2 213.3C372.2 215.3 371.8 217.1 370.8 218.7C370.6 219 370.2 219.2 369.8 219C369.5 218.8 369.3 218.4 369.5 218C370.3 216.6 370.7 215 370.7 213.3C370.7 210.9 370.1 208.4 369 205.8C368.7 205.1 368.4 204.4 368.1 203.8L367.9 203.3C367.7 202.9 367.5 202.5 367.4 202.4C367.4 202.3 367.3 202.3 367.3 202.2V202.1L366.4 191.4C366.3 191 366.6 190.7 367 190.7Z" fill="#DD936F"/>
<path opacity="0.9" d="M246.4 359.5C246.6 359.2 247.1 359.1 247.4 359.4L247.6 359.5C247.8 359.7 248.2 359.9 248.6 360.1C249.6 360.7 250.8 361.3 252.2 361.8C256.9 363.7 262.5 364.7 268.8 364.2C269.2 364.2 269.5 364.5 269.6 364.9C269.6 365.3 269.3 365.6 268.9 365.7C262.4 366.2 256.6 365.2 251.7 363.2C250.3 362.6 249 362 247.9 361.4C247.6 361.2 247.4 361.1 247.1 360.9L246.9 360.8C246.7 360.7 246.6 360.6 246.5 360.6C246.2 360.3 246.1 359.8 246.4 359.5Z" fill="#DD936F"/>
<path opacity="0.9" d="M242.7 365.7C242.9 365.3 243.3 365.2 243.7 365.4C244.1 365.6 244.4 365.7 244.8 365.9C250.3 368.2 256.1 368.9 260.9 368.7H261.5C261.8 368.7 262 368.7 262.2 368.7C262.6 368.7 262.9 368.9 263 369.3C263 369.7 262.8 370 262.4 370.1H262C261.9 370.1 261.8 370.1 261.7 370.1C256.5 370.4 250.3 369.7 244.4 367.2C244 367 243.6 366.9 243.3 366.7C242.7 366.5 242.5 366.1 242.7 365.7Z" fill="#DD936F"/>
<path opacity="0.9" d="M236.5 369.3C236.7 369 237.1 368.8 237.5 369.1L237.7 369.2C237.9 369.3 238.2 369.5 238.6 369.6C239.6 370 240.8 370.5 242.2 370.8C245.3 371.7 249 372.3 253.3 372.5C253.7 372.5 254 372.9 254 373.3C254 373.7 253.6 374 253.2 374C248.8 373.8 244.9 373.1 241.7 372.2C240.2 371.8 239 371.3 238 370.9C237.4 370.6 237 370.4 236.7 370.3C236.4 370.1 236.3 369.6 236.5 369.3Z" fill="#DD936F"/>
<path opacity="0.08" fill-rule="evenodd" clip-rule="evenodd" d="M173 257C173 257 188 331 191 338C194 345 191 339 191 339L171 335C171 335 160 307 157 298L173 257Z" fill="black"/>
<path opacity="0.08" fill-rule="evenodd" clip-rule="evenodd" d="M248.999 255.5C248.999 255.5 259.9 273.44 266 278L262 278L255.999 278L249 265L248.999 255.5Z" fill="black"/>
<path opacity="0.08" fill-rule="evenodd" clip-rule="evenodd" d="M176.901 365.1L197.001 368C197.001 368 181.001 401 205.001 415C229.001 429 134.5 427.5 134.5 427.5C139 418 153.401 391.8 160.001 383C165.001 376.3 171.901 371.8 176.901 365.1Z" fill="black"/>
<path d="M111 351.5C106.6 349.9 103.834 345.833 103 344C103 346.5 103.7 352 106.5 354C109.3 356 113 358.5 114.5 359.5L190.5 367C200.334 367.833 220.8 369.8 224 371C228 372.5 236 373 248 375C260 377 264.5 371 262 373C260 374.6 237.5 368.333 226.5 365L157.5 358C143.834 356.5 115.4 353.1 111 351.5Z" fill="black" fill-opacity="0.08"/>
<path d="M187.502 204L197.002 208.5C200.802 210.3 212 211 212 211C211.377 211.011 212 218 212 218L207 220L200 222.5L185 225.5C185 225.5 188.5 212.5 187.502 204Z" fill="black" fill-opacity="0.08"/>
</g>
</g>
<defs>
<filter id="filter0_d" x="0" y="0" width="477" height="477" filterUnits="userSpaceOnUse" color-interpolation-filters="sRGB">
<feFlood flood-opacity="0" result="BackgroundImageFix"/>
<feColorMatrix in="SourceAlpha" type="matrix" values="0 0 0 0 0 0 0 0 0 0 0 0 0 0 0 0 0 0 127 0" result="hardAlpha"/>
<feOffset dx="30" dy="30"/>
<feGaussianBlur stdDeviation="15"/>
<feComposite in2="hardAlpha" operator="out"/>
<feColorMatrix type="matrix" values="0 0 0 0 0.478431 0 0 0 0 0.494118 0 0 0 0 0.945098 0 0 0 0.05 0"/>
<feBlend mode="normal" in2="BackgroundImageFix" result="effect1_dropShadow"/>
<feBlend mode="normal" in="SourceGraphic" in2="effect1_dropShadow" result="shape"/>
</filter>
<linearGradient id="paint0_linear" x1="293.835" y1="364.931" x2="242.335" y2="276.931" gradientUnits="userSpaceOnUse">
<stop stop-color="#5A73B0"/>
<stop offset="0.95" stop-color="#969696" stop-opacity="0"/>
</linearGradient>
</defs>
</svg>
