<svg width="517" height="517" viewBox="0 0 517 517" fill="none" xmlns="http://www.w3.org/2000/svg">
<g filter="url(#filter0_d)">
<circle cx="228.5" cy="228.5" r="208.5" fill="white"/>
</g>
<mask id="mask0" mask-type="alpha" maskUnits="userSpaceOnUse" x="20" y="20" width="417" height="417">
<circle cx="228.5" cy="228.5" r="208.5" fill="#B85D5D"/>
</mask>
<g mask="url(#mask0)">
<g opacity="0.9">
<path opacity="0.9" fill-rule="evenodd" clip-rule="evenodd" d="M257.4 318C227.3 314.5 239.9 357.1 190.2 345C189.5 344.8 188.8 344.6 188 344.5C158.5 336.7 150 329.9 129.2 318.9C108.4 307.8 96.9997 252.4 123.6 226.1C140.2 209.4 155.6 211.5 165.3 183.3C175 155 184.1 137.8 198.2 140.5C201.1 136.5 206.8 135.7 211.3 135.8C215 135.9 218 136.5 218 136.5C218 136.5 272.2 147 271.7 178.2C271.4 194.3 255.3 211.3 262.8 216.4C291.9 236.3 259.4 243.4 277.8 259.2C305 282.8 286.9 321.4 257.4 318Z" fill="#C85C5A" fill-opacity="0.74"/>
<path opacity="0.9" fill-rule="evenodd" clip-rule="evenodd" d="M245.4 316C218 312.9 226 347.8 190.2 345C189.5 344.8 188.8 344.6 188 344.5C158.5 336.7 150 329.9 129.2 318.9C108.4 307.8 96.9997 252.4 123.6 226.1C140.2 209.4 155.6 211.5 165.3 183.3C175 155 184.1 137.8 198.2 140.5C201.1 136.5 206.8 135.7 211.3 135.8C224.9 139.4 260.1 151.1 259.7 176.2C259.4 192.3 243.3 209.3 250.8 214.4C279.9 234.3 247.4 241.4 265.8 257.2C293 280.8 274.9 319.4 245.4 316Z" fill="#C85C5A" fill-opacity="0.74"/>
<path opacity="0.9" fill-rule="evenodd" clip-rule="evenodd" d="M222.1 342.7C197.2 330.8 226.5 354.8 193.5 340.5L181 336C180.4 335.6 178.6 333.4 178 333C152.6 316.1 146.1 309.2 130 292C113.9 274.8 124 253 149 228C165.6 211.4 163.6 209.5 176.5 182.5C187.5 159.5 190.6 143.9 203 151C207 148.2 216.3 143.5 220.5 145C270.5 160 260.4 193.5 242.5 216C237.1 231.1 246.1 247.3 251.5 254.5C272.5 282.8 248.2 272.6 260.4 293.6C278.5 324.8 248.8 355.4 222.1 342.7Z" fill="#C85C5A" fill-opacity="0.74"/>
<path opacity="0.9" fill-rule="evenodd" clip-rule="evenodd" d="M244.7 180.9C229.5 186.1 222.8 175.1 222.8 175.1C222.8 175.1 213.7 159.5 213.7 170C213.7 175.6 204.1 169.7 201.2 176.1C199.2 180.4 206.5 184.4 199.7 196.2C198.9 209.8 207.7 214.4 207.7 217.9C207.7 217.9 210.2 243.9 201.2 251L203.6 252.8C204.2 262.2 212.7 269 222 267.5C230.9 266.1 236.8 257.6 235.1 248.8L231.4 229.5C254 225.9 250.1 194.7 244.7 180.9Z" fill="#FFC999"/>
<path opacity="0.9" fill-rule="evenodd" clip-rule="evenodd" d="M375.2 254.1L386.7 213.6C386.7 213.6 405.5 180.7 412.3 182.7C418.6 185.5 404.4 194.9 401.5 204.2C407.5 203.8 404.8 212.7 404.8 212.7C404.8 212.7 409.6 212.5 408.3 219.8C412.7 222.4 409.2 230.8 409.2 230.8C409.2 230.8 400.3 252.8 390.4 267.4C390.3 267.3 373.9 279.9 375.2 254.1Z" fill="#FFC999"/>
<path opacity="0.9" fill-rule="evenodd" clip-rule="evenodd" d="M377.7 240.4C377.7 240.4 379.4 226.5 380.7 219.4C382 212.3 379 199.5 384.2 202.9C387.7 205.2 387.1 212.8 386.9 218.4C386.8 224 395.8 237.3 389.1 246.5C384.5 252.7 377.3 253.5 377.7 240.4Z" fill="#FFC999"/>
<path fill-rule="evenodd" clip-rule="evenodd" d="M388.199 251.3C383.499 248.2 377.199 249.3 373.799 253.9L309.399 341.8C303.699 350.1 305.999 361.4 314.299 366.9C322.699 372.5 334.099 370.1 339.499 361.5L391.599 265.1C394.299 260.3 392.799 254.3 388.199 251.3Z" fill="#FFC999"/>
<path opacity="0.9" d="M218.501 202.1C218.801 201.6 219.501 201.5 219.901 201.9L220.001 202C220.101 202.1 220.201 202.1 220.301 202.2C220.701 202.4 221.201 202.7 221.801 202.9C224.301 204 227.201 204.3 230.201 203.5C230.701 203.4 231.301 203.7 231.401 204.2C231.501 204.7 231.201 205.3 230.701 205.4C227.201 206.3 223.901 205.9 221.001 204.7C219.901 204.2 219.101 203.8 218.701 203.5C218.201 203.2 218.101 202.5 218.501 202.1Z" fill="#F5222D" fill-opacity="0.8"/>
<path opacity="0.9" d="M217.801 186C218.301 185.9 218.801 186.3 218.901 186.8C219.501 190.5 217.201 194 213.701 194.6C210.201 195.2 206.901 192.6 206.301 188.9C206.201 188.4 206.601 187.9 207.101 187.8C207.601 187.7 208.101 188.1 208.201 188.6C208.601 191.3 210.901 193.1 213.301 192.7C215.701 192.3 217.301 189.9 216.901 187.2C216.901 186.6 217.301 186.1 217.801 186Z" fill="#425088"/>
<path opacity="0.9" d="M242.2 182.8C242.7 182.7 243.2 183.1 243.3 183.6C243.9 187.3 241.9 190.7 238.7 191.2C235.5 191.7 232.5 189.1 231.9 185.4C231.8 184.9 232.2 184.4 232.7 184.3C233.2 184.2 233.7 184.6 233.8 185.1C234.2 187.8 236.4 189.7 238.4 189.3C240.5 189 241.9 186.5 241.5 183.8C241.4 183.3 241.7 182.8 242.2 182.8Z" fill="#425088"/>
<path opacity="0.9" d="M207.6 176.2C210.8 175 214.2 174.9 217.3 175.5L217.8 175.6C218.3 175.7 218.6 175.8 218.9 175.9C219.4 176.1 219.7 176.6 219.5 177.1C219.3 177.6 218.8 177.9 218.3 177.7L218.1 177.6C217.8 177.5 217.5 177.4 217 177.3C214.2 176.7 211.2 176.8 208.3 177.9C207 178.4 205.8 179.1 204.7 180.1C204.3 180.5 203.7 180.4 203.3 180C202.9 179.6 203 179 203.4 178.6C204.7 177.6 206.1 176.7 207.6 176.2Z" fill="#425088"/>
<path opacity="0.9" fill-rule="evenodd" clip-rule="evenodd" d="M335.499 365.4C343.799 359.6 345.799 348.2 340.099 339.9L283.699 259C277.899 250.7 266.499 248.7 258.199 254.4C249.899 260.2 247.899 271.6 253.599 279.9L309.999 360.8C315.799 369.1 327.199 371.2 335.499 365.4Z" fill="#FFC999"/>
<path opacity="0.9" d="M252.799 279.8C252.999 279.6 253.299 279.7 253.499 279.9L253.599 280L277.199 313.8L306.599 292.9C306.799 292.7 307.099 292.8 307.299 293L307.399 293.1C307.599 293.3 307.499 293.6 307.299 293.8L307.199 293.9L277.399 315C277.199 315.2 276.899 315.1 276.699 314.9L276.599 314.8L252.699 280.5C252.499 280.3 252.599 279.9 252.799 279.8Z" fill="#C6BAC0"/>
<path fill-rule="evenodd" clip-rule="evenodd" d="M277.5 314.2L253.6 279.9C247.8 271.6 249.9 260.1 258.2 254.4C266.5 248.6 278 250.7 283.7 259L307.4 293L277.5 314.2Z" fill="#799FFC"/>
<path fill-rule="evenodd" clip-rule="evenodd" d="M269.5 284C273.4 292.5 280.7 307.2 281.6 316.9C283.1 332.6 272.8 344.3 272.8 344.3C272.8 344.3 272.7 339.7 271.7 380.4C224.8 388.6 194.9 379.9 194.9 379.9L195.8 369.1L188.2 343.6C188.2 343.6 183.6 334.1 174.1 312.9C167.5 298.1 167.9 279.9 168.8 270.1C169.2 265.9 167.2 257.2 171.4 256.5C185.5 254.3 195.3 253.1 195.3 253.1L197 247.8C197.2 246.2 198.6 245 200.2 245H236.5C238 245 239.3 246 239.6 247.4L242.1 253L261.2 253.7C264.6 254.4 267.5 264.9 267.8 268.3L269.5 284Z" fill="#799FFC"/>
<path opacity="0.9" d="M194.699 254.7C194.999 254.5 195.399 254.5 195.699 254.7L195.799 254.8L228.599 296.1L241.299 257.5C241.399 257.1 241.799 256.9 242.099 257H242.199C242.599 257.1 242.799 257.5 242.699 257.8V257.9L229.499 297.8C229.299 298.3 228.699 298.5 228.299 298.1L228.199 298L194.499 255.6C194.399 255.4 194.399 254.9 194.699 254.7Z" fill="#CCD7EE"/>
<path opacity="0.9" fill-rule="evenodd" clip-rule="evenodd" d="M233.9 298.1C235.8 301.3 235 305.4 232 307.2C229 309 225 307.8 223.1 304.5C221.2 301.3 222 297.2 225 295.4C228 293.7 231.9 294.9 233.9 298.1Z" fill="#CCD7EE"/>
<path opacity="0.9" fill-rule="evenodd" clip-rule="evenodd" d="M234.5 298.1C236.4 301.3 235.599 305.4 232.599 307.2C229.599 309 225.6 307.8 223.7 304.5C221.8 301.3 222.599 297.2 225.599 295.4C228.699 293.7 232.6 294.9 234.5 298.1Z" fill="#E4EBF7"/>
<path opacity="0.9" fill-rule="evenodd" clip-rule="evenodd" d="M233.3 298.7C234.8 301.2 234.1 304.4 231.8 305.7C229.5 307.1 226.4 306.2 224.9 303.6C223.4 301.1 224.1 297.9 226.4 296.6C228.8 295.2 231.8 296.2 233.3 298.7Z" fill="#FEA08F"/>
<path opacity="0.9" d="M168.699 269.6C168.999 269.6 169.299 269.9 169.299 270.2L168.999 272.5V273C168.899 277.6 168.899 282.4 168.999 287V288.3C169.099 293.2 169.399 297.2 169.899 299.8C170.399 302.8 172.299 307.9 175.299 314.5C175.799 315.7 176.399 316.8 176.899 318.1C178.499 321.5 180.199 324.9 181.899 328.2L182.799 329.9L184.199 332.5L184.299 332.6L196.599 369.3V369.5L195.599 380.1L196.499 380.3C196.799 380.3 196.999 380.4 197.299 380.5L197.699 380.6C199.899 381 202.399 381.4 205.299 381.7C224.899 384.2 246.999 384.2 269.899 380.1L270.799 379.9L270.899 376.9C270.999 375 270.999 372.3 271.199 369L271.599 356.3L271.999 345.6L272.099 345.3L272.399 344.8L272.799 343.9C272.899 343.7 273.099 343.4 273.199 343.1L273.399 342.7C274.399 340.7 275.399 338.5 276.299 336.2C277.599 333 278.699 329.8 279.399 326.8C280.099 323.9 280.499 321.3 280.499 319C280.499 313.3 279.699 308.9 277.999 304.3C277.099 302 275.999 299.7 274.499 296.7L273.699 295.2C272.599 293.3 270.599 289.6 269.399 287.4L268.499 285.8L268.399 285.5L267.999 275.8C267.999 275.5 268.199 275.2 268.599 275.2C268.899 275.2 269.099 275.4 269.199 275.7V275.8L269.599 285.3L274.299 293.9L275.199 295.5L275.799 296.7C277.199 299.5 278.299 301.7 279.099 303.8C280.899 308.5 281.599 313 281.599 318.9C281.599 321.3 281.199 324 280.499 327C279.699 330 278.599 333.2 277.299 336.5C276.499 338.5 275.599 340.4 274.799 342.2L274.399 343.1C274.199 343.5 273.999 343.9 273.799 344.3L273.099 345.6L272.199 372.1C272.099 376.3 271.999 379 271.999 380V380.2C271.999 380.5 271.799 380.7 271.499 380.8C247.899 385.2 225.099 385.2 204.899 382.7C202.299 382.4 199.899 382 197.899 381.7L197.199 381.6C196.699 381.5 196.299 381.4 195.899 381.4L194.399 381.1C194.099 381 193.999 380.8 193.899 380.6V379.4L194.999 368.6L182.999 332.9L182.399 331.7C181.899 330.8 181.399 329.7 180.799 328.6C179.099 325.3 177.499 322 175.899 318.7L175.099 316.9C174.999 316.6 174.799 316.3 174.699 316L174.299 315.1C171.299 308.5 169.399 303.5 168.899 300.4C168.399 297.5 168.099 293.1 167.999 287.7C167.899 283.9 167.899 279.8 167.999 275.9V271.9L168.099 270C168.199 269.9 168.399 269.6 168.699 269.6Z" fill="#545BD3"/>
<path fill-rule="evenodd" clip-rule="evenodd" d="M134.199 379L133.699 378.8C124.399 375.2 119.799 364.7 123.399 355.4L157.799 266.8C161.399 257.5 171.899 252.9 181.199 256.5L181.699 256.7C190.999 260.3 195.599 270.8 191.999 280.1L157.599 368.7C153.899 378 143.499 382.7 134.199 379Z" fill="#FFC999"/>
<path opacity="0.9" fill-rule="evenodd" clip-rule="evenodd" d="M195.199 388.7C178.699 390 130.099 492.9 115.299 530.1C117.299 537.6 138.799 552.1 138.799 552.1C138.799 552.1 137.499 558.1 136.699 561.7C150.799 573.3 177.999 579.6 177.999 579.6L178.099 584.7C221.599 604.7 279.799 585.5 279.799 585.5C279.799 585.5 280.899 584.4 280.099 580.4C299.899 580.2 342.099 555.1 342.099 555.1L336.099 542.7L353.499 524.9C353.499 524.9 306.499 438.5 292.099 414.3C279.399 393.1 267.499 387 267.499 387C267.499 387 224.499 386.4 195.199 388.7Z" fill="#7A7EF1"/>
<path opacity="0.9" fill-rule="evenodd" clip-rule="evenodd" d="M271 388.7L269.8 379.3C269.8 379.3 232.6 379.5 196.1 377.7C195.2 381.9 194.1 389.4 194.1 389.4C197.2 386.9 230.3 394.3 271 388.7Z" fill="#7A7EF1"/>
<path opacity="0.9" d="M269.699 407.1C269.999 406.9 270.399 407 270.599 407.3L270.699 407.4L342.499 554C342.699 554.3 342.599 554.7 342.299 554.9L341.799 555.2L341.099 555.7C340.899 555.8 340.699 556 340.499 556.1C339.099 557.1 337.399 558.2 335.499 559.5C329.999 563 323.599 566.5 316.499 569.7C305.399 574.7 293.599 578.8 280.999 581.3C280.599 581.4 280.199 581.1 280.099 580.7C279.999 580.3 280.299 579.9 280.699 579.8C293.099 577.2 304.899 573.3 315.799 568.3C322.799 565.1 329.099 561.6 334.599 558.2C336.299 557.1 337.799 556.1 339.099 555.2L339.899 554.7L340.799 554L269.299 407.9C269.099 407.6 269.199 407.2 269.499 407L269.699 407.1Z" fill="#9D9D9D"/>
<path opacity="0.9" d="M182.8 437.6C182.9 437.2 183.4 437 183.7 437.2C184 437.3 184.2 437.7 184.2 438V438.1L137.3 562.2L138.1 562.7L139 563.3C139.8 563.8 140.7 564.3 141.7 564.8C145.6 567 150 569.2 154.7 571.2C162.4 574.5 170.4 577.1 178.3 578.7C178.7 578.8 179 579.2 178.9 579.6C178.8 580 178.4 580.3 178 580.2C169.9 578.6 161.9 575.9 154.1 572.6C149.3 570.5 144.9 568.3 140.9 566.1C139.7 565.4 138.6 564.8 137.7 564.2L136.7 563.6L135.9 563.1C135.6 562.9 135.5 562.6 135.6 562.3V562.2L182.8 437.6Z" fill="#9D9D9D"/>
<path opacity="0.9" d="M214.2 391.5H214.3C214.7 391.6 214.9 391.9 214.9 392.2V392.3L212.1 406.5C211.1 411.4 210.1 416.7 209 422.2L208.4 425.3C203.9 448.5 199.4 472.1 195.1 494.9L194.1 500.2C193.6 503 193.1 505.8 192.6 508.5L189.9 523.3C185.9 545.3 182.5 564.7 179.9 581.1L179.3 585L180.3 585.3C181.4 585.6 182.4 586 183.5 586.3L185.1 586.8C211.2 594.2 239.1 593.8 265.4 588.6C269.6 587.8 273.3 586.9 276.6 586L277.6 585.7C278.1 585.6 278.5 585.5 278.9 585.3L280.1 585L247.4 421.3C247.3 420.9 247.5 420.6 247.9 420.5H248C248.4 420.4 248.7 420.6 248.8 421V421.1L281.6 585.5C281.7 585.9 281.5 586.2 281.1 586.3L280 586.6L279.2 586.8C278.7 587 278.1 587.1 277.4 587.3L276.9 587.4C273.6 588.3 269.8 589.2 265.6 590C239.1 595.2 211 595.6 184.6 588.2C182.4 587.6 180.3 586.9 178.1 586.2C177.8 586.1 177.6 585.7 177.6 585.4L178.5 579.8C181.1 563.7 184.5 544.6 188.4 523.2L190.1 513.8C190.9 509.3 191.8 504.7 192.6 500C196.8 477.3 201.3 453.7 205.8 430.5L209.7 410.5L213.3 392.2C213.6 391.7 213.9 391.5 214.2 391.5Z" fill="#9D9D9D"/>
<path opacity="0.9" d="M231.8 394.3C232.2 394.3 232.5 394.5 232.6 394.9V395L240.3 531.7C240.3 532.1 240 532.5 239.6 532.5C239.2 532.5 238.9 532.3 238.8 531.9V531.8L231.1 395.1C231.1 394.7 231.4 394.4 231.8 394.3Z" fill="#9D9D9D"/>
<path opacity="0.9" d="M251.4 390.8C251.7 390.7 252.1 390.9 252.3 391.2V391.3L281.2 484.5C281.3 484.9 281.1 485.3 280.7 485.4C280.4 485.5 280 485.3 279.8 485V484.9L250.9 391.7C250.8 391.4 251 391 251.4 390.8Z" fill="#9D9D9D"/>
<path opacity="0.9" d="M197.999 388.7C214.399 389.5 230.399 389.8 244.599 390H249.399C254.399 389.8 258.799 389.7 262.199 389.6L263.799 389.5C264.299 389.5 264.699 389.5 265.099 389.4H265.899C266.199 389.4 266.399 389.4 266.499 389.4H266.699H266.799C266.899 389.4 266.999 389.4 267.099 389.4H267.199H267.299C267.499 389.4 267.499 389.5 267.599 390.4L267.299 390.7C267.199 390.8 267.199 390.8 267.099 390.8C266.999 390.8 266.999 390.8 266.899 390.8H266.799C266.699 390.8 266.599 390.8 266.399 390.8H265.899C265.199 390.8 264.199 390.9 262.999 390.9L260.499 391C257.199 391.1 253.099 391.1 248.599 390.9H247.799C232.799 391.2 215.599 390.9 197.899 390C197.499 390 197.199 389.6 197.199 389.2C197.299 389 197.599 388.7 197.999 388.7Z" fill="#9D9D9D"/>
<path fill-rule="evenodd" clip-rule="evenodd" d="M178.2 315.5L193.3 276.5C196.9 267.1 192.2 256.4 182.8 252.8C173.4 249.2 162.7 253.9 159.1 263.3L144.1 301.9L178.2 315.5Z" fill="#799FFC"/>
<path opacity="0.9" d="M236.3 257C236.6 257.2 236.9 257.4 236.9 257.7C236.9 258 236.7 258.2 236.4 258.3L236.3 258H205.2C204.9 258.3 204.6 258.1 204.6 257.7C204.6 257.4 204.8 257.2 205.1 257.1L205.2 256.9H236.3V257Z" fill="#545BD3"/>
<path opacity="0.9" d="M193.3 276.5C193.4 276.2 193.8 276.1 194 276.2C194.3 276.3 194.4 276.6 194.4 276.8V276.9L179.3 315.9C179.2 316.2 178.9 316.3 178.6 316.3H178.5L144.5 302.7C144.2 302.6 144.1 302.2 144.2 301.9C144.3 301.6 144.6 301.5 144.9 301.5H145L178.5 314.9L193.3 276.5Z" fill="#545BD3"/>
<path fill-rule="evenodd" clip-rule="evenodd" d="M229.5 381.6L259.5 299.7C260 298.4 261.3 297.5 262.7 297.5L337.1 299.6C339.4 299.7 341 302 340.1 304.2L309 383.8C308.5 385.1 307.3 385.9 305.9 385.9L232.5 386C230.4 386.1 228.7 383.8 229.5 381.6Z" fill="#C6BAC0"/>
<path fill-rule="evenodd" clip-rule="evenodd" d="M237.3 386.1C234.5 386.1 232.5 383.3 233.5 380.7L263 300.3C263.6 298.7 265.2 297.6 266.9 297.6L342.3 299.8C343.9 299.8 345 301.5 344.4 303L312.9 383.7C312.3 385.1 311 386.1 309.5 386.1H237.3Z" fill="url(#paint0_linear)"/>
<path opacity="0.9" fill-rule="evenodd" clip-rule="evenodd" d="M273 306C273.8 307 273.4 308.6 272.2 309.6C270.9 310.6 269.3 310.7 268.5 309.7C267.7 308.7 268.1 307.1 269.3 306.1C270.5 305.1 272.2 305 273 306Z" fill="#C6BAC0"/>
<path fill-rule="evenodd" clip-rule="evenodd" d="M257.901 381.6C257.101 387.2 252.001 391.2 246.401 390.6L137.901 380.1C128.001 378.8 121.001 369.6 122.401 359.7C123.801 349.7 133.201 342.8 143.201 344.5L249.801 369.8C255.201 371.1 258.701 376.2 257.901 381.6Z" fill="#FFC999"/>
<path fill-rule="evenodd" clip-rule="evenodd" d="M257.899 393.8C257.899 393.8 232.999 391.3 229.799 380.2C226.899 370.2 236.599 366.1 236.599 366.1C236.599 366.1 245.599 360.5 257.099 358.6C264.699 357.3 279.499 356.4 280.699 360.3C282.299 365.4 265.499 365.5 265.499 369.4C265.499 373.4 268.899 373.6 276.599 376.8C281.399 378.8 284.399 377.5 288.199 380C295.599 384.6 286.999 398.8 257.899 393.8Z" fill="#FFC999"/>
<path opacity="0.9" d="M228.301 184.5C228.701 184.5 229.001 184.7 229.101 185L229.201 185.3C229.201 185.4 229.201 185.5 229.301 185.7C229.401 186.2 229.601 186.8 229.901 187.5C230.801 189.4 232.201 191.6 234.401 193.8C234.701 194.1 234.701 194.6 234.401 194.8L233.501 195.6C232.101 196.8 230.901 197.7 229.901 198.5L229.201 199L228.501 199.5C228.201 199.7 227.701 199.6 227.501 199.3C227.301 199 227.401 198.5 227.701 198.3L228.001 198.1L228.401 197.8C228.501 197.7 228.701 197.6 228.801 197.5L229.001 197.3C229.901 196.6 230.901 195.8 232.101 194.8L232.901 194.1L232.601 193.8C230.901 191.9 229.701 190.1 228.901 188.4L228.701 188C228.101 186.7 227.901 185.8 227.801 185.2C227.601 184.9 227.901 184.5 228.301 184.5Z" fill="#DD936F"/>
<path opacity="0.9" d="M216.299 228C216.399 227.6 216.799 227.4 217.199 227.6C221.999 229.3 226.699 229.8 231.299 229.1C231.699 229 232.099 229.3 232.099 229.7C232.199 230.1 231.899 230.5 231.499 230.5C226.699 231.2 221.699 230.7 216.699 228.9C216.399 228.8 216.199 228.4 216.299 228Z" fill="#DD936F"/>
<path opacity="0.9" d="M401.9 203.6C402.2 203.9 402.2 204.3 401.9 204.6L401.6 205L401.2 205.5C401.1 205.7 400.9 205.8 400.7 206C399.8 207.1 398.9 208.2 398 209.4C397.1 210.5 396.4 211.7 395.8 212.7C393.7 216.3 393.6 218.6 395.5 219.4C395.9 219.6 396 220 395.9 220.3C395.7 220.7 395.3 220.8 395 220.7C391.9 219.4 392.1 216.2 394.6 212C395.2 210.9 396 209.7 396.9 208.6C397.8 207.4 398.7 206.2 399.7 205.2L400.4 204.4L401 203.8C401.2 203.3 401.6 203.3 401.9 203.6Z" fill="#DD936F"/>
<path opacity="0.9" d="M404.699 212.5C404.899 212.8 404.899 213.3 404.599 213.5L404.199 213.8L403.8 214.2C403.6 214.3 403.5 214.5 403.3 214.6C402.3 215.4 401.399 216.3 400.499 217.2C399.499 218.2 398.699 219.1 398.099 220C396.399 222.3 396.1 223.8 397.3 224.6C397.8 224.9 398.399 225 399.099 224.8C400.099 224.6 401.2 223.9 402.3 222.8C402.8 222.3 403.299 221.8 403.699 221.3L403.999 220.9C404.099 220.8 404.199 220.7 404.199 220.6C404.399 220.3 404.899 220.2 405.199 220.5C405.499 220.7 405.6 221.2 405.3 221.5L405.099 221.8C404.999 221.9 404.899 222.1 404.699 222.2C404.199 222.7 403.699 223.3 403.099 223.8C401.799 225 400.499 225.8 399.199 226.1C398.199 226.3 397.2 226.2 396.3 225.7C394.1 224.3 394.499 221.9 396.699 219C397.399 218.1 398.3 217.1 399.3 216.1C400.2 215.2 401.199 214.3 402.199 213.4L402.699 213L403.499 212.3C403.999 212.1 404.499 212.1 404.699 212.5Z" fill="#DD936F"/>
<path opacity="0.9" d="M406.5 219.5C406.9 219.4 407.3 219.7 407.3 220.1C407.4 220.5 407.1 220.9 406.7 220.9C405.7 221.1 404.5 221.9 403 223.6C399.9 227.2 399.3 229.6 400.2 230.1C401.2 230.7 403.4 229.6 404.9 227.6C405.4 226.9 406.5 227.5 406.1 228.3C404.3 231.9 402.2 234.3 399.6 236.3L398.9 236.8C397.8 237.6 397.4 237.8 394.4 239.4L393.7 239.8C389.6 242.1 387.9 244.1 387 248.8C386.9 249.2 386.5 249.4 386.2 249.4C385.8 249.3 385.6 248.9 385.6 248.6C386.7 243.2 388.7 240.9 393.4 238.4L396.2 236.9C397.3 236.3 397.6 236.1 398.4 235.5C400 234.4 401.4 233.1 402.6 231.5V231.4L402.4 231.5C401.4 231.9 400.4 231.9 399.7 231.6L399.5 231.5C397.5 230.3 398.3 227.1 401.9 222.8C403.6 220.8 405.1 219.7 406.5 219.5Z" fill="#DD936F"/>
<path opacity="0.9" d="M387 210.7C387.4 210.7 387.7 210.9 387.8 211.2V211.3L388.7 221.8L389 222.3L389.2 222.7C389.6 223.5 390 224.4 390.4 225.3C391.5 228 392.2 230.8 392.2 233.3C392.2 235.3 391.8 237.1 390.8 238.7C390.6 239 390.2 239.2 389.8 239C389.5 238.8 389.3 238.4 389.5 238C390.3 236.6 390.7 235 390.7 233.3C390.7 230.9 390.1 228.4 389 225.8C388.7 225.1 388.4 224.4 388.1 223.8L387.9 223.3C387.7 222.9 387.5 222.5 387.4 222.4C387.4 222.3 387.3 222.3 387.3 222.2V222.1L386.4 211.4C386.3 211 386.6 210.7 387 210.7Z" fill="#DD936F"/>
<path opacity="0.9" d="M266.4 379.5C266.6 379.2 267.1 379.1 267.4 379.4L267.6 379.5C267.8 379.7 268.2 379.9 268.6 380.1C269.6 380.7 270.8 381.3 272.2 381.8C276.9 383.7 282.5 384.7 288.8 384.2C289.2 384.2 289.5 384.5 289.6 384.9C289.6 385.3 289.3 385.6 288.9 385.7C282.4 386.2 276.6 385.2 271.7 383.2C270.3 382.6 269 382 267.9 381.4C267.6 381.2 267.4 381.1 267.1 380.9L266.9 380.8C266.7 380.7 266.6 380.6 266.5 380.6C266.2 380.3 266.1 379.8 266.4 379.5Z" fill="#DD936F"/>
<path opacity="0.9" d="M262.7 385.7C262.9 385.3 263.3 385.2 263.7 385.4C264.1 385.6 264.4 385.7 264.8 385.9C270.3 388.2 276.1 388.9 280.9 388.7H281.5C281.8 388.7 282 388.7 282.2 388.7C282.6 388.7 282.9 388.9 283 389.3C283 389.7 282.8 390 282.4 390.1H282C281.9 390.1 281.8 390.1 281.7 390.1C276.5 390.4 270.3 389.7 264.4 387.2C264 387 263.6 386.9 263.3 386.7C262.7 386.5 262.5 386.1 262.7 385.7Z" fill="#DD936F"/>
<path opacity="0.9" d="M256.501 389.3C256.701 389 257.101 388.8 257.501 389.1L257.701 389.2C257.901 389.3 258.201 389.5 258.601 389.6C259.601 390 260.801 390.5 262.201 390.8C265.301 391.7 269.001 392.3 273.301 392.5C273.701 392.5 274.001 392.9 274.001 393.3C274.001 393.7 273.601 394 273.201 394C268.801 393.8 264.901 393.1 261.701 392.2C260.201 391.8 259.001 391.3 258.001 390.9C257.401 390.6 257.001 390.4 256.701 390.3C256.401 390.1 256.301 389.6 256.501 389.3Z" fill="#DD936F"/>
<path opacity="0.08" fill-rule="evenodd" clip-rule="evenodd" d="M193 277C193 277 208 351 211 358C214 365 211 359 211 359L191 355C191 355 180 327 177 318L193 277Z" fill="black"/>
<path opacity="0.08" fill-rule="evenodd" clip-rule="evenodd" d="M268.998 275.5C268.998 275.5 279.9 293.44 285.999 298L281.999 298L275.999 298L269 285L268.998 275.5Z" fill="black"/>
<path opacity="0.08" fill-rule="evenodd" clip-rule="evenodd" d="M196.901 385.1L217.001 388C217.001 388 201.001 421 225.001 435C249.001 449 154.5 447.5 154.5 447.5C159 438 173.401 411.8 180.001 403C185.001 396.3 191.901 391.8 196.901 385.1Z" fill="black"/>
<path d="M131 371.5C126.6 369.9 123.833 365.833 123 364C123 366.5 123.7 372 126.5 374C129.3 376 133 378.5 134.5 379.5L210.5 387C220.333 387.833 240.8 389.8 244 391C248 392.5 256 393 268 395C280 397 284.5 391 282 393C280 394.6 257.5 388.333 246.5 385L177.5 378C163.833 376.5 135.4 373.1 131 371.5Z" fill="black" fill-opacity="0.08"/>
<path d="M207.502 224L217.002 228.5C220.802 230.3 232 231 232 231C231.377 231.011 232 238 232 238L227 240L220 242.5L205 245.5C205 245.5 208.5 232.5 207.502 224Z" fill="black" fill-opacity="0.08"/>
</g>
</g>
<defs>
<filter id="filter0_d" x="0" y="0" width="517" height="517" filterUnits="userSpaceOnUse" color-interpolation-filters="sRGB">
<feFlood flood-opacity="0" result="BackgroundImageFix"/>
<feColorMatrix in="SourceAlpha" type="matrix" values="0 0 0 0 0 0 0 0 0 0 0 0 0 0 0 0 0 0 127 0" result="hardAlpha"/>
<feMorphology radius="10" operator="dilate" in="SourceAlpha" result="effect1_dropShadow"/>
<feOffset dx="30" dy="30"/>
<feGaussianBlur stdDeviation="20"/>
<feComposite in2="hardAlpha" operator="out"/>
<feColorMatrix type="matrix" values="0 0 0 0 0.478431 0 0 0 0 0.494118 0 0 0 0 0.945098 0 0 0 0.1 0"/>
<feBlend mode="normal" in2="BackgroundImageFix" result="effect1_dropShadow"/>
<feBlend mode="normal" in="SourceGraphic" in2="effect1_dropShadow" result="shape"/>
</filter>
<linearGradient id="paint0_linear" x1="313.835" y1="384.931" x2="262.335" y2="296.931" gradientUnits="userSpaceOnUse">
<stop stop-color="#5A73B0"/>
<stop offset="0.95" stop-color="#969696" stop-opacity="0"/>
</linearGradient>
</defs>
</svg>
