<svg width="284" height="241" viewBox="0 0 284 241" fill="none" xmlns="http://www.w3.org/2000/svg">
<path fill-rule="evenodd" clip-rule="evenodd" d="M161.169 120.562C140.573 120.562 123.876 137.258 123.876 157.854V157.949C123.876 178.545 140.573 195.241 161.169 195.241H216.164C218.218 195.241 220.234 195.075 222.198 194.756L232.852 205.047C233.142 205.327 233.529 205.483 233.932 205.483C234.79 205.483 235.486 204.787 235.486 203.929L235.486 189.851C246.259 183.312 253.456 171.471 253.456 157.949V157.854C253.456 137.258 236.76 120.562 216.164 120.562H161.169Z" fill="#FBDBCF"/>
<path d="M170.214 31.2156H91.6891C62.2663 31.2156 38.4144 55.0674 38.4144 84.4902C38.4144 113.913 62.2663 137.765 91.6891 137.765H170.214C199.636 137.765 223.488 113.913 223.488 84.4902C223.488 55.0674 199.636 31.2156 170.214 31.2156Z" fill="#C5C7FB"/>
<path fill-rule="evenodd" clip-rule="evenodd" d="M64.0809 122.268V150.158C64.0809 151.384 65.0747 152.378 66.3007 152.378C66.8757 152.378 67.4282 152.155 67.842 151.755L88.3367 131.98L64.0809 122.268Z" fill="#C5C7FB"/>
<path d="M95.2965 91.1496C100.047 91.1496 103.898 87.2985 103.898 82.5479C103.898 77.7974 100.047 73.9463 95.2965 73.9463C90.5459 73.9463 86.6948 77.7974 86.6948 82.5479C86.6948 87.2985 90.5459 91.1496 95.2965 91.1496Z" fill="white"/>
<path d="M130.536 91.1496C135.286 91.1496 139.137 87.2985 139.137 82.5479C139.137 77.7974 135.286 73.9463 130.536 73.9463C125.785 73.9463 121.934 77.7974 121.934 82.5479C121.934 87.2985 125.785 91.1496 130.536 91.1496Z" fill="white"/>
<path d="M166.607 91.1496C171.358 91.1496 175.209 87.2985 175.209 82.5479C175.209 77.7974 171.358 73.9463 166.607 73.9463C161.856 73.9463 158.005 77.7974 158.005 82.5479C158.005 87.2985 161.856 91.1496 166.607 91.1496Z" fill="white"/>
<path d="M42.2551 217.027C41.9116 217.027 41.5961 216.837 41.4352 216.534C39.8345 213.517 39.3491 210.036 39.9945 206.19C40.6055 202.547 42.2044 198.727 44.747 194.836C49.9145 186.928 58.4335 179.56 68.734 174.091C79.0345 168.622 89.909 165.694 99.3562 165.843C104.003 165.916 108.063 166.732 111.423 168.266C114.972 169.887 117.582 172.238 119.184 175.256C119.424 175.708 119.252 176.269 118.8 176.509C118.348 176.749 117.787 176.577 117.548 176.125C116.141 173.476 113.822 171.399 110.654 169.952C107.527 168.525 103.717 167.766 99.3264 167.692C90.1883 167.546 79.632 170.404 69.6035 175.724C59.575 181.044 51.2974 188.199 46.2981 195.85C43.8965 199.526 42.3906 203.107 41.8221 206.497C41.2454 209.931 41.6666 213.016 43.0731 215.665C43.2252 215.951 43.2164 216.296 43.0501 216.575C42.8838 216.853 42.584 217.025 42.2596 217.027H42.2551Z" fill="#FF7946"/>
<path opacity="0.33" d="M78.8514 226.268C97.1434 226.268 111.972 211.439 111.972 193.147C111.972 174.855 97.1434 160.027 78.8514 160.027C60.5594 160.027 45.7308 174.855 45.7308 193.147C45.7308 211.439 60.5594 226.268 78.8514 226.268Z" fill="#7A7EF1"/>
<path d="M101.122 201.187C103.072 195.985 104.049 194.033 101.122 193.148C98.1952 192.263 93.9677 197.935 90.063 195.199C86.1583 192.463 91.3637 186.555 89.7376 183.172C88.1116 179.79 86.1601 179.4 87.1363 173.009C87.6316 169.766 90.6334 166.173 93.4706 163.422C88.9243 161.182 83.923 160.02 78.855 160.027C77.5313 160.027 76.2087 160.105 74.8942 160.262C77.6411 166.282 72.6572 170.672 68.9287 176.763C64.3759 184.206 66.0019 188.831 75.432 190.622C84.8621 192.414 83.8869 203.789 75.432 206.711C66.9772 209.633 69.5786 197.611 64.3759 197.552C59.1732 197.493 53.9705 196.31 53.6451 191.437C53.4643 188.674 49.9293 186.09 46.9059 184.371C46.1233 187.231 45.7281 190.183 45.7308 193.148C45.7308 211.44 60.5597 226.269 78.8523 226.269C87.3334 226.28 95.4933 223.026 101.64 217.182C99.3096 211.783 99.692 205.001 101.122 201.187Z" fill="#7A7EF1"/>
<path d="M53.6453 191.437C53.9707 196.31 59.1734 197.493 64.3761 197.552C69.5788 197.611 66.9774 209.642 75.4322 206.715C83.8871 203.789 84.8623 192.413 75.4322 190.627C66.0021 188.84 64.3761 184.209 68.9289 176.767C72.6537 170.676 77.6377 166.283 74.8944 160.266C61.4105 161.868 50.4149 171.571 46.906 184.371C49.9313 186.09 53.4609 188.674 53.6453 191.437Z" fill="#7A7EF1"/>
<path d="M53.6453 191.437C53.9707 196.31 59.1734 197.493 64.3761 197.552C69.5788 197.611 66.9774 209.642 75.4322 206.715C83.8871 203.789 84.8623 192.413 75.4322 190.627C66.0021 188.84 64.3761 184.209 68.9289 176.767C72.6537 170.676 77.6377 166.283 74.8944 160.266C61.4105 161.868 50.4149 171.571 46.906 184.371C49.9313 186.09 53.4609 188.674 53.6453 191.437Z" fill="#C6BAC0"/>
<path d="M111.972 193.148C111.972 180.104 104.432 168.822 93.4738 163.422C90.6365 166.173 87.6347 169.766 87.1394 173.009C86.1632 179.4 88.1147 179.788 89.7408 183.172C91.3668 186.556 86.1632 192.463 90.0635 195.199C93.9637 197.935 98.1983 192.262 101.122 193.148C104.046 194.034 103.073 195.985 101.122 201.187C99.6924 205.001 99.3101 211.782 101.64 217.186C108.246 210.937 111.984 202.241 111.972 193.148Z" fill="#D7DCF2"/>
<path d="M91.4522 217.807C91.0261 217.808 90.6541 217.518 90.5509 217.105C90.4477 216.691 90.6399 216.261 91.0165 216.061C101.049 210.737 109.322 203.588 114.321 195.94C116.727 192.265 118.228 188.679 118.797 185.293C119.374 181.858 118.953 178.773 117.547 176.125C117.307 175.673 117.479 175.112 117.931 174.872C118.383 174.632 118.944 174.804 119.184 175.256C120.786 178.273 121.271 181.753 120.63 185.6C120.018 189.244 118.419 193.063 115.878 196.954C110.71 204.862 102.191 212.229 91.8897 217.698C91.755 217.77 91.6047 217.807 91.4522 217.807Z" fill="#FEE7DA"/>
<path d="M62.1361 230.173C66.181 230.173 69.4601 226.894 69.4601 222.849C69.4601 218.804 66.181 215.525 62.1361 215.525C58.0911 215.525 54.812 218.804 54.812 222.849C54.812 226.894 58.0911 230.173 62.1361 230.173Z" fill="#FEE7DA"/>
<g clip-path="url(#clip0)">
<path d="M34.5637 130.222L22.0008 117.659C21.6326 117.291 21.0356 117.291 20.6674 117.659L8.10445 130.222C7.73624 130.59 7.73624 131.187 8.10445 131.555L20.6674 144.118C21.0356 144.487 21.6326 144.487 22.0008 144.118L34.5637 131.555C34.9319 131.187 34.9319 130.59 34.5637 130.222Z" fill="#DEE5FD"/>
</g>
<g clip-path="url(#clip1)">
<path d="M142.918 217.436L133.343 207.861C133.063 207.581 132.608 207.581 132.327 207.861L122.752 217.436C122.472 217.717 122.472 218.172 122.752 218.452L132.327 228.027C132.608 228.308 133.063 228.308 133.343 228.027L142.918 218.452C143.199 218.172 143.199 217.717 142.918 217.436Z" fill="#DEE5FD"/>
</g>
<path fill-rule="evenodd" clip-rule="evenodd" d="M242.505 84.2585C243.74 84.9247 244.626 85.6736 245.16 86.5052C245.694 87.3377 245.962 88.536 245.962 90.1001V100.535C245.962 101.5 246.162 102.174 246.563 102.557C246.963 102.939 247.665 103.131 248.666 103.131H250.019C250.486 103.131 250.87 103.256 251.171 103.506C251.471 103.755 251.622 104.23 251.622 104.929C251.622 105.461 251.463 105.885 251.146 106.202C250.828 106.518 250.452 106.676 250.019 106.676H247.014C245.377 106.676 244.166 106.334 243.382 105.652C242.597 104.97 242.205 103.763 242.205 102.033V91.4481C242.205 88.22 241.019 86.4725 238.649 86.2058C238.114 86.1395 237.663 85.9561 237.296 85.6566C236.928 85.357 236.745 84.9247 236.745 84.3584C236.745 83.7928 236.946 83.3521 237.346 83.0352C237.747 82.7195 238.231 82.5282 238.799 82.4612C240.068 82.295 240.953 81.7208 241.454 80.7386C241.955 79.7574 242.205 78.2673 242.205 76.2702V66.9337C242.205 65.3361 242.672 64.105 243.607 63.2389C244.542 62.374 245.711 61.9409 247.114 61.9409H250.019C250.452 61.9409 250.845 62.0656 251.196 62.3154C251.547 62.5651 251.722 63.0394 251.722 63.7383C251.788 64.371 251.655 64.8203 251.321 65.0864C250.987 65.3533 250.553 65.4859 250.019 65.4859H248.566C247.597 65.4859 246.921 65.6854 246.538 66.085C246.153 66.4843 245.962 67.2668 245.962 68.4316V78.517C245.962 81.0134 244.81 82.9277 242.505 84.2585Z" fill="#D5DFFD"/>
<path fill-rule="evenodd" clip-rule="evenodd" d="M264.965 78.517V68.4316C264.965 67.2668 264.773 66.4843 264.389 66.085C264.005 65.6854 263.329 65.4859 262.36 65.4859H260.908C260.374 65.4859 259.94 65.3533 259.605 65.0864C259.272 64.8203 259.138 64.371 259.205 63.7383C259.205 63.0394 259.38 62.5651 259.731 62.3154C260.081 62.0656 260.474 61.9409 260.908 61.9409H263.813C265.215 61.9409 266.385 62.374 267.319 63.2389C268.254 64.105 268.722 65.3361 268.722 66.9337V76.2702C268.722 78.2673 268.972 79.7574 269.473 80.7386C269.974 81.7208 270.859 82.295 272.128 82.4612C272.696 82.5282 273.18 82.7195 273.58 83.0352C273.981 83.3521 274.181 83.7928 274.181 84.3584C274.181 84.9247 273.998 85.357 273.63 85.6566C273.263 85.9561 272.812 86.1395 272.278 86.2058C269.907 86.4725 268.722 88.22 268.722 91.4481V102.033C268.722 103.763 268.329 104.97 267.545 105.652C266.76 106.334 265.55 106.676 263.913 106.676H260.908C260.474 106.676 260.098 106.518 259.781 106.202C259.464 105.885 259.305 105.461 259.305 104.929C259.305 104.23 259.455 103.755 259.756 103.506C260.056 103.256 260.44 103.131 260.908 103.131H262.26C263.262 103.131 263.963 102.939 264.364 102.557C264.765 102.174 264.965 101.5 264.965 100.535V90.1001C264.965 88.536 265.233 87.3377 265.766 86.5052C266.301 85.6736 267.186 84.9247 268.421 84.2585C266.117 82.9277 264.965 81.0134 264.965 78.517Z" fill="#D5DFFD"/>
<defs>
<clipPath id="clip0">
<rect width="30.1709" height="30.1709" fill="white" transform="translate(21.3341 109.534) rotate(45)"/>
</clipPath>
<clipPath id="clip1">
<rect width="22.9947" height="22.9947" fill="white" transform="translate(132.835 201.668) rotate(45)"/>
</clipPath>
</defs>
</svg>
