<svg width="66" height="65" xmlns="http://www.w3.org/2000/svg" xmlns:xlink="http://www.w3.org/1999/xlink" viewBox="0 0 98.74 119.79"><defs><style>.cls-1{fill:url(#Degradado_sin_nombre_3);}.cls-2{fill:#ff91aa;}.cls-3{fill:url(#Degradado_sin_nombre_2);}</style><linearGradient id="Degradado_sin_nombre_3" x1="2.05" y1="80.99" x2="98.74" y2="80.99" gradientUnits="userSpaceOnUse"><stop offset="0.24" stop-color="#9267ff"/><stop offset="1" stop-color="#ff91aa"/></linearGradient><linearGradient id="Degradado_sin_nombre_2" x1="30.75" y1="16.71" x2="98.71" y2="16.71" gradientUnits="userSpaceOnUse"><stop offset="0.24" stop-color="#ff5a71"/><stop offset="1" stop-color="#ff91aa"/></linearGradient></defs><g id="Calque_2" data-name="Calque 2"><g id="OBJECTS"><path class="cls-1" d="M91.42,78.51a21.4,21.4,0,0,0-3.19-2.25l-1-.6a20,20,0,0,0-19.31-.18,17.51,17.51,0,1,1-8-33.1l.76,0c-1.64-.13-3.29-.2-5-.2A59.89,59.89,0,0,0,2.05,75.44,59.94,59.94,0,0,0,53,119.38c.65.08,1.31.14,2,.2,1.64.13,3.3.21,5,.21a59.89,59.89,0,0,0,27.62-6.74A21,21,0,0,0,91.42,78.51Z"/><path class="cls-2" d="M76.35,29c-3.71-3.12-7.1-6.61-10.79-9.75-9-7.67-21.24-11.37-33-11.7-.62,0-1.23,0-1.84,0A59.91,59.91,0,0,0,2.05,75.44,59.89,59.89,0,0,1,55.69,42.2c1.67,0,3.32.07,5,.2.64,0,1.28.1,1.9.19a17.4,17.4,0,0,1,5.31,1.71A20.26,20.26,0,0,0,78,46.49a22.25,22.25,0,0,0,10.19-3h0a20.68,20.68,0,0,0,9.66-12.15,20.88,20.88,0,0,1-9.3,2.05C83.46,33.38,80.17,32.25,76.35,29Z"/><path class="cls-3" d="M87.48,6.72a59.93,59.93,0,0,0-56.73.85c.61,0,1.22,0,1.84,0,11.73.33,24,4,33,11.7,3.69,3.14,7.08,6.63,10.79,9.75s7.11,4.34,12.18,4.38a20.88,20.88,0,0,0,9.3-2.05A20.9,20.9,0,0,0,87.48,6.72Z"/></g></g></svg>