<svg width="101" height="22" viewBox="0 0 101 22" fill="none" xmlns="http://www.w3.org/2000/svg">
<path d="M20.3474 10.9988C20.2491 16.6014 15.6786 21.0737 10.1252 21.0245C4.37516 20.9754 -0.0970797 16.2574 0.0503567 10.5074C0.197793 4.95395 4.8666 0.530858 10.42 0.678295C15.9735 0.825731 20.4457 5.44541 20.3474 10.9988Z" fill="#FEA08F"/>
<path d="M60.6496 10.9988C60.5513 16.6014 55.9808 21.0737 50.4274 21.0245C44.6773 20.9754 40.2051 16.2574 40.3525 10.5074C40.5 4.95395 45.1688 0.530858 50.7222 0.678295C56.2757 0.825731 60.7479 5.44541 60.6496 10.9988Z" fill="#FEA08F" fill-opacity="0.8"/>
<path d="M100.952 10.9988C100.854 16.6014 96.283 21.0737 90.7296 21.0245C84.9796 20.9754 80.5074 16.2574 80.6548 10.5074C80.8022 4.95395 85.471 0.530858 91.0245 0.678295C96.5779 0.825731 101.05 5.44541 100.952 10.9988Z" fill="#FEA08F" fill-opacity="0.6"/>
</svg>
