<svg width="209" height="409" viewBox="0 0 209 409" fill="none" xmlns="http://www.w3.org/2000/svg">
<path d="M171.262 150.906C171.52 150.906 171.692 151.079 171.692 151.337C171.692 151.595 171.52 151.767 171.348 151.767H171.262L130.545 152.37C130.286 152.37 130.114 152.198 130.114 151.939C130.114 151.681 130.286 151.509 130.459 151.509H130.545L171.262 150.906Z" fill="#A3B5D6"/>
<path fill-rule="evenodd" clip-rule="evenodd" d="M78.8945 257.821C78.8085 257.563 106.613 322.727 109.023 327.204C115.566 339.427 117.804 340.374 112.983 347.089C111.778 348.81 108.765 349.241 107.646 353.631C104.719 365.683 96.5415 375.926 92.7538 371.967C89.5688 368.007 99.21 344.937 96.1111 334.951C92.8399 324.535 41.879 257.907 45.5806 249.041C49.196 240.26 49.2821 207.463 78.8945 257.821Z" fill="#F9BB87"/>
<path fill-rule="evenodd" clip-rule="evenodd" d="M26.5562 224.938L87.7609 329.958L124.949 308.438C124.949 308.438 93.8728 250.504 64.3465 203.503C64.3465 203.503 50.6593 177.936 30.9464 189.644C11.2335 201.351 26.5562 224.938 26.5562 224.938Z" fill="#B6B6C6"/>
<path fill-rule="evenodd" clip-rule="evenodd" d="M44.2898 184.909C88.7085 179.4 121.506 178.969 131.75 181.466C131.75 181.466 153.098 185.77 149.052 202.126C144.146 222.183 121.248 222.527 121.248 222.527L46.9584 228.381C41.0187 228.897 21.6501 231.135 20.531 208.323C19.5841 186.889 43.3429 185.081 44.2898 184.909Z" fill="#B6B6C6"/>
<path fill-rule="evenodd" clip-rule="evenodd" d="M43.6869 156.33C43.6869 156.33 100.501 136.359 108.507 134.12C128.823 128.353 131.405 153.059 118.493 156.416C110.745 158.396 94.9922 160.72 81.305 162.872C62.0225 165.885 47.8189 167.521 47.8189 167.521L43.6869 156.33Z" fill="#F4B784"/>
<path fill-rule="evenodd" clip-rule="evenodd" d="M196.053 105.627C184.088 111.997 179.181 115.957 162.137 120.433C158.005 121.552 154.561 121.983 151.721 121.983C137.259 121.983 136.656 110.189 129.339 106.23C127.445 105.283 125.207 104.766 122.108 105.111C121.678 105.197 121.161 105.197 120.731 105.197C104.547 105.799 95.0784 84.4507 110.401 71.194C120.989 62.0692 102.309 58.0234 119.009 46.4883C123.313 43.5615 114.017 33.7481 113.844 24.4511C113.586 6.45988 144.834 0.434099 144.834 0.434099C144.834 0.434099 150.774 -0.943228 154.475 1.20884C155.164 1.55317 155.767 2.06967 156.197 2.75833C164.289 1.20884 169.54 11.1083 175.135 27.3779C180.731 43.6476 189.597 42.4424 199.152 52.0837C214.647 67.3203 208.105 99.2569 196.053 105.627Z" fill="#C85C5A" fill-opacity="0.74"/>
<path fill-rule="evenodd" clip-rule="evenodd" d="M193.814 106.832C181.849 113.202 176.942 117.162 159.897 121.638C155.765 122.757 152.322 123.188 149.481 123.188C139.065 119.228 139.668 106.23 127.1 107.435C127.014 107.435 126.842 107.435 126.756 107.435C123.743 107.779 120.988 107.349 118.492 106.402C106.871 101.839 102.05 84.7089 115.048 73.5182C125.637 64.3934 106.957 60.3475 123.657 48.8125C127.961 45.8857 118.664 36.0722 118.492 26.7753C118.233 8.78406 149.481 2.75828 149.481 2.75828C149.481 2.75828 150.601 2.50002 152.236 2.41394C152.925 2.75827 153.527 3.27477 153.958 3.96343C162.049 2.41394 169.194 11.2805 174.79 27.5501C180.385 43.8197 189.338 42.7867 198.893 52.4279C214.388 67.5785 205.779 100.376 193.814 106.832Z" fill="#C85C5A" fill-opacity="0.74"/>
<path fill-rule="evenodd" clip-rule="evenodd" d="M149.138 41.4093C157.23 39.8598 154.906 42.5284 164.633 47.9516C181.247 57.0764 181.505 54.0635 191.061 63.7047C206.469 78.9414 183.571 105.627 171.52 111.997C159.554 118.367 168.937 128.439 151.979 132.915C147.847 134.034 144.404 134.465 141.563 134.465C131.147 130.505 131.75 117.506 119.182 118.712C119.096 118.712 118.923 118.712 118.837 118.712C115.824 119.056 139.583 107.607 137.087 106.574C125.466 102.011 105.15 97.1048 118.149 85.914C128.737 76.7893 111.09 75.2398 127.876 63.7047C132.18 60.7779 133.73 54.7521 133.644 45.5413" fill="#C85C5A" fill-opacity="0.74"/>
<path fill-rule="evenodd" clip-rule="evenodd" d="M158.866 63.7049C157.402 51.309 156.111 41.2373 156.111 41.2373L137.001 51.9976L138.12 67.0621C138.981 72.5714 144.318 76.359 149.827 75.326C155.681 74.1209 159.554 69.5585 158.866 63.7049Z" fill="#F4B784"/>
<path fill-rule="evenodd" clip-rule="evenodd" d="M146.47 19.4584C146.47 19.4584 144.318 13.863 140.53 16.6177C137.776 18.5115 138.55 16.962 137.862 15.4986C135.537 9.90322 134.763 23.6764 125.896 26.6032C125.724 33.662 125.38 56.0435 140.53 56.9043C146.47 57.2486 153.959 53.0306 156.628 45.0249C158.349 39.7739 156.886 34.5228 154.82 33.4899C148.019 30.0465 148.106 26.5172 146.47 19.4584Z" fill="#FFC999"/>
<path d="M133.041 25.4841C133.299 25.398 133.471 25.4841 133.644 25.6563V25.7423L135.021 29.4439V29.53V29.9604C135.021 30.0465 135.021 30.1325 135.021 30.2186C135.193 32.5429 135.021 35.5558 134.59 39.1712L134.504 39.6877H134.849C135.537 39.7738 136.14 39.8599 136.743 39.946L137.087 40.0321C137.431 40.1181 137.776 40.2042 138.034 40.2903L138.206 40.3764C138.378 40.4625 138.55 40.4625 138.636 40.5485C138.895 40.6346 138.981 40.8929 138.895 41.1511C138.809 41.4094 138.55 41.4955 138.292 41.4094L138.12 41.3233C138.034 41.3233 138.034 41.3233 137.948 41.2372C137.689 41.1511 137.345 41.065 136.915 40.979C136.054 40.8068 135.021 40.7207 133.988 40.6346C133.73 40.6346 133.471 40.3764 133.558 40.1181C134.16 36.3305 134.246 33.1454 134.16 30.649V30.0465V29.7021L132.783 26.0867C132.697 25.9145 132.783 25.6563 133.041 25.4841Z" fill="#DD936F"/>
<path d="M143.285 42.5285C143.629 42.4424 143.973 42.6146 144.06 42.9589C144.146 43.3033 143.973 43.6476 143.629 43.7337C143.371 43.8198 143.199 43.9059 142.94 43.9059C141.477 44.3363 139.928 44.5084 138.378 44.6806C137.431 44.7667 136.57 44.7667 135.882 44.7667H135.451C135.107 44.7667 134.849 44.4223 134.849 44.1641C134.849 43.8198 135.193 43.5615 135.451 43.5615H135.623C136.312 43.5615 137.173 43.5615 138.206 43.4754C139.669 43.3894 141.219 43.1311 142.596 42.7868C142.854 42.7007 143.113 42.6146 143.285 42.5285Z" fill="#DB6E6E"/>
<path d="M126.24 26.1729C127.876 25.0538 130.2 24.7095 133.213 25.6564C133.557 25.7425 133.729 26.0868 133.643 26.4311C133.557 26.7755 133.213 26.9476 132.869 26.8615C130.2 26.0868 128.306 26.345 127.015 27.2059C126.585 27.5502 126.326 27.8084 126.154 27.9806C125.982 28.2389 125.552 28.3249 125.293 28.1528C125.035 27.9806 124.949 27.5502 125.121 27.2919C125.293 27.0337 125.638 26.6033 126.24 26.1729Z" fill="#72789D"/>
<path d="M145.694 24.0208C146.641 24.0208 147.502 24.0207 148.277 24.1929C148.621 24.279 148.793 24.6233 148.793 24.8816C148.707 25.2259 148.363 25.3981 148.105 25.3981C147.416 25.2259 146.641 25.2259 145.866 25.2259C144.747 25.2259 143.628 25.3981 142.423 25.6563C142.079 25.7424 141.734 25.8285 141.39 25.8285L140.874 25.9146C140.788 25.9146 140.615 26.0007 140.615 26.0007C140.271 26.0867 139.927 25.9146 139.841 25.5702C139.755 25.2259 139.927 24.8816 140.271 24.7955L140.615 24.7094L140.874 24.6233C141.304 24.5372 141.734 24.4512 142.251 24.3651C143.284 24.1929 144.575 24.0208 145.694 24.0208Z" fill="#72789D"/>
<path d="M140.271 47.2631C140.529 47.2631 140.787 47.4352 140.787 47.6935C140.787 47.9517 140.615 48.1239 140.443 48.21H140.357L138.721 48.2961C138.463 48.2961 138.205 48.1239 138.205 47.8656C138.205 47.6074 138.377 47.4352 138.549 47.3491H138.635L140.271 47.2631Z" fill="#DD936F"/>
<path fill-rule="evenodd" clip-rule="evenodd" d="M165.321 36.8472C166.44 30.9075 160.758 31.338 160.758 31.338C160.758 31.338 160.758 37.2777 159.295 42.5287C164.976 42.3565 165.321 36.8472 165.321 36.8472Z" fill="#FFC999"/>
<path d="M130.114 30.7353C131.405 30.5631 132.524 31.8544 132.782 33.4038C132.782 33.7482 132.61 34.0064 132.266 34.0925C131.921 34.0925 131.663 33.9204 131.577 33.576C131.491 32.543 130.888 31.9404 130.286 31.9404C129.769 32.0265 129.339 32.8013 129.425 33.7482C129.425 34.0925 129.253 34.3508 128.909 34.4368C128.564 34.4368 128.306 34.2647 128.22 33.9203C127.962 32.3709 128.736 30.9075 130.114 30.7353Z" fill="#72789D"/>
<path d="M143.8 29.444C145.264 29.1857 146.641 30.477 146.899 32.1986C146.985 32.5429 146.727 32.8873 146.383 32.8873C146.038 32.9734 145.694 32.7151 145.694 32.3708C145.522 31.2517 144.747 30.563 143.972 30.6491C143.198 30.7352 142.681 31.6821 142.853 32.7151C142.94 33.0594 142.681 33.4038 142.337 33.4038C141.993 33.4898 141.648 33.2316 141.648 32.8873C141.39 31.2517 142.337 29.7022 143.8 29.444Z" fill="#72789D"/>
<path fill-rule="evenodd" clip-rule="evenodd" d="M105.753 147.119C105.753 147.119 107.044 105.541 107.905 97.5353C110.057 78.1667 120.903 73.8626 129.167 81.7822C139.067 91.2512 127.273 149.443 127.273 149.443C127.273 149.443 125.81 157.19 116.513 157.363C105.494 157.449 105.753 147.119 105.753 147.119Z" fill="#F4B784"/>
<path fill-rule="evenodd" clip-rule="evenodd" d="M109.972 325.224C109.972 325.224 110.746 331.336 106.356 334.521C101.966 337.706 96.1984 340.202 96.1984 340.202L91.2917 367.146C91.2917 367.146 89.4839 373.861 90.7752 374.463C93.6159 375.754 98.6087 379.542 104.979 374.377C111.349 369.212 109.972 360.432 112.812 355.094C115.739 349.499 122.97 345.97 121.765 341.924C121.076 339.686 120.732 335.984 118.924 332.799C117.375 330.131 114.62 327.806 112.984 326.859" fill="#C9C9C9"/>
<path fill-rule="evenodd" clip-rule="evenodd" d="M109.368 322.986C109.368 322.986 110.143 329.097 105.753 332.283C101.363 335.468 95.5953 337.964 95.5953 337.964L91.6355 365.08C91.6355 365.08 89.7417 372.053 90.9468 372.655C93.7875 373.947 97.9195 377.304 104.29 372.139C110.66 366.974 108.508 357.677 111.262 352.34C114.189 346.744 122.281 343.818 121.076 339.772C120.387 337.534 120.043 333.832 118.235 330.647C116.686 327.978 113.931 325.654 112.295 324.707" fill="#505AE2"/>
<path fill-rule="evenodd" clip-rule="evenodd" d="M106.097 117.248C106.355 113.116 103.17 75.7563 120.645 75.6702C134.246 75.5842 131.061 93.3172 127.101 123.188L106.097 117.248Z" fill="#9FBEFC"/>
<path fill-rule="evenodd" clip-rule="evenodd" d="M170.056 152.284C160.328 154.694 133.471 153.489 130.544 152.284C127.617 151.078 129.253 142.212 129.253 142.212C111.606 97.2768 113.327 82.2985 114.877 79.0273C116.943 74.551 135.623 74.8093 136.311 71.2799C136.656 69.5582 136.57 63.5325 136.57 63.5325L160.673 62.1552C160.673 62.1552 162.05 68.7835 163.255 70.8495C165.752 74.9815 180.902 71.7964 187.186 80.1464C198.377 95.0387 183.054 120.691 174.704 139.285C174.618 139.285 175.135 148.066 170.056 152.284Z" fill="#9FBEFC"/>
<path fill-rule="evenodd" clip-rule="evenodd" d="M134.589 215.038L114.016 193.603C114.016 193.603 118.406 169.672 129.855 159.256L170.4 157.793C170.4 157.793 187.789 169.931 185.895 199.285L154.905 215.21L134.589 215.038Z" fill="#E7E7FF"/>
<path fill-rule="evenodd" clip-rule="evenodd" d="M171.433 158.224L129.941 159.171L130.974 152.8L170.142 151.595L171.433 158.224Z" fill="#E4EBF7"/>
<path d="M144.404 159.257C144.662 159.257 144.834 159.515 144.834 159.773C144.404 163.819 143.973 168.209 143.801 172.944C143.198 183.532 143.198 194.723 143.543 205.483L143.629 207.377C143.715 208.926 143.715 210.39 143.801 211.595L143.887 213.747C143.887 214.005 143.715 214.263 143.457 214.263C143.198 214.263 142.94 214.091 142.94 213.833L142.854 212.886L142.768 211.164C142.682 210.217 142.682 209.098 142.596 207.979V207.377C142.165 196.1 142.165 184.134 142.768 172.944C143.026 168.209 143.371 163.819 143.887 159.687C143.887 159.429 144.059 159.257 144.404 159.257Z" fill="#A3B5D6"/>
<path d="M171.347 158.137C171.606 158.137 171.778 158.309 171.778 158.568C171.778 158.826 171.606 158.998 171.434 158.998H171.347L130.63 159.687C130.372 159.687 130.2 159.515 130.2 159.256C130.2 158.998 130.372 158.826 130.544 158.826H130.63L171.347 158.137Z" fill="#A3B5D6"/>
<path fill-rule="evenodd" clip-rule="evenodd" d="M130.803 276.673C130.717 276.415 149.913 349.757 151.721 354.922C156.714 368.954 158.952 370.245 152.84 376.615C151.291 378.251 148.019 378.165 146.212 382.641C141.219 394.951 130.975 404.506 127.532 399.685C124.777 395.037 138.636 372.053 136.915 361.034C135.107 349.499 91.7214 270.82 96.9725 262.125C102.137 253.345 107.388 218.74 130.803 276.673Z" fill="#FFC999"/>
<path fill-rule="evenodd" clip-rule="evenodd" d="M66.7561 218.481L102.05 342.01C102.308 342.871 103.169 343.387 104.03 343.129L145.263 331.422C146.124 331.163 146.641 330.303 146.382 329.442C143.8 319.026 128.219 257.735 111.605 206.172V206.085C111.347 204.88 103.686 176.129 80.6154 182.929C57.0288 189.988 66.7561 218.481 66.7561 218.481Z" fill="#E7E7FF"/>
<path fill-rule="evenodd" clip-rule="evenodd" d="M89.9984 180.863C139.238 173.632 154.732 173.718 166.181 176.301C166.181 176.301 190.026 180.519 185.98 198.854C181.074 221.236 155.593 222.183 155.593 222.183L94.1303 229.069C87.588 229.844 64.1736 231.308 64.1736 207.463C64.2597 183.532 88.9654 181.035 89.9984 180.863Z" fill="#E7E7FF"/>
<path fill-rule="evenodd" clip-rule="evenodd" d="M172.295 139.285C172.295 139.285 164.375 103.561 164.72 95.2111C165.494 75.0678 179.526 73.0018 186.757 82.0404C192.352 89.0131 195.795 141.437 195.795 141.437C195.795 141.437 193.643 150.39 184.432 151.337C173.328 152.37 172.295 139.285 172.295 139.285Z" fill="#FFC999"/>
<path opacity="0.08" fill-rule="evenodd" clip-rule="evenodd" d="M123.572 162.442L122.625 168.209L120.3 173.546L129.253 176.387L160.587 171.997C164.547 171.308 174.188 161.322 179.009 167.09C179.009 167.09 179.87 167.951 171.347 158.224C162.051 147.549 123.572 162.442 123.572 162.442Z" fill="black"/>
<path fill-rule="evenodd" clip-rule="evenodd" d="M178.578 75.0676C188.306 77.0475 192.093 86.6888 192.954 113.977L167.215 118.109C167.129 113.891 150.343 71.9686 180.644 75.412" fill="#9FBEFC"/>
<path fill-rule="evenodd" clip-rule="evenodd" d="M109.11 157.621C109.11 157.621 170.573 132.743 178.751 130.935C195.278 127.234 201.046 146.688 187.187 152.542C169.368 159.945 112.209 171.05 112.209 171.05L109.11 157.621Z" fill="#FFC999"/>
<path d="M171.52 80.1467C171.778 80.0606 172.036 80.1467 172.122 80.4049C172.209 80.6632 172.123 80.9214 171.864 81.0075C169.798 81.8683 168.163 84.3647 166.871 87.808C166.269 89.4436 165.838 91.1652 165.494 92.8869C165.408 93.4034 165.322 93.8338 165.236 94.2642L165.15 94.7807L165.064 95.125L167.646 118.023C167.646 118.281 167.56 118.453 167.302 118.539H167.216C166.958 118.539 166.785 118.453 166.699 118.195V118.109L164.117 95.2111V95.125L164.203 94.6946V94.4364C164.289 93.9199 164.375 93.3173 164.547 92.7147C164.892 90.907 165.408 89.1853 166.011 87.4637C167.388 83.8482 169.196 81.1797 171.52 80.1467Z" fill="#808491"/>
<path opacity="0.08" fill-rule="evenodd" clip-rule="evenodd" d="M36.1971 186.2C33.5286 186.2 33.1842 188.094 29.7409 189.816C24.4899 192.484 27.9332 191.021 34.0451 193.689C35.4224 194.292 47.3018 198.166 54.3606 198.854C67.6173 200.232 76.5699 203.847 84.7477 203.245C109.798 201.523 119.525 199.457 135.795 195.239C151.892 191.107 149.051 188.955 147.846 184.909C147.072 182.413 143.8 186.2 156.11 187.578C158.951 187.922 157.315 184.909 154.475 184.995L36.1971 186.2Z" fill="black"/>
<path d="M157.745 72.1409C158.004 72.1409 158.176 72.313 158.262 72.5713C158.262 72.8295 158.09 73.0017 157.918 73.0017H157.831L140.012 73.6043C139.754 73.6043 139.582 73.4321 139.496 73.1739C139.496 72.9156 139.668 72.7435 139.84 72.7435H139.926L157.745 72.1409Z" fill="#808491"/>
<path d="M120.129 87.1194C120.387 87.0334 120.559 87.1194 120.645 87.3777V87.4638L122.023 91.5957C122.023 91.6818 122.023 91.7679 122.023 91.854V91.9401L118.407 101.84L118.321 102.012C118.321 102.098 118.235 102.184 118.235 102.27C118.063 102.614 117.977 103.045 117.805 103.475C116.341 108.898 117.374 115.527 122.883 122.758C123.056 122.93 122.97 123.274 122.797 123.446C122.625 123.618 122.281 123.532 122.109 123.36C116.427 115.871 115.308 108.898 116.944 103.217C117.116 102.7 117.202 102.27 117.374 101.926L117.46 101.667C117.46 101.581 117.546 101.581 117.546 101.495L121.076 91.7679L119.698 87.722C119.784 87.4638 119.871 87.2055 120.129 87.1194Z" fill="#808491"/>
<path d="M156.972 172.169C157.23 172.169 157.488 172.341 157.488 172.599C157.488 172.858 157.402 173.03 157.144 173.116H157.058L86.7285 181.724C86.4703 181.724 86.2121 181.552 86.2121 181.294C86.2121 181.035 86.2981 180.863 86.5564 180.777H86.6425L156.972 172.169Z" fill="#A3B5D6"/>
<path fill-rule="evenodd" clip-rule="evenodd" d="M85.0056 196.014L156.971 184.651L85.6081 163.044L26.2972 178.367L85.0056 196.014Z" fill="#CCD7EE"/>
<path fill-rule="evenodd" clip-rule="evenodd" d="M82.2523 191.021L134.504 182.757L83.9739 167.004L39.7275 178.281L82.2523 191.021Z" fill="#A0A7C5"/>
<path fill-rule="evenodd" clip-rule="evenodd" d="M156.885 188.353L156.971 184.651L83.5422 195.67L84.7473 199.629L156.885 188.353Z" fill="#767E9D"/>
<path d="M73.9875 170.189C74.0736 170.017 74.1596 169.931 74.3318 170.017H74.4179L115.565 185.081C115.738 185.167 115.824 185.339 115.738 185.512C115.651 185.684 115.565 185.77 115.393 185.684H115.307L74.1596 170.619C73.9875 170.533 73.9014 170.361 73.9875 170.189Z" fill="#CCD7EE"/>
<path d="M79.4112 168.037C79.4973 167.865 79.5834 167.779 79.7556 167.865H79.8416L125.81 183.876C125.982 183.962 126.068 184.134 125.982 184.306C125.896 184.479 125.81 184.565 125.638 184.479H125.551L79.5834 168.467C79.4973 168.381 79.4112 168.209 79.4112 168.037Z" fill="#CCD7EE"/>
<path d="M73.3856 173.977C73.4717 173.805 73.5578 173.719 73.7299 173.805H73.816L108.335 186.975C108.507 187.061 108.593 187.234 108.507 187.406C108.421 187.578 108.335 187.664 108.163 187.578H108.077L73.5577 174.407C73.3856 174.321 73.2995 174.149 73.3856 173.977Z" fill="#CCD7EE"/>
<path d="M63.9165 174.923C64.0026 174.751 64.0887 174.665 64.2608 174.751H64.3469L98.866 187.922C99.0382 188.008 99.1243 188.18 99.0382 188.352C98.9521 188.524 98.866 188.61 98.6939 188.524H98.6078L64.0887 175.354C63.9165 175.268 63.8304 175.095 63.9165 174.923Z" fill="#CCD7EE"/>
<path d="M55.1349 176.387C55.221 176.215 55.3071 176.129 55.4792 176.215H55.5653L90.0844 189.385C90.2566 189.472 90.3427 189.644 90.2566 189.816C90.1705 189.988 90.0844 190.074 89.9123 189.988H89.8262L55.3071 176.817C55.221 176.731 55.1349 176.559 55.1349 176.387Z" fill="#CCD7EE"/>
<path d="M125.981 180.433C126.153 180.433 126.325 180.519 126.325 180.691C126.325 180.863 126.239 180.949 126.153 181.036H126.067L81.304 186.545C81.1318 186.545 80.9597 186.459 80.9597 186.287C80.9597 186.114 81.0457 186.028 81.1318 185.942H81.2179L125.981 180.433Z" fill="#CCD7EE"/>
<path d="M116.081 176.99C116.254 176.99 116.426 177.076 116.426 177.248C116.426 177.42 116.34 177.506 116.254 177.592H116.167L71.4045 183.102C71.2323 183.102 71.0602 183.016 71.0602 182.843C71.0602 182.671 71.1462 182.585 71.2323 182.499H71.3184L116.081 176.99Z" fill="#CCD7EE"/>
<path d="M103.773 174.579C103.945 174.579 104.117 174.665 104.117 174.837C104.117 175.01 104.031 175.096 103.945 175.182H103.859L59.0957 180.691C58.9235 180.691 58.7514 180.605 58.7514 180.433C58.7514 180.261 58.8375 180.174 58.9235 180.088H59.0096L103.773 174.579Z" fill="#CCD7EE"/>
<path d="M95.4216 168.467C95.5937 168.467 95.7659 168.553 95.7659 168.725C95.7659 168.898 95.6798 168.984 95.5937 169.07H95.5076L50.7447 174.579C50.5725 174.579 50.4004 174.493 50.4004 174.321C50.4004 174.149 50.4864 174.063 50.5725 173.976H50.6586L95.4216 168.467Z" fill="#CCD7EE"/>
<path fill-rule="evenodd" clip-rule="evenodd" d="M84.6612 199.629L81.3901 199.888L25.8668 182.413L3.48534 88.5828L63.2267 100.548L84.6612 199.629Z" fill="#767E9D"/>
<path fill-rule="evenodd" clip-rule="evenodd" d="M81.3047 199.887L22.7686 181.552C22.2521 181.38 21.8216 180.949 21.7356 180.433L0.0427493 90.3043C-0.215499 89.1853 0.731407 88.1523 1.93656 88.4105L58.665 99.7734C59.2676 99.8595 59.7841 100.376 59.8702 100.979L81.3047 199.887Z" fill="url(#paint0_linear)"/>
<path fill-rule="evenodd" clip-rule="evenodd" d="M115.823 168.64C114.101 175.182 99.3813 173.03 99.3813 173.03L92.1504 178.883C91.0313 179.658 90.5148 178.883 89.9123 179.056C88.2767 179.4 87.8463 177.678 87.8463 177.678C87.2437 177.506 86.3829 178.195 85.7803 176.645C85.7803 176.645 84.5751 176.817 84.1447 175.44C83.9725 174.924 86.2968 167.865 87.6741 163.733C88.2767 161.925 89.8262 160.634 91.72 160.29L109.281 157.621C109.367 157.707 118.233 159.773 115.823 168.64Z" fill="#FFC999"/>
<path d="M100.415 168.381C100.673 168.295 100.931 168.381 101.017 168.64C101.103 168.898 101.017 169.07 100.845 169.242H100.759L95.5939 171.48L90.4289 178.625C90.2568 178.797 90.0846 178.883 89.8263 178.797L89.7402 178.711C89.5681 178.539 89.482 178.367 89.5681 178.109L89.6542 178.023L94.9052 170.792C94.9052 170.706 94.9913 170.706 94.9913 170.706H95.0774L100.415 168.381Z" fill="#DD936F"/>
<path d="M96.8865 166.143C97.1447 166.057 97.4029 166.057 97.489 166.315C97.5751 166.487 97.5751 166.746 97.403 166.918L97.3169 167.004L92.5823 169.672L88.3643 176.989C88.2782 177.162 88.0199 177.248 87.7617 177.162H87.6756C87.5034 177.076 87.4174 176.817 87.5035 176.559V176.473L91.8076 168.984C91.8076 168.898 91.8936 168.898 91.8936 168.898L91.9797 168.812L96.8865 166.143Z" fill="#DD936F"/>
<path d="M93.5288 164.163C93.701 163.991 94.0453 164.077 94.2174 164.249C94.3896 164.421 94.3896 164.68 94.2174 164.852L94.1314 164.938L90.9463 167.434L87.0726 175.354C86.9865 175.526 86.7283 175.698 86.47 175.612H86.3839C86.2118 175.526 86.0396 175.268 86.1257 175.01V174.924L89.9994 166.918L90.0855 166.832L90.1715 166.746L93.5288 164.163Z" fill="#DD936F"/>
<path fill-rule="evenodd" clip-rule="evenodd" d="M153.01 359.484C153.01 359.484 152.666 365.596 147.673 367.921C142.68 370.245 136.568 371.536 136.568 371.536L126.497 397.016C126.497 397.016 123.484 403.301 124.517 404.075C127.099 405.883 131.231 410.618 138.462 406.744C145.693 402.956 146.124 394.004 149.825 389.355C153.785 384.362 161.532 382.382 161.188 378.25C161.016 376.012 161.274 372.225 160.155 368.781C159.208 365.855 156.884 363.014 155.507 361.809" fill="#C9C9C9"/>
<path fill-rule="evenodd" clip-rule="evenodd" d="M152.752 357.16C152.752 357.16 152.408 363.272 147.415 365.596C142.422 367.92 136.311 369.212 136.311 369.212L127.1 395.036C127.1 395.036 123.915 401.579 125.034 402.267C127.616 404.075 130.973 408.207 138.204 404.333C145.435 400.546 145.177 390.905 148.879 386.256C152.838 381.263 161.275 379.972 160.93 375.84C160.758 373.602 161.016 369.814 159.897 366.371C158.95 363.444 156.626 360.603 155.249 359.398" fill="#7A7EF1"/>
<path opacity="0.08" fill-rule="evenodd" clip-rule="evenodd" d="M171.003 133.604L166.01 109.243C165.752 107.951 165.579 106.574 165.665 105.197L164.632 95.9859L166.01 88.1523C166.01 88.1523 166.096 87.6358 163.513 92.5426C161.534 96.3302 160.07 102.27 158.176 113.805C156.196 125.598 156.11 136.359 158.348 138.252" fill="black"/>
<path opacity="0.08" fill-rule="evenodd" clip-rule="evenodd" d="M121.333 121.552C121.333 121.552 116.426 113.977 116.685 110.362C117.201 103.303 119.525 98.138 119.525 98.138C119.267 96.8467 120.128 95.9859 120.128 94.6947L121.247 91.4235L120.128 87.0333C120.128 87.0333 118.062 90.907 115.307 95.8998C114.188 97.9658 111.433 105.885 109.97 117.42C109.798 118.54 109.368 118.281 111.95 118.884" fill="black"/>
<path opacity="0.08" fill-rule="evenodd" clip-rule="evenodd" d="M195.536 138.683C195.536 138.683 191.404 144.364 184.948 146.775C178.406 149.271 116.685 166.66 114.705 167.262C112.811 167.865 101.878 170.534 101.104 170.706C100.329 170.878 98.4351 173.374 98.4351 173.374C98.4351 173.374 103.686 173.805 108.421 173.116C111.175 172.686 113.672 171.394 114.963 170.706C117.804 169.242 142.854 164.766 142.854 164.766L184.087 153.92C184.087 153.92 189.166 152.198 192.093 149.271C195.536 145.828 195.536 138.683 195.536 138.683Z" fill="black"/>
<defs>
<linearGradient id="paint0_linear" x1="40.7039" y1="88.2902" x2="40.7039" y2="199.9" gradientUnits="userSpaceOnUse">
<stop stop-color="#BAB6C0"/>
<stop offset="1" stop-color="#BAB6C0" stop-opacity="0"/>
</linearGradient>
</defs>
</svg>
