<svg width="102" height="21" viewBox="0 0 102 21" fill="none" xmlns="http://www.w3.org/2000/svg">
<path d="M20.8473 10.6491C20.749 16.2517 16.1785 20.7239 10.6251 20.6748C4.87504 20.6256 0.402798 15.9076 0.550235 10.1576C0.697671 4.60419 5.36648 0.181096 10.9199 0.328533C16.4734 0.475969 20.9456 5.09564 20.8473 10.6491Z" fill="#7A7EF1"/>
<path d="M61.1495 10.6491C61.0512 16.2517 56.4807 20.7239 50.9272 20.6748C45.1772 20.6256 40.705 15.9076 40.8524 10.1576C40.9999 4.60419 45.6687 0.181096 51.2221 0.328533C56.7755 0.475969 61.2478 5.09564 61.1495 10.6491Z" fill="#7A7EF1"/>
<path d="M101.452 10.6491C101.353 16.2517 96.7829 20.7239 91.2295 20.6748C85.4795 20.6256 81.0072 15.9076 81.1547 10.1576C81.3021 4.60419 85.9709 0.181096 91.5243 0.328533C97.0778 0.475969 101.55 5.09564 101.452 10.6491Z" fill="#7A7EF1" fill-opacity="0.6"/>
</svg>
