<svg width="130" height="130" viewBox="0 0 130 130" fill="none" xmlns="http://www.w3.org/2000/svg">
<circle cx="67.1535" cy="67.7776" r="33.3014" fill="#C3C5F7"/>
<circle cx="64.9328" cy="64.9326" r="32.0107" fill="#F2F2F2"/>
<path fill-rule="evenodd" clip-rule="evenodd" d="M96.9434 64.9326C96.9434 73.4224 93.5709 81.5644 87.5677 87.5676C81.5646 93.5708 73.4225 96.9433 64.9328 96.9433C56.443 96.9433 48.301 93.5708 42.2978 87.5676C36.2947 81.5644 32.9221 73.4224 32.9221 64.9326C32.9221 56.4429 36.2947 48.3009 42.2978 42.2977C48.301 36.2945 56.443 32.922 64.9328 32.922C73.4225 32.922 81.5646 36.2945 87.5677 42.2977C93.5709 48.3009 96.9434 56.4429 96.9434 64.9326ZM81.0581 52.8086C80.7723 52.5238 80.432 52.2995 80.0575 52.1493C79.6831 51.999 79.2821 51.9258 78.8787 51.934C78.4753 51.9422 78.0777 52.0317 77.7096 52.1971C77.3416 52.3625 77.0107 52.6004 76.7367 52.8966L62.8401 70.6025L54.4653 62.2237C53.8964 61.6936 53.144 61.4051 52.3665 61.4188C51.589 61.4325 50.8472 61.7474 50.2974 62.2973C49.7476 62.8471 49.4326 63.5889 49.4189 64.3664C49.4052 65.1438 49.6938 65.8963 50.2239 66.4652L60.8114 77.0567C61.0966 77.3414 61.4363 77.5657 61.8101 77.7163C62.1839 77.8669 62.5842 77.9407 62.9871 77.9332C63.39 77.9257 63.7873 77.8372 64.1553 77.6728C64.5233 77.5085 64.8544 77.2717 65.1288 76.9767L81.1021 57.01C81.6467 56.4438 81.9475 55.6867 81.9401 54.9011C81.9326 54.1156 81.6174 53.3643 81.0621 52.8086H81.0581Z" fill="#7A7EF1"/>
<path d="M1.6729 119.084C4.9182 118.202 7.89857 116.276 10.0391 113.682C11.173 112.305 12.0684 110.805 12.7281 109.147C13.4646 107.295 13.8249 104.942 12.6062 103.202C12.0181 102.359 11.1863 101.655 10.169 101.403C9.21524 101.17 8.16879 101.324 7.36343 101.898C6.55277 102.476 5.94345 103.332 5.72091 104.309C5.49043 105.321 5.64938 106.325 6.09445 107.255C6.9581 109.062 8.87349 110.127 10.7756 110.482C12.5797 110.821 14.413 110.784 16.2224 110.511C19.8095 109.968 23.3568 108.074 25.1556 104.82C25.4921 104.214 25.3225 103.348 24.6814 103.008C24.0588 102.68 23.227 102.836 22.8693 103.483C22.7051 103.779 22.5249 104.068 22.3289 104.346C22.3156 104.362 22.1434 104.614 22.268 104.434C22.3898 104.256 22.215 104.497 22.2017 104.516C22.0852 104.656 21.9659 104.794 21.8414 104.929C21.6136 105.173 21.3725 105.406 21.1182 105.623C21.0069 105.721 20.893 105.835 20.7658 105.912C21.0334 105.745 20.848 105.846 20.7791 105.899C20.6917 105.962 20.6042 106.023 20.5168 106.084C19.9578 106.468 19.3591 106.797 18.7392 107.072C18.7206 107.08 18.4345 107.194 18.6385 107.117C18.8452 107.041 18.5564 107.149 18.5352 107.157C18.3895 107.215 18.2411 107.268 18.0954 107.321C17.7378 107.446 17.3748 107.557 17.0092 107.653C16.7019 107.732 16.392 107.801 16.082 107.862C15.9257 107.891 15.7694 107.92 15.6131 107.944C15.5204 107.96 15.425 107.981 15.3296 107.986C15.7085 107.962 15.3402 107.984 15.2555 107.992C14.5799 108.066 13.9017 108.098 13.2209 108.082C12.8314 108.074 12.442 108.05 12.0526 108.013C11.9545 108.002 11.8592 107.992 11.7611 107.981C11.5333 107.955 12.0764 108.042 11.7082 107.97C11.4777 107.925 11.2498 107.888 11.022 107.833C10.8154 107.782 10.6114 107.724 10.41 107.655C10.3173 107.623 10.2272 107.589 10.1372 107.557C10.4153 107.66 10.0656 107.523 10.0285 107.507C9.8643 107.427 9.70534 107.34 9.54904 107.245C9.47751 107.202 9.41128 107.154 9.3424 107.109C9.06423 106.916 9.44837 107.223 9.25497 107.043C9.13311 106.929 9.0086 106.823 8.89468 106.701C8.83905 106.643 8.72778 106.553 8.69864 106.479C8.79931 106.72 8.75957 106.558 8.69864 106.471C8.59532 106.323 8.51319 106.166 8.42312 106.007C8.3039 105.798 8.41782 106.026 8.43636 106.058C8.37278 105.954 8.34364 105.806 8.31185 105.689C8.29066 105.61 8.28006 105.53 8.25622 105.451C8.20323 105.263 8.26416 105.78 8.25887 105.464C8.25887 105.427 8.23767 105.019 8.26416 105.017C8.25622 105.075 8.24827 105.133 8.24032 105.191C8.25092 105.133 8.26152 105.072 8.27476 105.014C8.29596 104.926 8.3198 104.839 8.34629 104.754C8.36483 104.701 8.39928 104.638 8.40722 104.585C8.3304 104.762 8.32245 104.786 8.38603 104.656C8.41252 104.603 8.44166 104.55 8.47345 104.5C8.50259 104.45 8.53968 104.399 8.56883 104.349C8.71983 104.095 8.37013 104.545 8.57942 104.336C8.62976 104.285 8.68539 104.232 8.73308 104.177C8.74367 104.166 8.75427 104.156 8.76487 104.148C8.87349 104.055 8.85229 104.068 8.69864 104.187C8.70659 104.156 9.06158 103.952 9.07218 103.962C9.01919 103.983 8.96886 104.005 8.91587 104.028C8.97151 104.007 9.02714 103.989 9.08277 103.973C9.13841 103.957 9.19669 103.944 9.25497 103.933C9.06953 103.954 9.02714 103.959 9.13046 103.949C9.20729 103.949 9.28676 103.949 9.36359 103.944C9.6656 103.922 9.08277 103.867 9.37684 103.938C9.43777 103.952 9.49605 103.965 9.55434 103.983C9.58348 103.991 9.61262 104.002 9.64176 104.01C9.77687 104.06 9.75833 104.05 9.58348 103.978C9.69474 103.973 9.89344 104.148 9.98881 104.209C10.2511 104.375 9.79806 104.012 10.0179 104.235C10.0842 104.304 10.1584 104.365 10.2246 104.434C10.2696 104.481 10.5054 104.699 10.2643 104.46C10.3279 104.524 10.3809 104.624 10.4259 104.699C10.4604 104.754 10.4922 104.81 10.5213 104.866C10.5663 104.95 10.7385 105.149 10.5504 104.897C10.6352 105.009 10.6723 105.263 10.7014 105.393C10.712 105.44 10.7597 105.814 10.7306 105.499C10.7412 105.615 10.7518 105.729 10.7544 105.846C10.7597 106.039 10.7544 106.233 10.7385 106.426C10.7359 106.471 10.675 106.847 10.7279 106.537C10.7067 106.654 10.6882 106.77 10.6617 106.884C10.5716 107.308 10.4418 107.724 10.2935 108.129C10.2882 108.145 10.1213 108.625 10.1001 108.622C10.1186 108.577 10.1372 108.532 10.1584 108.487C10.1319 108.548 10.1054 108.606 10.0789 108.667C10.0444 108.741 10.0127 108.816 9.97556 108.89C9.81661 109.231 9.64441 109.565 9.45896 109.894C9.29736 110.18 9.12781 110.458 8.94766 110.731C8.83905 110.895 8.73043 111.057 8.61651 111.218C8.57942 111.271 8.53968 111.324 8.50259 111.377C8.46286 111.43 8.42577 111.483 8.38603 111.536C8.2986 111.653 8.30655 111.64 8.41517 111.502C8.37013 111.653 8.1423 111.841 8.04428 111.96C7.91712 112.111 7.7873 112.257 7.65484 112.403C7.38992 112.694 7.1144 112.972 6.82829 113.242C6.54217 113.513 6.24546 113.77 5.9408 114.019C5.86397 114.08 5.78979 114.143 5.71032 114.201C5.98583 113.997 5.68382 114.22 5.62554 114.26C5.45334 114.387 5.27849 114.509 5.10364 114.628C4.45193 115.065 3.76579 115.454 3.05579 115.788C2.96572 115.831 2.8783 115.87 2.78822 115.91C2.71669 115.942 2.44912 116.085 2.74319 115.931C2.57099 116.021 2.37494 116.08 2.1948 116.146C1.79477 116.292 1.38943 116.419 0.978805 116.533C0.311201 116.715 -0.165659 117.484 0.0542267 118.162C0.263515 118.845 0.954962 119.28 1.6729 119.084Z" fill="#FEA08F" fill-opacity="0.7"/>
<g clip-path="url(#clip0)">
<path d="M103.078 35.2507C104.828 35.7896 106.775 35.7793 108.52 35.2197C110.222 34.6757 111.71 33.6444 112.865 32.2856C113.966 30.9912 114.804 29.5216 115.624 28.0416C116.013 27.3403 116.397 26.6338 116.831 25.9583C117.045 25.6231 117.269 25.2931 117.506 24.9733C117.537 24.9321 117.73 24.6562 117.547 24.9166C117.604 24.8367 117.671 24.7593 117.736 24.682C117.862 24.5273 117.991 24.3777 118.125 24.2282C118.432 23.8878 118.759 23.563 119.107 23.2639C119.182 23.202 119.257 23.1401 119.332 23.0782C119.442 22.9906 119.432 22.9983 119.301 23.1014C119.352 23.0628 119.404 23.0267 119.455 22.988C119.61 22.8771 119.77 22.7714 119.932 22.6734C120.121 22.56 120.314 22.4543 120.515 22.3615C120.59 22.3254 120.819 22.1655 120.551 22.3408C120.647 22.2789 120.796 22.248 120.904 22.2119C121.113 22.1423 121.327 22.0856 121.541 22.0417C121.629 22.0237 121.732 21.9927 121.822 21.9927C121.454 21.9902 121.879 21.9953 121.959 21.9902C122.629 21.9463 123.282 21.4281 123.248 20.701C123.22 20.0409 122.681 19.3654 121.959 19.4118C118.367 19.6516 115.843 22.4981 114.146 25.4168C113.332 26.8194 112.607 28.2762 111.687 29.6144C111.573 29.7794 111.455 29.9393 111.336 30.1017C111.138 30.375 111.506 29.8954 111.295 30.1558C111.233 30.2332 111.171 30.3105 111.107 30.3879C110.851 30.6921 110.583 30.9835 110.294 31.2568C110.15 31.3935 110.003 31.525 109.848 31.6513C109.784 31.7054 109.616 31.9169 109.797 31.6977C109.763 31.739 109.681 31.7828 109.634 31.8163C109.271 32.0741 108.884 32.2985 108.482 32.4893C108.435 32.5125 108.116 32.644 108.415 32.5254C108.288 32.5769 108.159 32.6259 108.031 32.6697C107.837 32.7368 107.639 32.7987 107.44 32.8502C107.208 32.9121 106.973 32.9611 106.736 33.0024C106.672 33.0127 106.349 33.0978 106.672 33.0152C106.545 33.0488 106.393 33.0436 106.262 33.0539C105.813 33.0849 105.375 33.0617 104.926 33.0307C104.581 33.0075 105.202 33.0849 104.862 33.023C104.728 32.9998 104.591 32.9766 104.457 32.9482C104.222 32.8992 103.99 32.8348 103.761 32.7651C103.116 32.5666 102.327 32.9998 102.175 33.665C102.02 34.3637 102.389 35.0393 103.078 35.2507Z" fill="#FFBBAE"/>
</g>
<g clip-path="url(#clip1)">
<path d="M103.751 92.7072C104.395 92.6878 105.022 92.7329 105.663 92.7844C105.853 92.8005 105.576 92.7683 105.563 92.7683C105.65 92.7748 105.74 92.7941 105.824 92.807C105.975 92.8327 106.127 92.8585 106.278 92.8875C106.603 92.9518 106.922 93.0259 107.241 93.1128C107.537 93.1933 107.833 93.2867 108.123 93.3865C108.248 93.4283 108.371 93.4766 108.496 93.5217C108.59 93.5571 109.034 93.7567 108.722 93.6086C109.301 93.8823 109.868 94.1592 110.415 94.5004C110.676 94.6614 110.933 94.8353 111.181 95.0156C111.275 95.0832 111.564 95.3214 111.329 95.1218C111.465 95.2345 111.603 95.3439 111.735 95.4598C112.205 95.8655 112.646 96.3098 113.055 96.7798C113.155 96.8925 113.248 97.0084 113.345 97.1243C113.364 97.1469 113.499 97.3175 113.377 97.163C113.248 96.9988 113.416 97.2145 113.445 97.2563C113.635 97.5139 113.818 97.7811 113.989 98.0516C114.311 98.5602 114.597 99.0882 114.848 99.6323C114.884 99.7096 114.916 99.7901 114.955 99.8674C114.897 99.7482 114.877 99.671 114.942 99.8384C115.013 100.019 115.083 100.199 115.148 100.379C115.264 100.701 115.367 101.03 115.454 101.361C115.544 101.693 115.621 102.028 115.682 102.362C115.714 102.53 115.74 102.701 115.769 102.871C115.801 103.061 115.76 102.768 115.756 102.762C115.795 102.845 115.788 103.055 115.798 103.145C115.879 103.982 116.481 104.796 117.408 104.755C118.21 104.719 119.105 104.043 119.018 103.145C118.725 100.138 117.611 97.369 115.74 94.9995C113.94 92.7233 111.423 91.0684 108.667 90.1831C107.093 89.6744 105.406 89.4426 103.751 89.4877C102.91 89.5102 102.102 90.212 102.141 91.0974C102.18 91.9474 102.849 92.7297 103.751 92.7072Z" fill="#C2DDF7"/>
</g>
<circle cx="42.6305" cy="19.8377" r="3.7987" fill="#CCD7EE"/>
<circle cx="20.259" cy="10.9739" r="5.06494" fill="#1E22A5" fill-opacity="0.3"/>
<circle cx="124.513" cy="67.1105" r="5.48701" fill="#6F72C5"/>
<circle cx="39.2531" cy="124.513" r="5.48701" fill="#B67AF1"/>
<circle cx="7.175" cy="67.9545" r="5.48701" fill="#FFBBAE" fill-opacity="0.71"/>
<circle cx="84.8371" cy="5.48701" r="5.48701" fill="#7A7EF1" fill-opacity="0.6"/>
<circle cx="68.7987" cy="115.227" r="3.7987" fill="#799FFC"/>
<defs>
<clipPath id="clip0">
<rect width="21.1039" height="16.2334" fill="white" transform="translate(102.142 19.4155)"/>
</clipPath>
<clipPath id="clip1">
<rect width="16.8831" height="15.2798" fill="white" transform="translate(102.142 89.4805)"/>
</clipPath>
</defs>
</svg>
