<svg width="102" height="22" viewBox="0 0 102 22" fill="none" xmlns="http://www.w3.org/2000/svg">
<path d="M20.3996 11.2878C20.3013 16.8903 15.7308 21.3626 10.1774 21.3134C4.42734 21.2643 -0.0448947 16.5463 0.102542 10.7963C0.249978 5.24286 4.91879 0.819768 10.4722 0.967205C16.0257 1.11464 20.4979 5.73432 20.3996 11.2878Z" fill="#7A7EF1"/>
<path d="M60.7018 11.2878C60.6035 16.8903 56.033 21.3626 50.4795 21.3134C44.7295 21.2643 40.2573 16.5463 40.4047 10.7963C40.5522 5.24286 45.221 0.819768 50.7744 0.967205C56.3278 1.11464 60.8001 5.73432 60.7018 11.2878Z" fill="#7A7EF1" fill-opacity="0.8"/>
<path d="M101.004 11.2878C100.906 16.8903 96.3352 21.3626 90.7818 21.3134C85.0318 21.2643 80.5595 16.5463 80.707 10.7963C80.8544 5.24286 85.5232 0.819768 91.0767 0.967205C96.6301 1.11464 101.102 5.73432 101.004 11.2878Z" fill="#7A7EF1" fill-opacity="0.6"/>
</svg>
