<svg width="30" height="35" viewBox="0 0 30 35" fill="none" xmlns="http://www.w3.org/2000/svg">
<path fill-rule="evenodd" clip-rule="evenodd" d="M15 34.2834C15.5682 34.2834 16.1132 34.0576 16.515 33.6558C16.9167 33.2541 17.1425 32.7091 17.1425 32.1409V7.31822L26.338 16.518C26.5372 16.7172 26.7736 16.8752 27.0339 16.983C27.2942 17.0908 27.5731 17.1463 27.8548 17.1463C28.1365 17.1463 28.4155 17.0908 28.6757 16.983C28.936 16.8752 29.1725 16.7172 29.3717 16.518C29.5709 16.3188 29.7289 16.0823 29.8367 15.822C29.9445 15.5618 30 15.2828 30 15.0011C30 14.7194 29.9445 14.4405 29.8367 14.1802C29.7289 13.9199 29.5709 13.6835 29.3717 13.4843L16.5169 0.629431C16.3179 0.42991 16.0814 0.271612 15.8211 0.163604C15.5608 0.0555955 15.2818 0 15 0C14.7182 0 14.4392 0.0555955 14.1789 0.163604C13.9186 0.271612 13.6821 0.42991 13.4831 0.629431L0.628308 13.4843C0.22601 13.8866 0 14.4322 0 15.0011C0 15.5701 0.22601 16.1157 0.628308 16.518C1.03061 16.9203 1.57624 17.1463 2.14518 17.1463C2.71411 17.1463 3.25975 16.9203 3.66205 16.518L12.8575 7.31822V32.1409C12.8575 32.7091 13.0833 33.2541 13.485 33.6558C13.8868 34.0576 14.4318 34.2834 15 34.2834Z" fill="white"/>
</svg>
