<svg width="81" height="68" viewBox="0 0 81 68" fill="none" xmlns="http://www.w3.org/2000/svg">
<path d="M71.2357 31.8921C71.06 31.1895 70.2695 30.7503 69.5669 31.0138C68.8642 31.1895 68.425 31.9799 68.6885 32.6826C68.7764 33.1218 71.4992 42.959 62.8916 52.972C62.4524 53.499 62.4524 54.3773 62.9794 54.8165C63.2429 54.9921 63.5064 55.1678 63.8577 55.1678C64.2091 55.1678 64.5604 54.9921 64.8239 54.7286C74.4855 43.486 71.3235 32.3313 71.2357 31.8921Z" fill="#FEA08F" stroke="#FEA08F" stroke-width="2"/>
<path d="M78.2626 30.3989C78.087 29.6962 77.2965 29.3449 76.5938 29.5205C75.8912 29.6962 75.452 30.4867 75.7155 31.1894C75.7155 31.365 79.7558 45.4183 67.6349 59.2959C67.1957 59.8228 67.1957 60.7012 67.7227 61.1403C67.9862 61.316 68.2497 61.4917 68.601 61.4917C68.9524 61.4917 69.3037 61.316 69.5672 61.0525C82.6543 46.0331 78.4383 31.0137 78.2626 30.3989Z" fill="#FEA08F" stroke="#FEA08F" stroke-width="2"/>
<path d="M20.3808 11.8662C20.9956 11.427 21.0834 10.6365 20.6443 10.0217C20.2051 9.40685 19.4146 9.31902 18.7998 9.75818C18.3606 10.0217 8.61117 17.224 8.9625 32.5069C8.9625 33.2095 9.57733 33.8244 10.28 33.8244C10.9827 33.8244 11.5975 33.2095 11.5975 32.5069C11.334 18.6293 20.0294 12.1297 20.3808 11.8662Z" fill="#FEA08F" stroke="#FEA08F" stroke-width="2"/>
<path d="M15.8133 6.15703C16.4281 5.71787 16.5159 4.92737 16.0768 4.31254C15.6376 3.69771 14.8471 3.60988 14.2323 4.04904C13.7053 4.40038 0.618214 14.062 1.05738 34.7027C1.05738 35.4053 1.67221 36.0202 2.37487 36.0202C3.07753 36.0202 3.69236 35.4053 3.69236 34.7027C3.2532 15.4673 15.6376 6.24486 15.8133 6.15703Z" fill="#FEA08F" stroke="#FEA08F" stroke-width="2"/>
<path d="M64.8237 24.7776C65.175 23.2844 64.9115 21.7913 64.0332 20.4738C63.2427 19.1563 61.9252 18.278 60.4321 17.9266C59.2024 17.6631 57.8849 17.751 56.7431 18.3658L57.5336 14.7647C58.2363 11.6905 56.3039 8.61636 53.2298 7.91369C51.9123 7.6502 50.6826 7.82586 49.5408 8.35286L49.6286 8.00153C49.98 6.50837 49.7165 5.01521 48.8381 3.69772C48.0476 2.38023 46.7302 1.5019 45.237 1.15057C43.7438 0.799239 42.2507 1.06274 40.9332 1.94107C39.6157 2.73156 38.7374 4.04905 38.386 5.54221L38.0347 7.29887C37.2442 6.33271 36.1902 5.63004 34.8727 5.36654C31.7986 4.66388 28.7244 6.5962 28.0218 9.75818L26.0895 18.4536C23.1031 17.8388 20.1168 19.859 19.4142 22.8453L15.7252 39.4457C13.0902 51.4788 20.6438 63.424 32.6769 66.1468H32.7647C38.5617 67.4643 44.6222 66.4103 49.6286 63.1605C54.6351 59.9107 58.1484 54.9921 59.4659 49.1073L64.8237 24.7776ZM57.2701 48.5803C54.8986 59.4715 44.0952 66.3225 33.2039 63.951H33.1161C22.3126 61.4917 15.4617 50.7761 17.8332 39.8848L21.5221 23.2844C21.9613 21.3521 23.8058 20.2103 25.7381 20.6494C26.0016 20.7373 26.1773 20.7373 26.353 20.8251C26.9678 21.0886 27.4948 21.5278 27.8461 22.1426C28.3731 22.9331 28.5488 23.8993 28.2853 24.7776L26.0016 35.7567C26.0016 35.7567 26.0016 35.7567 26.0016 35.8445C26.0016 35.8445 26.0016 35.8445 26.0016 35.9324V36.0202C26.0016 36.108 26.0016 36.1959 26.0016 36.1959V36.2837V36.3715V36.4593C26.0016 36.4593 26.0016 36.5472 26.0895 36.5472C26.0895 36.5472 26.0895 36.635 26.1773 36.635L26.2651 36.7228L26.353 36.8107C26.353 36.8107 26.3529 36.8107 26.4408 36.8985C30.6568 39.8848 32.6769 45.1548 31.6229 50.0734C31.5351 50.6883 31.8864 51.3031 32.5012 51.3909C33.1161 51.4788 33.7309 51.1274 33.8187 50.5126C35.0484 44.9791 32.8526 39.0065 28.3731 35.4932L30.6568 25.1289C31.0081 23.6358 30.7446 22.1426 29.8663 20.8251C29.4271 20.1225 28.8123 19.5076 28.1974 19.0685L30.2176 10.0217C30.6568 8.08936 32.5012 6.94753 34.4336 7.3867C36.2781 7.82586 37.5077 9.67035 37.0686 11.6027L33.3796 28.2031C33.2039 28.8179 33.6431 29.4327 34.2579 29.5206C34.8727 29.6084 35.4876 29.2571 35.5754 28.6422L40.6697 5.89354C40.8454 5.01521 41.4602 4.22472 42.2507 3.69772C43.0412 3.17072 44.0073 2.99506 44.8857 3.25856C45.764 3.43422 46.5545 4.04905 47.0815 4.83955C47.6085 5.63004 47.7841 6.5962 47.5207 7.47453L41.9872 31.9799C41.8115 32.5947 42.2507 33.2095 42.8655 33.2974C43.4803 33.3852 44.0952 33.0339 44.183 32.419L48.6625 12.6567C49.1016 10.7243 50.9461 9.58252 52.8785 10.0217C54.8108 10.4608 55.9526 12.3053 55.5134 14.2377L53.7568 22.2304L50.0678 38.8308C49.8921 39.4457 50.3313 39.9727 50.9461 40.1483C51.561 40.2362 52.1758 39.8848 52.2636 39.27L55.7769 22.8453C55.9526 21.9669 56.5674 21.1764 57.3579 20.6494C58.1484 20.1225 59.1146 19.9468 59.9929 20.2103C60.8712 20.386 61.6617 21.0008 62.1887 21.7913C62.7157 22.5818 62.8914 23.5479 62.6279 24.4263L57.2701 48.5803Z" fill="#FEA08F" stroke="#FEA08F" stroke-width="2"/>
</svg>
