<svg width="200" height="215" viewBox="0 0 200 215" fill="none" xmlns="http://www.w3.org/2000/svg">
<path d="M47.4728 80.3558L15.7705 103.865H174.031L142.154 80.3558H47.4728Z" fill="#E4EBF7"/>
<path d="M142.154 103.844L174.031 103.865L142.154 80.3558V103.844Z" fill="#A3B5D6"/>
<path d="M42.8506 38.5711L69.8713 193.237C70.4892 196.777 73.8659 199.15 77.4061 198.529L89.4371 196.428C92.9773 195.807 95.3508 192.433 94.7293 188.893L67.7122 34.2276L42.8506 38.5711Z" fill="#E9ABB0"/>
<path d="M46.4955 12.3322L42.8535 38.586L67.7115 34.2424L56.0767 10.6602L46.4955 12.3322Z" fill="#FFE7BA"/>
<path d="M49.3497 0.820536C49.1316 0.856883 48.9572 1.03135 48.9172 1.24944L46.8018 12.2954L55.8886 10.707L49.9131 1.0677C49.8113 0.907769 49.6369 0.809631 49.4515 0.809631C49.4151 0.809631 49.3824 0.813266 49.3497 0.820536Z" fill="#F19198"/>
<path d="M50.3525 37.35L78.4782 198.344L88.6264 196.57L60.5044 35.5726L50.3525 37.35Z" fill="#F19198"/>
<path d="M140.887 62.7877L110.169 177.185C109.466 179.803 111.605 182.959 114.943 184.224L126.285 188.532C129.624 189.798 132.904 188.704 133.605 186.084L164.325 71.6886L140.887 62.7877Z" fill="#83A8FF"/>
<path d="M153.349 47.2715L140.884 62.7992L164.32 71.6984L162.381 50.7029L153.349 47.2715Z" fill="#FFE7BA"/>
<path d="M159.922 41.0567C159.717 40.9775 159.502 41.0096 159.39 41.134L153.631 47.3915L162.198 50.6442L160.331 41.4855C160.298 41.3323 160.179 41.1853 160.016 41.0977C159.983 41.0805 159.953 41.0674 159.922 41.0567Z" fill="#83A8FF"/>
<path d="M147.927 65.5323L115.953 184.61L125.52 188.242L157.499 69.1644L147.927 65.5323Z" fill="#A4BFFF"/>
<path d="M84.9479 186.156L84.519 198.474C84.3845 202.283 87.365 205.478 91.1742 205.609C94.9835 205.744 98.1784 202.763 98.3129 198.957L98.7381 186.636L84.9516 186.156H84.9479Z" fill="#253368"/>
<path d="M97.5752 1.80177L96.8155 6.15983C96.6483 7.11213 97.2917 8.02445 98.244 8.18802C99.1999 8.35522 100.109 7.7155 100.276 6.75956L101.035 2.4015C101.203 1.44557 100.563 0.53688 99.607 0.369681C99.5052 0.355143 99.4034 0.344238 99.3017 0.344238C98.4657 0.344238 97.7242 0.943971 97.5752 1.80177Z" fill="#597EF7"/>
<path d="M59.1193 174.827C58.4977 178.37 60.8749 181.743 64.4187 182.361L71.5537 183.604C75.0976 184.219 78.4706 181.849 79.0849 178.305L105.168 28.5535L85.1986 25.0751L59.1193 174.827Z" fill="#597EF7"/>
<path d="M95.8044 6.1235L85.1982 25.0751L105.178 28.5571L101.282 7.06126C101.198 6.61055 100.842 6.25435 100.388 6.18165L96.9421 5.58192C96.8803 5.57102 96.8185 5.56738 96.7567 5.56738C96.3678 5.56738 96.0007 5.77456 95.8044 6.1235Z" fill="#E4EBF7"/>
<path d="M134.464 25.6916L132.968 29.8548C132.64 30.7644 133.118 31.7735 134.028 32.0979C134.941 32.4266 135.946 31.9522 136.274 31.0391L137.77 26.8758C138.099 25.9627 137.624 24.9578 136.711 24.6291C136.614 24.5974 136.515 24.5692 136.415 24.5517C135.591 24.4084 134.758 24.8721 134.464 25.6916Z" fill="#B280CE"/>
<path d="M66.9066 189.559C65.6866 192.944 67.4501 196.674 70.8355 197.891L77.6516 200.339C81.0377 201.552 84.7671 199.796 85.98 196.41L137.357 53.3491L118.28 46.4978L66.9066 189.559Z" fill="#B180CF"/>
<path d="M131.978 29.6457L118.279 46.4978L137.366 53.3545L137.213 31.5089C137.208 31.0505 136.918 30.6385 136.483 30.489L133.191 29.3073C133.132 29.2859 133.072 29.2717 133.011 29.2611C132.628 29.1945 132.231 29.3356 131.978 29.6457Z" fill="#E4EBF7"/>
<path d="M12.551 22.0985L5.68133 26.8746C4.89622 27.4198 4.60544 28.4448 4.98709 29.3208L9.15251 38.8583C9.59231 39.8761 10.7772 40.3377 11.795 39.8942L19.3153 36.6121C20.333 36.165 20.7982 34.9837 20.3548 33.966L15.5424 22.9382C15.3025 22.3893 14.8263 21.975 14.2448 21.8114C14.0703 21.7642 13.8849 21.7387 13.7068 21.7387C13.2961 21.7387 12.8963 21.8587 12.551 22.0985Z" fill="#D27C7B"/>
<path d="M11.3906 65.9152L63.4692 185.229L91.6422 172.933L39.5635 53.6189L11.3906 65.9152Z" fill="#CE7170"/>
<path d="M11.3906 65.9152L15.9522 76.3579L44.1251 64.0652L39.5635 53.6189L11.3906 65.9152Z" fill="#BF6A69"/>
<path d="M7.89062 37.1534L8.5885 59.4852L11.3909 65.9151L39.5638 53.6187L36.7796 47.2398L19.9871 31.8721L7.89062 37.1534Z" fill="#E4EBF7"/>
<path d="M8.58105 59.5976L11.3871 66.0238L39.5563 53.7239L36.7503 47.3013L8.58105 59.5976Z" fill="#F5F5F5"/>
<path d="M45.9388 87.7744L30.9927 88.8067C30.622 88.8321 30.2839 89.0393 30.0913 89.3592C29.895 89.6754 29.8696 90.0716 30.0186 90.4169L30.1167 90.6386C30.313 91.0857 30.7674 91.3619 31.2544 91.3256L36.2885 90.9548C36.7756 90.9185 37.2336 91.1983 37.4298 91.6454L38.7093 94.5787C40.2904 98.2025 42.8929 99.849 46.4149 99.5256C49.937 99.2057 50.9184 97.2684 49.3882 93.7608L47.0728 88.465C46.8875 88.0434 46.4695 87.7744 46.0115 87.7744C45.9897 87.7744 45.9642 87.7744 45.9388 87.7744ZM42.7802 96.5451C42.1259 96.0871 41.5407 95.3202 41.0719 94.2443L40.1813 92.2052C40.0323 91.8635 40.0578 91.471 40.2504 91.1511C40.4431 90.8312 40.7811 90.6241 41.1518 90.5986L44.5539 90.3478C45.041 90.3151 45.4953 90.5877 45.6916 91.0348L46.8838 93.7717C47.3418 94.8149 47.4436 95.6218 47.2218 96.1489C46.9965 96.6759 46.3931 97.0067 45.35 97.0975C45.1791 97.1121 45.0047 97.1194 44.8411 97.1194C44.0233 97.1194 43.3218 96.9303 42.7802 96.5451Z" fill="white"/>
<path d="M51.751 101.154L36.9722 102.568C36.6087 102.604 36.2779 102.812 36.0925 103.128C35.9035 103.444 35.8817 103.833 36.0235 104.167L39.9417 113.141C40.1453 113.603 40.6251 113.879 41.1267 113.821C41.4865 113.781 41.81 113.567 41.9917 113.254C42.1735 112.938 42.1953 112.556 42.0463 112.222L39.5019 106.384C39.3602 106.046 39.382 105.661 39.5674 105.345C39.7527 105.032 40.0799 104.822 40.4433 104.789L43.2421 104.534C43.7364 104.487 44.2017 104.76 44.4016 105.214L47.1167 111.429C47.3203 111.891 47.8037 112.171 48.3053 112.116C48.6651 112.073 48.985 111.858 49.1704 111.542C49.3485 111.23 49.3703 110.844 49.2249 110.51L47.1022 105.647C46.9568 105.309 46.9822 104.923 47.1676 104.611C47.353 104.298 47.6801 104.087 48.0436 104.051L50.3989 103.815C50.8932 103.767 51.3621 104.036 51.562 104.491L54.4444 111.088C54.6479 111.553 55.1277 111.826 55.6293 111.768C55.9928 111.724 56.3163 111.513 56.4944 111.193C56.6761 110.87 56.6943 110.484 56.538 110.15L52.9069 101.834C52.7215 101.412 52.3108 101.147 51.8601 101.147C51.8237 101.147 51.7874 101.15 51.751 101.154Z" fill="white"/>
<path d="M16.1885 132.562V208.295C16.1885 211.563 18.8382 214.213 22.1058 214.213H168.037C171.305 214.213 173.955 211.563 173.955 208.295V132.562H16.1885Z" fill="#87A9FC"/>
<path d="M16.1885 115.289V159.415L173.955 146.832V115.289H16.1885Z" fill="#7F9EEA"/>
<path d="M15.7815 103.865L0.388326 137.73C-0.196868 138.955 -0.116904 140.391 0.602775 141.539C1.32609 142.684 2.58735 143.382 3.93947 143.386H185.622C187.007 143.386 188.294 142.659 189.006 141.47C189.719 140.282 189.759 138.806 189.112 137.589L174.031 103.865H15.7815Z" fill="#E4EBF7"/>
</svg>
