<svg width="100" height="101" viewBox="0 0 100 101" fill="none" xmlns="http://www.w3.org/2000/svg">
<rect y="0.277466" width="100" height="100" rx="50" fill="url(#paint0_linear)"/>
<g clip-path="url(#clip0)">
<path d="M38.4277 38.9982C39.3994 38.9982 40.1855 38.212 40.1855 37.2404V27.0353C40.1855 26.0636 39.3994 25.2775 38.4277 25.2775C37.4561 25.2775 36.6699 26.0636 36.6699 27.0353V37.2404C36.6699 38.212 37.4561 38.9982 38.4277 38.9982ZM68.3594 46.0294H62.5C62.5 44.0861 60.9277 42.5138 58.9844 42.5138H34.7656C32.8223 42.5138 31.25 44.0861 31.25 46.0294V58.1388C31.25 58.3048 31.2598 58.4659 31.2842 58.6222C31.2598 58.964 31.25 59.3058 31.25 59.6525C31.25 68.2804 38.2471 75.2775 46.875 75.2775C54.6924 75.2775 61.167 69.5402 62.3193 62.045H68.3594C70.3027 62.045 71.875 60.4728 71.875 58.5294V49.545C71.875 47.6017 70.3027 46.0294 68.3594 46.0294ZM58.9844 58.5294H58.9307C58.9648 58.9005 58.9844 59.2716 58.9844 59.6525C58.9844 66.3419 53.5645 71.7618 46.875 71.7618C40.1855 71.7618 34.7656 66.3419 34.7656 59.6525C34.7656 59.2716 34.7852 58.9005 34.8193 58.5294H34.7656V46.0294H58.9844V58.5294ZM68.3594 58.1388H62.8906V49.545H68.3594V58.1388ZM54.9316 38.9982C55.9033 38.9982 56.6895 38.212 56.6895 37.2404V27.0353C56.6895 26.0636 55.9033 25.2775 54.9316 25.2775C53.96 25.2775 53.1738 26.0636 53.1738 27.0353V37.2404C53.1738 38.212 53.96 38.9982 54.9316 38.9982ZM46.6309 38.9982C47.6025 38.9982 48.3887 38.212 48.3887 37.2404V27.0353C48.3887 26.0636 47.6025 25.2775 46.6309 25.2775C45.6592 25.2775 44.873 26.0636 44.873 27.0353V37.2404C44.873 38.212 45.6592 38.9982 46.6309 38.9982Z" fill="white"/>
</g>
<defs>
<linearGradient id="paint0_linear" x1="1.13845e-06" y1="10.2775" x2="88" y2="100.277" gradientUnits="userSpaceOnUse">
<stop offset="0.27695" stop-color="#A5BFFF"/>
<stop offset="1" stop-color="#A7F4FF"/>
</linearGradient>
<clipPath id="clip0">
<rect width="50" height="50" fill="white" transform="translate(25 25.2775)"/>
</clipPath>
</defs>
</svg>
