<svg width="100" height="101" viewBox="0 0 100 101" fill="none" xmlns="http://www.w3.org/2000/svg">
<rect y="0.277466" width="100" height="100" rx="50" fill="url(#paint0_linear)"/>
<g clip-path="url(#clip0)">
<path fill-rule="evenodd" clip-rule="evenodd" d="M68.75 28.4025H31.25C30.4212 28.4025 29.6263 28.7317 29.0403 29.3178C28.4542 29.9038 28.125 30.6987 28.125 31.5275V69.0275C28.125 69.8563 28.4542 70.6511 29.0403 71.2372C29.6263 71.8232 30.4212 72.1525 31.25 72.1525H68.75C69.5788 72.1525 70.3737 71.8232 70.9597 71.2372C71.5458 70.6511 71.875 69.8563 71.875 69.0275V31.5275C71.875 30.6987 71.5458 29.9038 70.9597 29.3178C70.3737 28.7317 69.5788 28.4025 68.75 28.4025ZM31.25 25.2775C29.5924 25.2775 28.0027 25.9359 26.8306 27.108C25.6585 28.2802 25 29.8699 25 31.5275V69.0275C25 70.6851 25.6585 72.2748 26.8306 73.4469C28.0027 74.619 29.5924 75.2775 31.25 75.2775H68.75C70.4076 75.2775 71.9973 74.619 73.1694 73.4469C74.3415 72.2748 75 70.6851 75 69.0275V31.5275C75 29.8699 74.3415 28.2802 73.1694 27.108C71.9973 25.9359 70.4076 25.2775 68.75 25.2775H31.25Z" fill="white"/>
<path fill-rule="evenodd" clip-rule="evenodd" d="M46.4185 39.796C46.564 39.9411 46.6795 40.1135 46.7582 40.3034C46.837 40.4932 46.8775 40.6967 46.8775 40.9022C46.8775 41.1077 46.837 41.3112 46.7582 41.5011C46.6795 41.6909 46.564 41.8633 46.4185 42.0085L38.1466 50.2772L46.4185 58.546C46.7119 58.8393 46.8767 59.2373 46.8767 59.6522C46.8767 60.0671 46.7119 60.4651 46.4185 60.7585C46.1251 61.0518 45.7272 61.2167 45.3122 61.2167C44.8973 61.2167 44.4994 61.0518 44.206 60.7585L34.831 51.3835C34.6855 51.2383 34.57 51.0659 34.4913 50.8761C34.4125 50.6862 34.372 50.4827 34.372 50.2772C34.372 50.0717 34.4125 49.8682 34.4913 49.6783C34.57 49.4885 34.6855 49.3161 34.831 49.171L44.206 39.796C44.3511 39.6504 44.5236 39.535 44.7134 39.4562C44.9032 39.3775 45.1067 39.3369 45.3122 39.3369C45.5178 39.3369 45.7213 39.3775 45.9111 39.4562C46.1009 39.535 46.2734 39.6504 46.4185 39.796ZM53.581 39.796C53.4355 39.9411 53.32 40.1135 53.2413 40.3034C53.1625 40.4932 53.122 40.6967 53.122 40.9022C53.122 41.1077 53.1625 41.3112 53.2413 41.5011C53.32 41.6909 53.4355 41.8633 53.581 42.0085L61.8529 50.2772L53.581 58.546C53.2876 58.8393 53.1228 59.2373 53.1228 59.6522C53.1228 60.0671 53.2876 60.4651 53.581 60.7585C53.8744 61.0518 54.2723 61.2167 54.6872 61.2167C55.1022 61.2167 55.5001 61.0518 55.7935 60.7585L65.1685 51.3835C65.314 51.2383 65.4295 51.0659 65.5082 50.8761C65.587 50.6862 65.6275 50.4827 65.6275 50.2772C65.6275 50.0717 65.587 49.8682 65.5082 49.6783C65.4295 49.4885 65.314 49.3161 65.1685 49.171L55.7935 39.796C55.6484 39.6504 55.4759 39.535 55.2861 39.4562C55.0963 39.3775 54.8928 39.3369 54.6872 39.3369C54.4817 39.3369 54.2782 39.3775 54.0884 39.4562C53.8986 39.535 53.7261 39.6504 53.581 39.796Z" fill="white"/>
</g>
<defs>
<linearGradient id="paint0_linear" x1="18" y1="0.277464" x2="100" y2="100.277" gradientUnits="userSpaceOnUse">
<stop stop-color="#FF9C8A"/>
<stop offset="1" stop-color="#FFEDAD"/>
</linearGradient>
<clipPath id="clip0">
<rect width="50" height="50" fill="white" transform="translate(25 25.2775)"/>
</clipPath>
</defs>
</svg>
