<svg width="46" height="45" viewBox="0 0 46 45" fill="none" xmlns="http://www.w3.org/2000/svg">
<path d="M23.0467 25.7143C23.4729 25.7143 23.8817 25.545 24.1831 25.2436C24.4845 24.9422 24.6538 24.5334 24.6538 24.1071C24.6538 23.6809 24.4845 23.2721 24.1831 22.9707C23.8817 22.6693 23.4729 22.5 23.0467 22.5C21.1395 22.5 19.2752 21.9345 17.6894 20.8749C16.1036 19.8153 14.8677 18.3093 14.1379 16.5473C13.408 14.7853 13.217 12.8465 13.5891 10.9759C13.9612 9.10539 14.8796 7.3872 16.2282 6.03862C17.5767 4.69004 19.2949 3.77165 21.1655 3.39958C23.036 3.0275 24.9749 3.21847 26.7369 3.94831C28.4989 4.67816 30.0049 5.91411 31.0644 7.49987C32.124 9.08562 32.6895 10.95 32.6895 12.8571V16.0714C32.6895 16.4977 32.5202 16.9065 32.2188 17.2079C31.9174 17.5093 31.5086 17.6786 31.0824 17.6786C30.6562 17.6786 30.2474 17.5093 29.946 17.2079C29.6446 16.9065 29.4753 16.4977 29.4753 16.0714V12.8571C29.4753 11.5857 29.0982 10.3428 28.3919 9.28563C27.6855 8.22845 26.6815 7.40449 25.5068 6.91792C24.3321 6.43136 23.0396 6.30405 21.7925 6.5521C20.5455 6.80015 19.4001 7.41241 18.501 8.31146C17.602 9.21051 16.9897 10.356 16.7416 11.603C16.4936 12.85 16.6209 14.1426 17.1075 15.3173C17.594 16.4919 18.418 17.4959 19.4752 18.2023C20.5323 18.9087 21.7752 19.2857 23.0467 19.2857C24.3647 19.2812 25.6495 18.8716 26.727 18.1125C27.1955 19.0992 27.9851 19.8975 28.9665 20.3769C29.948 20.8562 31.0631 20.9881 32.1293 20.751C33.1954 20.5139 34.1495 19.9217 34.8353 19.0716C35.521 18.2214 35.8977 17.1637 35.9038 16.0714V12.8571C35.9038 10.3142 35.1498 7.82845 33.737 5.7141C32.3243 3.59976 30.3162 1.95182 27.9669 0.978697C25.6176 0.00557077 23.0324 -0.249043 20.5384 0.247052C18.0443 0.743148 15.7534 1.96767 13.9553 3.76578C12.1572 5.56388 10.9327 7.8548 10.4366 10.3488C9.9405 12.8429 10.1951 15.428 11.1682 17.7774C12.1414 20.1267 13.7893 22.1347 15.9036 23.5475C18.018 24.9602 20.5038 25.7143 23.0467 25.7143ZM23.0467 16.0714C22.411 16.0714 21.7895 15.8829 21.2609 15.5297C20.7323 15.1765 20.3204 14.6745 20.0771 14.0872C19.8338 13.4999 19.7701 12.8536 19.8942 12.2301C20.0182 11.6066 20.3243 11.0338 20.7738 10.5843C21.2234 10.1348 21.7961 9.82865 22.4196 9.70463C23.0431 9.5806 23.6894 9.64425 24.2767 9.88754C24.8641 10.1308 25.3661 10.5428 25.7193 11.0714C26.0725 11.6 26.261 12.2214 26.261 12.8571C26.261 13.7096 25.9223 14.5272 25.3195 15.13C24.7167 15.7328 23.8992 16.0714 23.0467 16.0714ZM44.9199 18.0161L40.0985 14.3036C39.7599 14.074 39.3465 13.9822 38.9425 14.0468C38.5386 14.1115 38.1745 14.3277 37.9245 14.6515C37.6745 14.9753 37.5573 15.3823 37.597 15.7895C37.6366 16.1966 37.83 16.5734 38.1378 16.8429L41.352 19.2857L24.8754 31.9289C23.797 32.7564 22.2971 32.7554 21.2198 31.9266L4.78955 19.2857L8.00383 16.8429C8.34056 16.5765 8.55768 16.1872 8.60741 15.7607C8.65714 15.3343 8.53541 14.9055 8.26901 14.5688C8.00261 14.232 7.61336 14.0149 7.18688 13.9652C6.7604 13.9155 6.33164 14.0372 5.99491 14.3036L1.17348 18.0161C0.97899 18.1658 0.821377 18.3581 0.712728 18.5782C0.604079 18.7982 0.547282 19.0403 0.546692 19.2857V40.1786C0.546692 41.4573 1.05466 42.6837 1.95886 43.5878C2.86305 44.492 4.0894 45 5.36812 45H40.7253C42.004 45 43.2303 44.492 44.1345 43.5878C45.0387 42.6837 45.5467 41.4573 45.5467 40.1786V19.2857C45.5461 19.0403 45.4893 18.7982 45.3807 18.5782C45.272 18.3581 45.1144 18.1658 44.9199 18.0161ZM40.7253 41.7857H5.36812C4.94188 41.7857 4.5331 41.6164 4.2317 41.315C3.9303 41.0136 3.76098 40.6048 3.76098 40.1786V22.5L22.0663 36.5786C22.3474 36.7949 22.692 36.9122 23.0467 36.9122C23.4013 36.9122 23.746 36.7949 24.0271 36.5786L42.3324 22.5V40.1786C42.3324 40.6048 42.1631 41.0136 41.8617 41.315C41.5603 41.6164 41.1515 41.7857 40.7253 41.7857Z" fill="#7A7EF1"/>
</svg>
