<svg width="100" height="100" viewBox="0 0 100 100" fill="none" xmlns="http://www.w3.org/2000/svg">
<rect width="100" height="100" rx="50" fill="url(#paint0_linear)"/>
<path d="M64.5716 50C64.5716 46.1354 63.0364 42.4291 60.3038 39.6965C57.5711 36.9638 53.8648 35.4286 50.0002 35.4286C46.1356 35.4286 42.4293 36.9638 39.6967 39.6965C36.964 42.4291 35.4288 46.1354 35.4288 50C35.4154 52.5536 36.0835 55.0645 37.3642 57.2738C38.6449 59.483 40.4919 61.3105 42.7145 62.5679V65.4822C42.2314 65.4822 41.7681 65.6741 41.4266 66.0156C41.085 66.3572 40.8931 66.8205 40.8931 67.3036C40.8931 67.7867 41.085 68.25 41.4266 68.5915C41.7681 68.9331 42.2314 69.125 42.7145 69.125C42.7145 71.0573 43.4821 72.9105 44.8484 74.2768C46.2148 75.6431 48.0679 76.4107 50.0002 76.4107C51.9325 76.4107 53.7857 75.6431 55.152 74.2768C56.5183 72.9105 57.2859 71.0573 57.2859 69.125C57.769 69.125 58.2323 68.9331 58.5739 68.5915C58.9155 68.25 59.1074 67.7867 59.1074 67.3036C59.1074 66.8205 58.9155 66.3572 58.5739 66.0156C58.2323 65.6741 57.769 65.4822 57.2859 65.4822V62.5679C59.5086 61.3105 61.3555 59.483 62.6362 57.2738C63.9169 55.0645 64.585 52.5536 64.5716 50V50ZM39.0716 50C39.0716 47.1016 40.223 44.3219 42.2725 42.2724C44.3221 40.2228 47.1018 39.0714 50.0002 39.0714C52.8987 39.0714 55.6784 40.2228 57.7279 42.2724C59.7774 44.3219 60.9288 47.1016 60.9288 50C60.9414 52.0709 60.3595 54.1019 59.2521 55.8518C58.1446 57.6018 56.5582 58.9971 54.6813 59.8722C54.3485 60.0373 54.0741 60.3004 53.895 60.6259C53.716 60.9515 53.6408 61.324 53.6795 61.6936C53.659 61.7397 53.6467 61.789 53.6431 61.8393V65.4822H46.3574V61.8393C46.3655 61.7911 46.3655 61.7418 46.3574 61.6936C46.3961 61.324 46.3209 60.9515 46.1418 60.6259C45.9628 60.3004 45.6884 60.0373 45.3556 59.8722C43.4718 59.0024 41.8778 57.6093 40.7637 55.859C39.6495 54.1087 39.0622 52.0749 39.0716 50V50ZM50.0002 72.7679C49.0341 72.7679 48.1075 72.3841 47.4243 71.7009C46.7412 71.0177 46.3574 70.0912 46.3574 69.125H53.6431C53.6431 70.0912 53.2593 71.0177 52.5761 71.7009C51.8929 72.3841 50.9664 72.7679 50.0002 72.7679V72.7679Z" fill="white"/>
<path d="M33.6071 49.0893C33.6071 48.6062 33.4152 48.143 33.0737 47.8014C32.7321 47.4598 32.2688 47.2679 31.7857 47.2679H26.3214C25.8384 47.2679 25.3751 47.4598 25.0335 47.8014C24.6919 48.143 24.5 48.6062 24.5 49.0893C24.5 49.5724 24.6919 50.0357 25.0335 50.3773C25.3751 50.7188 25.8384 50.9107 26.3214 50.9107H31.7857C32.2688 50.9107 32.7321 50.7188 33.0737 50.3773C33.4152 50.0357 33.6071 49.5724 33.6071 49.0893Z" fill="white"/>
<path d="M35.8282 60.6736L31.9667 64.5532C31.6275 64.8945 31.4371 65.3562 31.4371 65.8374C31.4371 66.3186 31.6275 66.7802 31.9667 67.1215C32.1369 67.2903 32.3388 67.4238 32.5607 67.5145C32.7826 67.6051 33.0202 67.6511 33.2599 67.6497C33.7378 67.6477 34.1957 67.458 34.5349 67.1215L38.4146 63.26C38.5844 63.0902 38.7191 62.8886 38.811 62.6667C38.9029 62.4448 38.9503 62.207 38.9503 61.9668C38.9503 61.7266 38.9029 61.4888 38.811 61.2669C38.7191 61.045 38.5844 60.8434 38.4146 60.6736C38.2448 60.5038 38.0431 60.3691 37.8213 60.2772C37.5994 60.1852 37.3615 60.1379 37.1214 60.1379C36.8812 60.1379 36.6434 60.1852 36.4215 60.2772C36.1996 60.3691 35.998 60.5038 35.8282 60.6736V60.6736Z" fill="white"/>
<path d="M64.1716 60.6736C64.0018 60.5038 63.8002 60.3691 63.5783 60.2772C63.3564 60.1852 63.1186 60.1379 62.8784 60.1379C62.6382 60.1379 62.4004 60.1852 62.1785 60.2772C61.9566 60.3691 61.755 60.5038 61.5852 60.6736C61.4153 60.8434 61.2806 61.045 61.1887 61.2669C61.0968 61.4888 61.0495 61.7266 61.0495 61.9668C61.0495 62.207 61.0968 62.4448 61.1887 62.6667C61.2806 62.8886 61.4153 63.0902 61.5852 63.26L65.4648 67.1215C65.8041 67.458 66.262 67.6477 66.7398 67.6497C66.9795 67.6511 67.2171 67.6051 67.4391 67.5145C67.661 67.4238 67.8628 67.2903 68.033 67.1215C68.3723 66.7802 68.5627 66.3186 68.5627 65.8374C68.5627 65.3562 68.3723 64.8945 68.033 64.5532L64.1716 60.6736Z" fill="white"/>
<path d="M73.6786 47.2679H68.2143C67.7312 47.2679 67.268 47.4598 66.9264 47.8014C66.5848 48.143 66.3929 48.6062 66.3929 49.0893C66.3929 49.5724 66.5848 50.0357 66.9264 50.3773C67.268 50.7188 67.7312 50.9107 68.2143 50.9107H73.6786C74.1617 50.9107 74.625 50.7188 74.9665 50.3773C75.3081 50.0357 75.5 49.5724 75.5 49.0893C75.5 48.6062 75.3081 48.143 74.9665 47.8014C74.625 47.4598 74.1617 47.2679 73.6786 47.2679Z" fill="white"/>
<path d="M62.8779 38.0333C63.1177 38.0347 63.3553 37.9887 63.5772 37.8981C63.7991 37.8074 64.001 37.6739 64.1712 37.5051L68.0326 33.6254C68.2233 33.4621 68.3781 33.2612 68.4874 33.0352C68.5968 32.8092 68.6582 32.5631 68.6679 32.3123C68.6776 32.0614 68.6353 31.8113 68.5438 31.5775C68.4522 31.3438 68.3133 31.1315 68.1358 30.954C67.9583 30.7765 67.746 30.6376 67.5123 30.546C67.2785 30.4545 67.0284 30.4122 66.7775 30.4219C66.5267 30.4316 66.2806 30.493 66.0546 30.6023C65.8286 30.7117 65.6277 30.8665 65.4644 31.0572L61.5847 34.9186C61.414 35.088 61.2785 35.2894 61.186 35.5114C61.0936 35.7333 61.046 35.9714 61.046 36.2118C61.046 36.4523 61.0936 36.6904 61.186 36.9123C61.2785 37.1343 61.414 37.3357 61.5847 37.5051C61.7549 37.6739 61.9568 37.8074 62.1787 37.8981C62.4006 37.9887 62.6382 38.0347 62.8779 38.0333Z" fill="white"/>
<path d="M50 32.6964C50.4831 32.6964 50.9464 32.5045 51.288 32.163C51.6295 31.8214 51.8214 31.3581 51.8214 30.875V25.4107C51.8214 24.9277 51.6295 24.4644 51.288 24.1228C50.9464 23.7812 50.4831 23.5893 50 23.5893C49.5169 23.5893 49.0537 23.7812 48.7121 24.1228C48.3705 24.4644 48.1786 24.9277 48.1786 25.4107V30.875C48.1786 31.3581 48.3705 31.8214 48.7121 32.163C49.0537 32.5045 49.5169 32.6964 50 32.6964Z" fill="white"/>
<path d="M35.829 37.5052C35.9992 37.674 36.201 37.8075 36.423 37.8982C36.6449 37.9888 36.8825 38.0348 37.1222 38.0334C37.3619 38.0348 37.5996 37.9888 37.8215 37.8982C38.0434 37.8075 38.2452 37.674 38.4154 37.5052C38.5862 37.3358 38.7217 37.1344 38.8141 36.9124C38.9066 36.6905 38.9542 36.4524 38.9542 36.2119C38.9542 35.9715 38.9066 35.7334 38.8141 35.5115C38.7217 35.2895 38.5862 35.0881 38.4154 34.9187L34.5358 31.0573C34.1874 30.7589 33.7391 30.603 33.2807 30.6207C32.8223 30.6384 32.3875 30.8284 32.0631 31.1528C31.7387 31.4772 31.5487 31.912 31.531 32.3705C31.5133 32.8289 31.6692 33.2771 31.9676 33.6255L35.829 37.5052Z" fill="white"/>
<defs>
<linearGradient id="paint0_linear" x1="25" y1="10" x2="100" y2="86" gradientUnits="userSpaceOnUse">
<stop stop-color="#9FA3FF"/>
<stop offset="1" stop-color="#F3D1FF"/>
</linearGradient>
</defs>
</svg>
