<svg width="290" height="272" viewBox="0 0 290 272" fill="none" xmlns="http://www.w3.org/2000/svg">
<path d="M269.09 198.739H248.585C248.101 198.739 247.708 199.132 247.708 199.616L247.708 220.121C247.708 220.605 248.101 220.998 248.585 220.998H269.09C269.574 220.998 269.967 220.605 269.967 220.121V199.616C269.967 199.132 269.574 198.739 269.09 198.739Z" fill="#B1B4FF"/>
<path d="M47.6948 30.9238H12.0861C11.6017 30.9238 11.209 31.3164 11.209 31.8008L11.209 67.4096C11.209 67.894 11.6017 68.2867 12.086 68.2867H47.6948C48.1792 68.2867 48.5719 67.894 48.5719 67.4096V31.8008C48.5719 31.3164 48.1792 30.9238 47.6948 30.9238Z" fill="#BEC0F8"/>
<path fill-rule="evenodd" clip-rule="evenodd" d="M128.665 219.897H161.065V194.439H128.665V219.897Z" fill="#5869AC"/>
<path fill-rule="evenodd" clip-rule="evenodd" d="M180.697 228.615H110.111C107.235 228.615 104.903 226.283 104.903 223.407C104.903 220.531 107.235 218.2 110.111 218.2H180.697C183.573 218.2 185.904 220.531 185.904 223.407C185.904 226.283 183.573 228.615 180.697 228.615Z" fill="#5869AC"/>
<path d="M253.724 191.092H34.4552C31.8338 191.092 29.709 188.967 29.709 186.346V52.7074C29.709 50.0861 31.8339 47.9612 34.4552 47.9612H253.724C256.345 47.9612 258.47 50.086 258.47 52.7074V186.346C258.47 188.967 256.345 191.092 253.724 191.092Z" fill="url(#paint0_linear_127:2605)" stroke="#7288DF" stroke-width="10"/>
<path fill-rule="evenodd" clip-rule="evenodd" d="M195.073 75.9906H92.418V66.7923C92.418 64.797 94.0357 63.1793 96.031 63.1793H191.46C193.456 63.1793 195.073 64.797 195.073 66.7923V75.9906Z" fill="#425088"/>
<path fill-rule="evenodd" clip-rule="evenodd" d="M191.46 164.556H96.031C94.0357 164.556 92.418 162.938 92.418 160.943V74.9132H195.073V160.943C195.073 162.938 193.456 164.556 191.46 164.556Z" fill="white"/>
<path fill-rule="evenodd" clip-rule="evenodd" d="M100.76 69.1413C100.76 70.3936 99.7443 71.4088 98.492 71.4088C97.2397 71.4088 96.2246 70.3936 96.2246 69.1413C96.2246 67.8891 97.2397 66.8738 98.492 66.8738C99.7443 66.8738 100.76 67.8891 100.76 69.1413Z" fill="#FEA08F"/>
<path fill-rule="evenodd" clip-rule="evenodd" d="M109.227 69.1413C109.227 70.3936 108.212 71.4088 106.96 71.4088C105.708 71.4088 104.692 70.3936 104.692 69.1413C104.692 67.8891 105.708 66.8738 106.96 66.8738C108.212 66.8738 109.227 67.8891 109.227 69.1413Z" fill="#799FFC"/>
<path fill-rule="evenodd" clip-rule="evenodd" d="M117.696 69.1413C117.696 70.3936 116.681 71.4088 115.428 71.4088C114.176 71.4088 113.161 70.3936 113.161 69.1413C113.161 67.8891 114.176 66.8738 115.428 66.8738C116.681 66.8738 117.696 67.8891 117.696 69.1413Z" fill="#7CB305"/>
<path fill-rule="evenodd" clip-rule="evenodd" d="M103.513 152.362C102.89 152.362 102.386 151.858 102.386 151.236V85.9288C102.386 85.3067 102.89 84.8022 103.513 84.8022H185.1C185.722 84.8022 186.227 85.3067 186.227 85.9288V151.236C186.227 151.858 185.722 152.362 185.1 152.362H103.513Z" fill="#E6E7F4"/>
<path fill-rule="evenodd" clip-rule="evenodd" d="M158.34 122.715C153.444 122.715 149.466 118.72 149.466 113.78C149.449 108.871 153.414 104.878 158.323 104.861C158.329 104.861 158.334 104.861 158.34 104.861C163.233 104.861 167.212 108.855 167.212 113.794C167.203 118.72 163.233 122.712 158.34 122.715ZM180.42 110.672C180.247 109.699 179.315 108.703 178.342 108.488L177.616 108.322C175.853 107.787 174.36 106.6 173.443 105.003C172.516 103.389 172.241 101.482 172.675 99.6724L172.903 98.9882C173.195 98.0395 172.817 96.7293 172.057 96.0812C172.057 96.0812 171.376 95.5025 169.462 94.3896C167.54 93.2825 166.716 92.9736 166.716 92.9736C165.781 92.6287 164.474 92.9598 163.79 93.6886L163.286 94.2311C161.956 95.5038 160.184 96.2108 158.343 96.2036C156.492 96.2087 154.71 95.4957 153.374 94.2144L152.89 93.6858C152.217 92.9571 150.901 92.6343 149.963 92.9736C149.963 92.9736 149.129 93.2825 147.209 94.3896C145.287 95.5108 144.611 96.0894 144.611 96.0894C143.854 96.732 143.476 98.0285 143.768 98.9882L143.977 99.6808C144.406 101.488 144.132 103.391 143.209 105.003C142.293 106.613 140.788 107.806 139.011 108.33L138.313 108.488C137.356 108.711 136.413 109.693 136.235 110.672C136.235 110.672 136.076 111.551 136.076 113.782C136.076 116.013 136.235 116.89 136.235 116.89C136.407 117.875 137.339 118.859 138.313 119.074L138.994 119.232C140.775 119.758 142.283 120.954 143.198 122.57C144.155 124.248 144.386 126.156 143.966 127.901L143.768 128.577C143.476 129.525 143.854 130.835 144.614 131.484C144.614 131.484 145.296 132.062 147.209 133.175C149.132 134.288 149.958 134.591 149.958 134.591C150.89 134.936 152.2 134.605 152.885 133.876L153.363 133.359C156.145 130.696 160.529 130.699 163.308 133.364L163.787 133.884C164.46 134.611 165.776 134.936 166.713 134.597C166.713 134.597 167.548 134.288 169.47 133.181C171.39 132.068 172.063 131.489 172.063 131.489C172.822 130.849 173.201 129.542 172.909 128.582L172.7 127.881C172.269 126.08 172.544 124.183 173.468 122.579C174.389 120.968 175.894 119.772 177.671 119.241L178.356 119.082C179.313 118.859 180.256 117.877 180.434 116.898C180.434 116.898 180.593 116.019 180.593 113.791C180.576 111.557 180.42 110.672 180.42 110.672Z" fill="#597EF7"/>
<path fill-rule="evenodd" clip-rule="evenodd" d="M127.653 134.006C125.473 135.245 122.691 134.473 121.44 132.274C120.19 130.093 120.945 127.311 123.126 126.061L123.133 126.057C125.312 124.818 128.094 125.59 129.344 127.788C130.587 129.984 129.83 132.766 127.653 134.006ZM134.434 123.055C134.111 122.665 133.444 122.458 132.956 122.609L132.591 122.718C131.67 122.927 130.706 122.776 129.893 122.297C129.072 121.814 128.467 121.034 128.202 120.119L128.13 119.756C128.02 119.26 127.52 118.772 127.018 118.676C127.018 118.676 126.568 118.591 125.434 118.58C124.298 118.574 123.853 118.645 123.853 118.645C123.35 118.728 122.851 119.206 122.731 119.704L122.644 120.073C122.374 120.976 121.764 121.74 120.943 122.202C120.12 122.673 119.147 122.807 118.228 122.574L117.878 122.462C117.394 122.308 116.727 122.497 116.395 122.885C116.395 122.885 116.102 123.234 115.528 124.213C114.955 125.199 114.801 125.627 114.801 125.627C114.627 126.105 114.787 126.778 115.16 127.131L115.428 127.387C116.076 128.083 116.436 128.999 116.433 129.95C116.433 130.899 116.065 131.811 115.406 132.494L115.136 132.742C114.766 133.083 114.595 133.759 114.763 134.24C114.763 134.24 114.915 134.671 115.48 135.665C116.045 136.658 116.337 137.008 116.337 137.008C116.663 137.402 117.327 137.605 117.815 137.454L118.159 137.352C119.084 137.135 120.059 137.286 120.875 137.774C121.726 138.279 122.311 139.07 122.566 139.953L122.649 140.304C122.759 140.8 123.259 141.287 123.762 141.384C123.762 141.384 124.212 141.469 125.345 141.48C126.483 141.489 126.927 141.414 126.927 141.414C127.43 141.332 127.929 140.853 128.049 140.355L128.131 140.004C128.696 138.114 130.648 137.006 132.56 137.489L132.905 137.599C133.389 137.752 134.057 137.564 134.388 137.175C134.388 137.175 134.681 136.827 135.257 135.847C135.83 134.866 135.983 134.438 135.983 134.438C136.159 133.961 135.997 133.283 135.624 132.93L135.353 132.67C134.706 131.978 134.348 131.064 134.353 130.115C134.355 129.165 134.723 128.252 135.379 127.565L135.644 127.322C136.013 126.98 136.185 126.304 136.016 125.823C136.016 125.823 135.864 125.392 135.3 124.4C134.727 123.409 134.434 123.055 134.434 123.055Z" fill="#9496F4"/>
<path fill-rule="evenodd" clip-rule="evenodd" d="M123.991 96.3767H111.513C110.698 96.3767 110.031 95.7098 110.031 94.8947V94.7704C110.031 93.9552 110.698 93.2883 111.513 93.2883H123.991C124.806 93.2883 125.473 93.9552 125.473 94.7704V94.8947C125.473 95.7098 124.806 96.3767 123.991 96.3767Z" fill="#ADC6FF"/>
<path fill-rule="evenodd" clip-rule="evenodd" d="M120.5 103.603H112.78C111.927 103.603 111.235 102.911 111.235 102.059C111.235 101.206 111.927 100.514 112.78 100.514H120.5C121.353 100.514 122.045 101.206 122.045 102.059C122.045 102.911 121.353 103.603 120.5 103.603Z" fill="#ADC6FF"/>
<path fill-rule="evenodd" clip-rule="evenodd" d="M239.441 124.917C215.88 124.917 196.781 144.017 196.781 167.577C196.781 191.137 215.88 210.236 239.441 210.236C263.001 210.236 282.1 191.137 282.1 167.577C282.1 144.017 263.001 124.917 239.441 124.917Z" fill="url(#paint1_linear_127:2605)"/>
<path fill-rule="evenodd" clip-rule="evenodd" d="M232.566 182.068L229.873 179.374L255.971 153.181C256.864 152.288 258.311 152.288 259.203 153.181L260.281 154.258C261.173 155.151 261.173 156.598 260.281 157.49L235.798 182.068C234.906 182.96 233.459 182.96 232.566 182.068Z" fill="white"/>
<path fill-rule="evenodd" clip-rule="evenodd" d="M238.487 179.374L235.794 182.068C234.901 182.96 233.454 182.96 232.562 182.068L221.837 171.343C220.945 170.451 220.945 169.004 221.837 168.111L222.915 167.034C223.807 166.142 225.254 166.142 226.147 167.034L238.487 179.374Z" fill="white"/>
<defs>
<linearGradient id="paint0_linear_127:2605" x1="144.089" y1="42.9612" x2="144.089" y2="196.092" gradientUnits="userSpaceOnUse">
<stop stop-color="white"/>
<stop offset="1" stop-color="#DDDEFF"/>
</linearGradient>
<linearGradient id="paint1_linear_127:2605" x1="264" y1="125" x2="215" y2="204" gradientUnits="userSpaceOnUse">
<stop stop-color="#FFCDC5"/>
<stop offset="1" stop-color="#FEAA9B"/>
</linearGradient>
</defs>
</svg>
