<svg width="37" height="36" viewBox="0 0 37 36" fill="none" xmlns="http://www.w3.org/2000/svg">
<path d="M18.1265 0.494203C8.19035 0.490185 0.142578 8.53394 0.142578 18.4621C0.142578 26.313 5.17695 32.9866 12.1881 35.4375C13.1323 35.6746 12.9877 35.0036 12.9877 34.5455V31.4317C7.53544 32.0705 7.31445 28.4625 6.94883 27.8598C6.20954 26.5982 4.46177 26.2768 4.9841 25.6741C6.22561 25.0353 7.49124 25.8348 8.95776 28.0005C10.0185 29.5714 12.0877 29.3063 13.1363 29.0451C13.3653 28.1009 13.8555 27.2571 14.5305 26.6022C8.88142 25.5897 6.52695 22.1424 6.52695 18.0442C6.52695 16.0554 7.18186 14.2272 8.46758 12.7527C7.64794 10.3219 8.54392 8.24063 8.66445 7.93126C10.9988 7.72233 13.4256 9.60269 13.6145 9.75135C14.9403 9.39376 16.4551 9.20492 18.1506 9.20492C19.8542 9.20492 21.3729 9.40179 22.7109 9.7634C23.1649 9.41786 25.4149 7.80269 27.5845 7.99956C27.7011 8.30894 28.577 10.342 27.8055 12.7406C29.1073 14.2192 29.7703 16.0634 29.7703 18.0563C29.7703 22.1625 27.3997 25.6138 21.7345 26.6103C22.2198 27.0875 22.6051 27.6566 22.8679 28.2843C23.1307 28.9121 23.2659 29.586 23.2653 30.2665V34.7866C23.2975 35.1482 23.2653 35.5058 23.868 35.5058C30.9837 33.1072 36.1064 26.3853 36.1064 18.4661C36.1064 8.53394 28.0546 0.494203 18.1265 0.494203Z" fill="#7A7EF1"/>
</svg>
