<svg width="100" height="101" viewBox="0 0 100 101" fill="none" xmlns="http://www.w3.org/2000/svg">
<rect y="0.277466" width="100" height="100" rx="50" fill="url(#paint0_linear)"/>
<path d="M69.6431 62.7842C69.6431 56.5566 65.9935 51.1771 60.7145 48.6715V39.4193C60.7145 38.5767 60.4188 37.7619 59.8719 37.1202L51.3674 27.0365C51.0103 26.6124 50.5025 26.4003 50.0002 26.4003C49.498 26.4003 48.9902 26.6124 48.633 27.0365L40.1286 37.1202C39.5854 37.7632 39.287 38.5775 39.2859 39.4193V48.6715C34.0069 51.1771 30.3574 56.5566 30.3574 62.7842H39.0906C38.9623 63.186 38.8953 63.6213 38.8953 64.1124C38.8953 65.3456 39.3194 66.551 40.0895 67.5052C40.7181 68.2857 41.5506 68.8767 42.4946 69.2128C43.7837 72.2262 46.7134 74.1682 50.0002 74.1682C51.6241 74.1682 53.1978 73.6883 54.5426 72.7842C55.8596 71.9025 56.8808 70.6693 57.5002 69.2128C58.4439 68.8788 59.2764 68.2896 59.9054 67.5108C60.6765 66.5479 61.0976 65.3516 61.0996 64.118C61.0996 63.6492 61.0382 63.2028 60.9266 62.7898H69.6431V62.7842ZM63.9679 56.3892C64.4924 57.2039 64.9165 58.08 65.2234 58.9896H60.4913V52.8903C61.8835 53.7988 63.0682 54.9911 63.9679 56.3892V56.3892ZM43.0806 48.6715V39.503L50.0002 31.2999L56.9199 39.503V58.9896H43.0806V48.6715ZM34.777 58.9896C35.0839 58.08 35.508 57.2039 36.0326 56.3892C36.9422 54.9829 38.1252 53.7943 39.5091 52.8903V58.9896H34.777ZM56.479 65.474C56.1888 65.6414 55.854 65.7084 55.5248 65.6637L54.4366 65.5298L54.2804 66.6124C53.979 68.7273 52.1375 70.3233 50.0002 70.3233C47.8629 70.3233 46.0214 68.7273 45.7201 66.6124L45.5638 65.5242L44.4757 65.6637C44.1449 65.7031 43.8101 65.6346 43.5214 65.4684C43.0359 65.1894 42.7346 64.6704 42.7346 64.1068C42.7346 63.5153 43.0638 63.0242 43.5493 62.7787H56.4567C56.9478 63.0298 57.2714 63.5209 57.2714 64.1068C57.2658 64.676 56.9645 65.2005 56.479 65.474ZM47.3216 44.0342C47.3216 44.7446 47.6039 45.426 48.1062 45.9283C48.6085 46.4306 49.2898 46.7128 50.0002 46.7128C50.7106 46.7128 51.3919 46.4306 51.8943 45.9283C52.3966 45.426 52.6788 44.7446 52.6788 44.0342C52.6788 43.3238 52.3966 42.6425 51.8943 42.1402C51.3919 41.6379 50.7106 41.3557 50.0002 41.3557C49.2898 41.3557 48.6085 41.6379 48.1062 42.1402C47.6039 42.6425 47.3216 43.3238 47.3216 44.0342V44.0342Z" fill="white"/>
<defs>
<linearGradient id="paint0_linear" x1="16" y1="12.2775" x2="86" y2="90.2775" gradientUnits="userSpaceOnUse">
<stop stop-color="#E18BB1"/>
<stop offset="1" stop-color="#FBCFC9"/>
</linearGradient>
</defs>
</svg>
