<svg width="33" height="34" viewBox="0 0 33 34" fill="none" xmlns="http://www.w3.org/2000/svg">
<path d="M29.5594 0.928589H2.58348C1.15714 0.928589 0 2.08573 0 3.51207V30.488C0 31.9143 1.15714 33.0714 2.58348 33.0714H29.5594C30.9857 33.0714 32.1429 31.9143 32.1429 30.488V3.51207C32.1429 2.08573 30.9857 0.928589 29.5594 0.928589ZM29.5594 30.5C11.5674 30.496 2.57143 30.492 2.57143 30.488C2.57545 12.496 2.57946 3.50002 2.58348 3.50002C20.5754 3.50404 29.5714 3.50805 29.5714 3.51207C29.5674 21.504 29.5634 30.5 29.5594 30.5ZM4.76518 12.9781H9.53438V28.3183H4.76518V12.9781ZM7.15179 10.8808C8.67455 10.8808 9.91607 9.64332 9.91607 8.11654C9.91607 7.75352 9.84457 7.39407 9.70565 7.05869C9.56674 6.72331 9.36312 6.41858 9.10643 6.16189C8.84974 5.9052 8.54501 5.70159 8.20963 5.56267C7.87425 5.42375 7.5148 5.35225 7.15179 5.35225C6.78877 5.35225 6.42932 5.42375 6.09394 5.56267C5.75856 5.70159 5.45383 5.9052 5.19714 6.16189C4.94045 6.41858 4.73684 6.72331 4.59792 7.05869C4.459 7.39407 4.3875 7.75352 4.3875 8.11654C4.38348 9.64332 5.62098 10.8808 7.15179 10.8808ZM17.2888 20.7286C17.2888 18.7277 17.6705 16.7911 20.1496 16.7911C22.5924 16.7911 22.6286 19.0773 22.6286 20.8572V28.3183H27.3938V19.9049C27.3938 15.7746 26.5018 12.5964 21.6763 12.5964C19.358 12.5964 17.8031 13.8701 17.1643 15.0755H17.1V12.9781H12.5237V28.3183H17.2888V20.7286Z" fill="#7A7EF1"/>
</svg>
