<svg width="66" height="65" viewBox="0 0 66 65" fill="none" xmlns="http://www.w3.org/2000/svg">
<path d="M32.5309 22.982C34.4221 22.982 36.2709 23.5428 37.8433 24.5935C39.4158 25.6442 40.6414 27.1376 41.3652 28.8848C42.0889 30.6321 42.2783 32.5547 41.9093 34.4096C41.5403 36.2645 40.6296 37.9683 39.2924 39.3056C37.9551 40.6428 36.2513 41.5536 34.3964 41.9225C32.5415 42.2915 30.6189 42.1021 28.8716 41.3784C27.1244 40.6546 25.631 39.429 24.5803 37.8565C23.5296 36.2841 22.9687 34.4353 22.9688 32.5441" stroke="white" stroke-opacity="0.7" stroke-width="3.0113" stroke-linecap="round"/>
<path d="M60.6448 38.4731C59.5976 45.6153 56.1665 50.3331 50.5495 54.8669C44.9324 59.4007 37.8125 61.6502 30.6102 61.1666M3.84752 32.8744C3.76454 25.6563 6.40584 18.6723 11.2445 13.3157C16.0832 7.95897 22.7635 4.62339 29.9527 3.97435C37.142 3.3253 44.3117 5.41051 50.0315 9.81398C55.7513 14.2174 59.338 18.9261 60.5491 26.0423" stroke="white" stroke-opacity="0.7" stroke-width="3.0113" stroke-linecap="round"/>
<path d="M50.7959 38.4725C49.4441 42.8207 46.5836 46.2928 42.7317 48.7213C38.8798 51.1499 34.2878 52.1243 29.7816 51.4694C25.2754 50.8145 21.1507 48.5732 18.1495 45.1486C15.1483 41.7241 13.4675 37.341 13.4094 32.7879C13.3513 28.2347 14.9198 23.8102 17.8327 20.3102C20.7456 16.8102 24.8118 14.4644 29.2998 13.6948C33.7878 12.9252 38.4032 13.7822 42.3158 16.1117C46.2284 18.4412 48.9511 21.7293 50.4134 26.0417" stroke="white" stroke-opacity="0.7" stroke-width="3.0113" stroke-linecap="round"/>
<path d="M50.7949 38.4733H60.5483" stroke="white" stroke-opacity="0.7" stroke-width="3.0113" stroke-linecap="round" stroke-linejoin="round"/>
<path d="M50.5078 26.0426H60.5481" stroke="white" stroke-opacity="0.7" stroke-width="3.0113" stroke-linecap="round"/>
</svg>
