<svg width="71" height="65" viewBox="0 0 71 65" fill="none" xmlns="http://www.w3.org/2000/svg">
<path d="M30.6066 51.8682C37.6835 51.8682 44.4165 52.0156 51.1003 51.819C55.8674 51.6716 59.4058 47.5925 59.2584 42.7271C59.1601 38.0091 55.3759 34.3232 50.5105 34.3232C38.5682 34.2741 26.6258 34.3232 14.7326 34.3232C10.6535 34.3232 7.11505 32.9963 4.41205 29.9001C0.824432 25.7228 -0.0110376 20.9557 2.24965 15.9428C4.51035 10.8317 8.63856 8.17783 14.2411 8.12869C24.2177 8.07954 34.1942 8.12869 44.1707 8.12869C44.6131 8.12869 45.0554 8.12869 45.5468 8.12869C45.596 8.03039 45.6451 7.9321 45.6942 7.83381C44.613 6.80176 43.5318 5.72056 42.4998 4.6885C42.1558 4.34448 41.7626 4.00047 41.4186 3.6073C40.6323 2.67354 40.6814 1.4449 41.4678 0.658576C42.3032 -0.176897 43.5319 -0.226041 44.4165 0.560286C45.3502 1.39576 46.1857 2.32952 47.0703 3.16499C48.8396 4.93423 50.6088 6.70347 52.378 8.4727C53.6558 9.75048 53.6558 10.8317 52.378 12.1095C49.8716 14.665 47.3161 17.1715 44.7605 19.727C43.6301 20.8574 42.3032 20.9557 41.3695 19.9727C40.4848 19.039 40.5831 17.8103 41.7135 16.68C43.0404 15.3531 44.3673 14.0753 45.8417 12.6009C45.3011 12.5518 45.0554 12.5026 44.8096 12.5026C34.6857 12.5026 24.5126 12.5026 14.3886 12.5026C9.81806 12.5026 6.32873 15.4514 5.54241 19.7762C4.60864 24.6907 8.19626 29.4578 13.16 29.9493C13.7988 29.9984 14.4869 29.9984 15.1258 29.9984C26.8224 29.9984 38.519 29.9984 50.2156 29.9984C56.7028 29.9984 61.814 34.0775 63.2883 40.2698C65.0576 47.7891 59.5041 55.4066 51.8374 56.1438C51.0511 56.193 50.2648 56.2421 49.4785 56.2421C43.7284 56.2421 38.0276 56.2421 32.2775 56.2421C31.8844 56.2421 31.4421 56.2421 31.0489 56.2421C30.9998 56.3404 30.9506 56.4387 30.9015 56.4878C32.1301 57.7165 33.4079 58.9451 34.6365 60.2229C35.0297 60.6161 35.4229 61.1567 35.5703 61.6481C35.816 62.631 35.4229 63.5156 34.4891 64.0071C33.5553 64.4986 32.6707 64.302 31.9335 63.5648C30.5083 62.1396 29.0831 60.7143 27.6087 59.2891C26.4292 58.1096 25.2989 56.9793 24.1194 55.7998C22.8908 54.5712 22.8907 53.4408 24.0702 52.2613C26.6258 49.7057 29.1814 47.1011 31.7369 44.5455C32.8181 43.4643 34.1451 43.4151 35.0297 44.3489C35.9143 45.2335 35.816 46.5604 34.784 47.5925C33.5553 48.9686 32.2284 50.2955 30.6066 51.8682Z" fill="#7A7EF1"/>
<path d="M21.4649 54.1781C21.3666 59.7807 16.7961 64.253 11.2427 64.2038C5.49265 64.1547 1.02041 59.4367 1.16785 53.6867C1.31529 48.1332 5.98409 43.7101 11.5375 43.8576C17.091 44.005 21.5632 48.6247 21.4649 54.1781Z" fill="#7A7EF1"/>
<path d="M63.1407 6.01528C64.1728 4.93408 65.1557 3.85288 66.1877 2.77168C67.2689 1.69048 68.5467 1.59219 69.4805 2.52595C70.3651 3.41057 70.316 4.7375 69.2348 5.8187C68.2027 6.85075 67.1215 7.8828 65.8437 9.06229C67.0232 10.1926 68.1044 11.1756 69.1365 12.2076C70.2668 13.338 70.3651 14.6649 69.4313 15.5986C68.4976 16.5324 67.2198 16.4341 66.0403 15.2546C65.0083 14.2226 64.0253 13.1905 62.895 12.011C61.7646 13.1905 60.7817 14.2717 59.7497 15.3038C58.6685 16.385 57.3907 16.5324 56.4569 15.5986C55.474 14.6649 55.5723 13.338 56.7027 12.2076C57.7347 11.1756 58.8159 10.2418 60.0937 9.01315C58.8159 7.88281 57.7347 6.89989 56.6535 5.86784C55.474 4.73749 55.3757 3.41057 56.3586 2.4768C57.3416 1.54304 58.5702 1.64133 59.7497 2.82082C60.7326 3.75459 61.6663 4.7375 62.6493 5.67126C62.7475 5.76955 62.7967 5.8187 63.1407 6.01528Z" fill="#7A7EF1"/>
</svg>
