<svg width="94" height="51" viewBox="0 0 94 51" fill="none" xmlns="http://www.w3.org/2000/svg">
<path d="M47.0469 20.4008C49.8354 20.4008 52.096 22.6614 52.096 25.4499C52.096 28.2385 49.8354 30.499 47.0469 30.499C44.2583 30.499 41.9978 28.2385 41.9978 25.4499C41.9978 22.6614 44.2583 20.4008 47.0469 20.4008Z" fill="#799FFC"/>
<path d="M64.5238 20.4008C67.3123 20.4008 69.5729 22.6614 69.5729 25.4499C69.5729 28.2385 67.3123 30.499 64.5238 30.499C61.7352 30.499 59.4747 28.2385 59.4747 25.4499C59.4747 22.6614 61.7352 20.4008 64.5238 20.4008Z" fill="#799FFC"/>
<path d="M29.5686 20.4008C32.3572 20.4008 34.6177 22.6614 34.6177 25.4499C34.6177 28.2385 32.3572 30.499 29.5686 30.499C26.7801 30.499 24.5195 28.2385 24.5195 25.4499C24.5195 22.6614 26.7801 20.4008 29.5686 20.4008Z" fill="#799FFC"/>
<path d="M28.4038 3.69971L3.54669 25.4497L28.4038 47.1997M65.6896 3.69971L90.5467 25.4497L65.6896 47.1997" stroke="#799FFC" stroke-width="6.21429" stroke-linecap="round" stroke-linejoin="round"/>
</svg>
