<svg width="250" height="247" viewBox="0 0 250 247" fill="none" xmlns="http://www.w3.org/2000/svg">
<path fill-rule="evenodd" clip-rule="evenodd" d="M234.621 115.224C234.621 170.275 189.992 214.901 134.944 214.901C79.8931 214.901 35.2656 170.275 35.2656 115.224C35.2656 60.1729 79.8931 15.5471 134.944 15.5471C189.992 15.5471 234.621 60.1729 234.621 115.224Z" fill="#BED2FF"/>
<mask id="mask0_127:2606" style="mask-type:alpha" maskUnits="userSpaceOnUse" x="35" y="15" width="200" height="200">
<path d="M135.074 15.5474C80.0932 15.5474 35.5254 60.1732 35.5254 115.223C35.5254 170.275 80.0932 214.901 135.074 214.901C190.052 214.901 234.621 170.275 234.621 115.223C234.621 60.1732 190.052 15.5474 135.074 15.5474Z" fill="white"/>
</mask>
<g mask="url(#mask0_127:2606)">
<path fill-rule="evenodd" clip-rule="evenodd" d="M187.815 107.885V227.826C187.815 229.585 185.531 230.475 184.275 229.245L176.957 220.752L169.249 228.458C167.713 229.994 165.227 230.01 163.672 228.493L155.718 220.752L148.169 228.4C146.628 229.96 144.114 229.976 142.554 228.434L134.777 220.752L126.929 228.482C125.382 230.004 122.899 230.004 121.355 228.479L113.52 220.752L105.708 228.458C104.155 229.991 101.656 229.981 100.114 228.439L92.4232 220.752L85.2912 229.344C84.0395 230.589 82.0703 229.703 82.0703 227.937V107.885H187.815Z" fill="#E4EBF7"/>
<path fill-rule="evenodd" clip-rule="evenodd" d="M82.1172 107.285H188.112V95.1879C188.112 90.9323 186.335 87.4836 184.145 87.4836H86.0846C83.8924 87.4836 82.1172 90.9323 82.1172 95.1879V107.285Z" fill="#7A7EF1"/>
<path fill-rule="evenodd" clip-rule="evenodd" d="M172.826 137.569C174.192 137.569 175.299 136.624 175.299 135.46V122.792C175.299 121.624 174.192 120.68 172.826 120.68H157.975C156.606 120.68 155.498 121.624 155.498 122.792V135.46C155.498 136.624 156.606 137.569 157.975 137.569H172.826Z" fill="#7A7EF1"/>
<path fill-rule="evenodd" clip-rule="evenodd" d="M93.2884 155.55H175.898C176.429 155.55 176.857 155.12 176.857 154.589V151.219C176.857 150.688 176.429 150.257 175.898 150.257H93.2884C92.7589 150.257 92.3271 150.688 92.3271 151.219V154.589C92.3271 155.12 92.7589 155.55 93.2884 155.55Z" fill="#A3B5D6"/>
<path fill-rule="evenodd" clip-rule="evenodd" d="M93.2884 171.299H175.898C176.429 171.299 176.857 170.869 176.857 170.338V166.968C176.857 166.437 176.429 166.007 175.898 166.007H93.2884C92.7589 166.007 92.3271 166.437 92.3271 166.968V170.338C92.3271 170.869 92.7589 171.299 93.2884 171.299Z" fill="#FEA08F"/>
<path fill-rule="evenodd" clip-rule="evenodd" d="M93.2884 187.048H175.898C176.429 187.048 176.857 186.618 176.857 186.087V182.717C176.857 182.186 176.429 181.756 175.898 181.756H93.2884C92.7589 181.756 92.3271 182.186 92.3271 182.717V186.087C92.3271 186.618 92.7589 187.048 93.2884 187.048Z" fill="#FFBBAE"/>
<path fill-rule="evenodd" clip-rule="evenodd" d="M141.521 79.7728C141.521 80.8149 142.365 81.6597 143.407 81.6597H185.642C186.684 81.6597 187.529 80.8149 187.529 79.7728V76.558C187.529 75.5158 186.684 74.671 185.642 74.671H143.407C142.365 74.671 141.521 75.5158 141.521 76.558V79.7728Z" fill="#545BD3"/>
</g>
<path fill-rule="evenodd" clip-rule="evenodd" d="M200.086 44.4979C201.767 44.4979 202.609 42.4655 201.42 41.2767L165.681 5.53622C164.944 4.79931 163.749 4.79929 163.012 5.53617L127.27 41.2767C126.082 42.4654 126.923 44.4979 128.605 44.4979H141.397V69.9157C141.397 70.9578 142.241 71.8026 143.284 71.8026H185.407C186.449 71.8026 187.294 70.9578 187.294 69.9157V44.4979H200.086Z" fill="url(#paint0_linear_127:2606)"/>
<path fill-rule="evenodd" clip-rule="evenodd" d="M32.6506 215.661L28.6963 211.525L61.7869 179.886L65.7412 184.022L32.6506 215.661Z" fill="#A3B5D6"/>
<path fill-rule="evenodd" clip-rule="evenodd" d="M95.4884 188.226C75.3473 187.775 59.386 171.081 59.8375 150.94C60.2891 130.8 76.9824 114.838 97.1236 115.29C117.264 115.741 133.226 132.435 132.774 152.576C132.323 172.717 115.629 188.678 95.4884 188.226ZM97.3961 103.133C70.5414 102.531 48.2834 123.813 47.6814 150.668C47.0793 177.522 68.3611 199.781 95.2159 200.383C122.07 200.985 144.329 179.703 144.931 152.848C145.533 125.993 124.251 103.735 97.3961 103.133Z" fill="#87A9FC"/>
<path fill-rule="evenodd" clip-rule="evenodd" d="M16.6235 230.986L12.6693 226.85C11.5773 225.708 11.618 223.897 12.76 222.805L41.8152 195.024C42.9573 193.932 44.7683 193.973 45.8603 195.115C45.8603 195.115 45.8603 195.115 45.8603 195.115L49.8146 199.25C50.9066 200.393 50.866 202.204 49.7239 203.296L20.6685 231.077C19.5265 232.169 17.7155 232.128 16.6235 230.986C16.6235 230.986 16.6235 230.986 16.6235 230.986Z" fill="#87A9FC"/>
<circle cx="96.3855" cy="151.838" r="39.3113" fill="white" fill-opacity="0.5"/>
<defs>
<linearGradient id="paint0_linear_127:2606" x1="164.345" y1="4.98352" x2="164.345" y2="71.8026" gradientUnits="userSpaceOnUse">
<stop stop-color="#A9AEFF"/>
<stop offset="1" stop-color="#545BD3"/>
</linearGradient>
</defs>
</svg>
