<svg width="70" height="70" viewBox="0 0 70 70" fill="none" xmlns="http://www.w3.org/2000/svg">
<path d="M0.0134115 42.2916C0.514713 41.2325 1.40977 40.7586 2.50351 40.4687C3.76497 40.1351 4.98815 39.6612 6.23685 39.2765C6.81209 39.0861 7.43911 39.1292 7.98291 39.3965C8.52671 39.6638 8.94381 40.1339 9.1444 40.7057C9.25295 40.9868 9.30434 41.2868 9.29555 41.588C9.28675 41.8893 9.21796 42.1857 9.09319 42.46C8.96843 42.7343 8.79019 42.981 8.56892 43.1856C8.34765 43.3902 8.08779 43.5486 7.80455 43.6515C6.19857 44.2385 4.5707 44.7781 2.92643 45.252C1.71784 45.6002 0.855599 45.0698 0.00976562 43.6534L0.0134115 42.2916Z" fill="#799FFC"/>
<path d="M61.143 25.8417C61.1612 27.4367 60.5122 28.7328 59.3875 29.8284C56.7831 32.3647 54.1782 34.901 51.5726 37.4373C51.4372 37.546 51.3362 37.6917 51.2818 37.8567C51.2275 38.0217 51.2221 38.199 51.2664 38.3669C51.9008 41.9563 52.4877 45.5547 53.1075 49.1477C53.4922 51.368 52.8305 53.211 51.0495 54.5581C49.2685 55.9052 47.2505 56.0784 45.2307 55.0357C42.0333 53.3878 38.8505 51.7107 35.6823 50.0044C35.4629 49.8626 35.2071 49.7871 34.9458 49.7871C34.6845 49.7871 34.4288 49.8626 34.2094 50.0044C31.1213 51.6615 27.9914 53.2401 24.9125 54.9263C21.2502 56.9315 17.3474 54.6492 16.7094 51.2203C16.4888 50.0263 16.7859 48.8724 16.981 47.7149C17.5181 44.5235 18.0705 41.3334 18.638 38.1445C18.7055 37.78 18.4831 37.656 18.3044 37.4792C15.6885 34.9271 13.0617 32.375 10.4513 29.8102C8.02134 27.3985 8.15623 23.6742 10.7557 21.5378C11.9023 20.5917 13.2932 20.4094 14.6877 20.2125C17.9398 19.7531 21.1919 19.2828 24.4458 18.8216C24.6002 18.8032 24.7465 18.7423 24.8685 18.6458C24.9904 18.5492 25.0833 18.4208 25.1367 18.2748C26.7482 14.9631 28.376 11.6606 30.0203 8.3672C31.6609 5.08596 35.7096 4.23465 38.475 6.55523C39.1495 7.12215 39.5997 7.84585 39.9844 8.62788C41.5484 11.8143 43.138 14.9899 44.6875 18.1854C44.9081 18.6393 45.1943 18.7815 45.6609 18.8472C49.3396 19.3703 53.02 19.8789 56.6859 20.475C59.3547 20.9089 61.1484 23.1511 61.143 25.8417ZM35.0333 44.6177C35.4781 44.6177 35.963 44.8638 36.4461 45.1172C39.9862 46.9839 43.5269 48.8481 47.0682 50.7099C47.4328 50.8922 47.7974 51.1219 48.2057 50.8266C48.5794 50.5568 48.5265 50.1776 48.4573 49.7784C47.781 45.8755 47.1411 41.9672 46.432 38.0698C46.206 36.8229 46.432 35.8477 47.3799 34.9453C50.262 32.211 53.0911 29.411 55.9385 26.6347C56.2284 26.3521 56.582 26.0878 56.4362 25.5992C56.2903 25.1107 55.8292 25.036 55.4026 24.974C51.3685 24.3815 47.3344 23.78 43.2966 23.2167C42.2703 23.0745 41.6232 22.555 41.1802 21.6453C39.7401 18.705 38.2818 15.7737 36.8234 12.8352C36.4588 12.086 36.0942 11.3331 35.7169 10.5857C35.551 10.2521 35.3523 9.95496 34.913 9.96043C34.4737 9.9659 34.295 10.2813 34.1237 10.6057C34.0708 10.7042 34.0271 10.8099 33.9778 10.912C32.2133 14.4995 30.4432 18.0852 28.675 21.68C28.2922 22.4656 27.7453 23.0453 26.8758 23.182C24.393 23.5722 21.9028 23.924 19.4146 24.2758C17.712 24.5219 16.0057 24.7534 14.3104 25.005C13.9166 25.0633 13.5466 25.1873 13.4245 25.6302C13.3169 26.0167 13.5612 26.2719 13.8073 26.5162L14.294 26.9919C17.0891 29.719 19.8897 32.4455 22.6958 35.1714C23.3794 35.8349 23.6893 36.5969 23.4979 37.5612C23.3065 38.5255 23.1661 39.5263 22.9984 40.507C22.4661 43.6546 21.9296 46.8016 21.3888 49.9479C21.3286 50.2925 21.3633 50.5841 21.6349 50.8083C21.9375 51.0563 22.2638 51.0016 22.5846 50.8284L22.8836 50.6662L33.5166 45.0789C33.9754 44.8012 34.4974 44.645 35.0333 44.625V44.6177Z" fill="#799FFC"/>
<path d="M69.8501 43.0009C69.8501 44.5995 68.3681 45.6951 66.7967 45.2193C65.2654 44.7563 63.7433 44.2605 62.2266 43.7446C60.9233 43.3016 60.2871 42.0147 60.7081 40.766C61.1292 39.5173 62.3798 38.8847 63.7087 39.3076C65.2363 39.7852 66.7584 40.2792 68.266 40.8006C68.7364 40.94 69.1473 41.2318 69.434 41.63C69.7207 42.0283 69.8671 42.5104 69.8501 43.0009Z" fill="#799FFC"/>
<path d="M13.7155 1.64064C14.0923 1.63092 14.4655 1.71596 14.8009 1.88795C15.1362 2.05993 15.4231 2.31337 15.635 2.62502C16.5647 3.88283 17.4944 5.14246 18.3895 6.42397C18.5799 6.67261 18.7185 6.95694 18.797 7.26011C18.8756 7.56329 18.8925 7.87914 18.8468 8.18897C18.801 8.4988 18.6936 8.7963 18.5308 9.06384C18.368 9.33139 18.1532 9.56355 17.899 9.74656C17.6449 9.92958 17.3566 10.0597 17.0512 10.1293C16.7459 10.1989 16.4296 10.2065 16.1213 10.1516C15.813 10.0968 15.5188 9.98059 15.2561 9.80998C14.9935 9.63937 14.7678 9.41778 14.5923 9.15835C13.6432 7.89081 12.7117 6.60687 11.7978 5.30652C11.5344 4.96013 11.381 4.54262 11.3576 4.10808C11.3342 3.67353 11.4419 3.24197 11.6665 2.86929C11.8577 2.49231 12.1514 2.17699 12.5139 1.95962C12.8764 1.74226 13.2929 1.63168 13.7155 1.64064Z" fill="#799FFC"/>
<path d="M56.1298 1.64967C57.9327 1.64967 59.1285 3.58926 58.1642 5.11321C57.2161 6.57802 56.1927 7.99268 55.0981 9.3515C54.3324 10.3249 52.8832 10.4106 51.9134 9.66139C51.4519 9.30566 51.1418 8.7886 51.0455 8.21388C50.9491 7.63915 51.0736 7.04924 51.3939 6.56243C52.3309 5.19889 53.3153 3.86816 54.3106 2.55202C54.5134 2.26066 54.7864 2.02521 55.1045 1.86747C55.4225 1.70974 55.7752 1.63482 56.1298 1.64967Z" fill="#799FFC"/>
<path d="M37.2545 63.5761C37.2545 64.3709 37.2691 65.1638 37.2545 65.9586C37.2335 66.5579 36.9813 67.1257 36.5508 67.5432C36.1203 67.9606 35.545 68.1952 34.9454 68.1978C34.3458 68.2004 33.7684 67.9708 33.3343 67.5571C32.9003 67.1434 32.6432 66.5777 32.617 65.9787C32.5951 64.3466 32.5951 62.7138 32.617 61.0805C32.6308 60.4763 32.8799 59.9014 33.3111 59.4779C33.7423 59.0545 34.3217 58.816 34.926 58.8131C35.5304 58.8103 36.112 59.0433 36.5472 59.4627C36.9823 59.882 37.2368 60.4546 37.2563 61.0586C37.2709 61.8972 37.2545 62.7375 37.2545 63.5761Z" fill="#799FFC"/>
<path d="M35.0317 44.625C34.4927 44.6434 33.9674 44.7997 33.506 45.0789L22.8729 50.6661L22.5739 50.8284C22.2531 51.0015 21.9268 51.0562 21.6242 50.8083C21.3526 50.5841 21.3179 50.2924 21.3781 49.9479C21.9225 46.8015 22.4591 43.6546 22.9877 40.507C23.1554 39.5263 23.2922 38.5383 23.4872 37.5612C23.6823 36.5841 23.3687 35.8349 22.6851 35.1713C19.8815 32.4479 17.0809 29.7214 14.2833 26.9919L13.7966 26.5161C13.5505 26.2719 13.3062 26.0167 13.4138 25.6302C13.5359 25.189 13.906 25.0633 14.2997 25.0049C16.0041 24.7607 17.7104 24.5292 19.413 24.2758C21.9013 23.9112 24.3914 23.5648 26.8742 23.182C27.7437 23.0453 28.2906 22.4656 28.6734 21.6799C30.4325 18.0851 32.2117 14.4995 33.9836 10.912C34.0328 10.8099 34.0765 10.7042 34.1294 10.6057C34.3008 10.2812 34.4739 9.96587 34.9187 9.9604C35.3635 9.95493 35.5567 10.2521 35.7226 10.5857C36.0872 11.3331 36.4518 12.0859 36.8291 12.8351C38.2875 15.7737 39.7458 18.7049 41.1786 21.6526C41.6216 22.564 42.2724 23.0818 43.295 23.2239C47.3328 23.7872 51.3669 24.3888 55.401 24.9812C55.8276 25.0432 56.2815 25.0979 56.4346 25.6065C56.5877 26.1151 56.2268 26.3594 55.9369 26.6419C53.0896 29.4182 50.2604 32.2146 47.3784 34.9526C46.4304 35.8549 46.2044 36.8302 46.4304 38.0771C47.1396 41.9745 47.7794 45.8828 48.4557 49.7857C48.525 50.1849 48.5778 50.564 48.2041 50.8338C47.7994 51.1291 47.4294 50.9086 47.0666 50.7172C43.5253 48.8541 39.9846 46.9899 36.4445 45.1245C35.9614 44.8711 35.4765 44.6286 35.0317 44.625Z" fill="white"/>
</svg>
