<svg id="eAXvz3H2VPN1" xmlns="http://www.w3.org/2000/svg" xmlns:xlink="http://www.w3.org/1999/xlink" viewBox="0 0 230 247" shape-rendering="geometricPrecision" text-rendering="geometricPrecision"><style><![CDATA[#eAXvz3H2VPN6_to {animation: eAXvz3H2VPN6_to__to 3000ms linear infinite normal forwards}@keyframes eAXvz3H2VPN6_to__to { 0% {transform: translate(81.419496px,120.628083px)} 13.333333% {transform: translate(81.419496px,120.628083px)} 70% {transform: translate(83.660764px,123.951736px)} 100% {transform: translate(81px,120px)}} #eAXvz3H2VPN11_to {animation: eAXvz3H2VPN11_to__to 3000ms linear infinite normal forwards}@keyframes eAXvz3H2VPN11_to__to { 0% {transform: translate(159.936493px,132.403622px)} 20% {transform: translate(171.009494px,116.535855px)} 63.333333% {transform: translate(156.098064px,151.383938px)} 100% {transform: translate(159.936493px,132.403622px)}} #eAXvz3H2VPN17_to {animation: eAXvz3H2VPN17_to__to 3000ms linear infinite normal forwards}@keyframes eAXvz3H2VPN17_to__to { 0% {transform: translate(94.41402px,109.411231px)} 23.333333% {transform: translate(90.688908px,134.602422px)} 60% {transform: translate(90.688908px,134.35687px)} 100% {transform: translate(94.41402px,109.411231px)}} #eAXvz3H2VPN21_to {animation: eAXvz3H2VPN21_to__to 3000ms linear infinite normal forwards}@keyframes eAXvz3H2VPN21_to__to { 0% {transform: translate(117.234768px,132.813186px)} 36.666667% {transform: translate(113.255573px,148.101166px)} 73.333333% {transform: translate(126.250603px,122.740431px)} 100% {transform: translate(117.234768px,132.813186px)}} #eAXvz3H2VPN25_to {animation: eAXvz3H2VPN25_to__to 3000ms linear infinite normal forwards}@keyframes eAXvz3H2VPN25_to__to { 0% {transform: translate(55.446696px,122.905653px)} 30% {transform: translate(59.212335px,137.561832px)} 73.333333% {transform: translate(47.268407px,105.969546px)} 100% {transform: translate(55.446696px,122.905653px)}}]]></style><g id="eAXvz3H2VPN2" transform="matrix(0.78912 0 0 0.78912 28.983831 25.687206)"><g id="eAXvz3H2VPN3"><path id="eAXvz3H2VPN4" d="M54.5933,92.9908L18.1357,120.027L200.135,120.027L163.477,92.9908L54.5933,92.9908Z" fill="rgb(228,235,247)" stroke="none" stroke-width="1"/><path id="eAXvz3H2VPN5" d="M163.478,120.002L200.136,120.027L163.478,92.9908L163.478,120.002Z" fill="rgb(163,181,214)" stroke="none" stroke-width="1"/></g><g id="eAXvz3H2VPN6_to" transform="translate(81.419496,120.628083)"><g id="eAXvz3H2VPN6" transform="translate(-79.165537,-115.258237)"><path id="eAXvz3H2VPN7" d="M49.2783,44.9384L80.3521,222.804C81.0627,226.875,84.9459,229.605,89.0172,228.89L102.853,226.474C106.924,225.759,109.654,221.88,108.939,217.809L77.8692,39.9434L49.2783,44.9384Z" fill="rgb(233,171,176)" stroke="none" stroke-width="1"/><path id="eAXvz3H2VPN8" d="M53.4705,14.7637L49.2822,44.9555L77.869,39.9605L64.4889,12.8409L53.4705,14.7637Z" fill="rgb(255,231,186)" stroke="none" stroke-width="1"/><path id="eAXvz3H2VPN9" d="M56.7524,1.52524C56.5016,1.56703,56.301,1.76767,56.255,2.01847L53.8223,14.7214L64.2722,12.8947L57.4003,1.80947C57.2833,1.62555,57.0826,1.5127,56.8695,1.5127C56.8277,1.5127,56.79,1.51688,56.7524,1.52524Z" fill="rgb(241,145,152)" stroke="none" stroke-width="1"/><path id="eAXvz3H2VPN10" d="M57.9053,43.5342L90.2498,228.677L101.92,226.637L69.5799,41.4902L57.9053,43.5342Z" fill="rgb(241,145,152)" stroke="none" stroke-width="1"/></g></g><g id="eAXvz3H2VPN11_to" transform="translate(159.936493,132.403622)"><g id="eAXvz3H2VPN11" transform="translate(-159.936493,-132.403622)"><path id="eAXvz3H2VPN12" d="M183.91,47.7969C183.674,47.7058,183.426,47.7427,183.297,47.8858L176.675,55.0819L186.527,58.8225L184.38,48.29C184.342,48.1138,184.205,47.9448,184.017,47.844C183.98,47.8242,183.946,47.8092,183.91,47.7969Z" fill="rgb(131,168,255)" stroke="none" stroke-width="1"/><path id="eAXvz3H2VPN13" d="M176.352,54.9438L162.017,72.8008L188.968,83.0348L186.738,58.89L176.352,54.9438Z" fill="rgb(255,231,186)" stroke="none" stroke-width="1"/><path id="eAXvz3H2VPN14" d="M162.019,72.7876L126.694,204.344C125.885,207.355,128.345,210.984,132.184,212.44L145.228,217.394C149.067,218.849,152.84,217.591,153.645,214.578L188.974,83.0236L162.019,72.7876Z" fill="rgb(131,168,255)" stroke="none" stroke-width="1"/><path id="eAXvz3H2VPN15" d="M170.116,75.9438L133.346,212.883L144.348,217.06L181.124,80.1207L170.116,75.9438Z" fill="rgb(164,191,255)" stroke="none" stroke-width="1"/></g></g><path id="eAXvz3H2VPN16" d="M97.6897,214.661L97.1964,228.827C97.0418,233.207,100.469,236.882,104.85,237.032C109.231,237.187,112.905,233.759,113.059,229.383L113.548,215.213L97.6939,214.661L97.6897,214.661Z" fill="rgb(37,51,104)" stroke="none" stroke-width="1"/><g id="eAXvz3H2VPN17_to" transform="translate(94.41402,109.411231)"><g id="eAXvz3H2VPN17" transform="translate(-94.41402,-109.411231)"><path id="eAXvz3H2VPN18" d="M67.9866,201.632C67.2719,205.708,70.0055,209.587,74.081,210.297L82.2863,211.727C86.3617,212.433,90.2407,209.708,90.9471,205.632L120.943,33.4182L97.9778,29.418L67.9866,201.632Z" fill="rgb(89,126,247)" stroke="none" stroke-width="1"/><path id="eAXvz3H2VPN19" d="M112.211,2.65364L111.337,7.66541C111.145,8.76056,111.885,9.80973,112.98,9.99783C114.079,10.1901,115.124,9.45443,115.316,8.3551L116.19,3.34333C116.382,2.24401,115.647,1.19902,114.547,1.00674C114.43,0.990018,114.313,0.977478,114.196,0.977478C113.235,0.977478,112.382,1.66717,112.211,2.65364Z" fill="rgb(89,126,247)" stroke="none" stroke-width="1"/><path id="eAXvz3H2VPN20" d="M110.175,7.62366L97.9775,29.418L120.955,33.4224L116.474,8.70209C116.378,8.18378,115.968,7.77414,115.446,7.69054L111.483,7.00085C111.412,6.98831,111.341,6.98413,111.27,6.98413C110.823,6.98413,110.4,7.22239,110.175,7.62366Z" fill="rgb(228,235,247)" stroke="none" stroke-width="1"/></g></g><g id="eAXvz3H2VPN21_to" transform="translate(117.234768,132.813186)"><g id="eAXvz3H2VPN21" transform="translate(-117.234768,-132.813186)"><path id="eAXvz3H2VPN22" d="M154.633,30.1269L152.913,34.9146C152.536,35.9606,153.085,37.1211,154.132,37.4942C155.182,37.8722,156.338,37.3266,156.715,36.2765L158.436,31.4888C158.814,30.4387,158.268,29.283,157.218,28.9051C157.105,28.8686,156.992,28.8361,156.877,28.8161C155.93,28.6512,154.971,29.1844,154.633,30.1269Z" fill="rgb(178,128,206)" stroke="none" stroke-width="1"/><path id="eAXvz3H2VPN23" d="M151.775,34.6742L136.021,54.054L157.971,61.9393L157.796,36.8168C157.79,36.2897,157.457,35.8159,156.956,35.6439L153.171,34.2849C153.103,34.2604,153.034,34.2441,152.964,34.2319C152.523,34.1552,152.066,34.3176,151.775,34.6742Z" fill="rgb(228,235,247)" stroke="none" stroke-width="1"/><path id="eAXvz3H2VPN24" d="M76.9433,218.574C75.5402,222.467,77.5682,226.757,81.4614,228.156L89.3,230.972C93.194,232.366,97.4829,230.347,98.8777,226.453L157.961,61.9331L136.022,54.0541L76.9433,218.574Z" fill="rgb(177,128,207)" stroke="none" stroke-width="1"/></g></g><g id="eAXvz3H2VPN25_to" transform="translate(55.446696,122.905653)"><g id="eAXvz3H2VPN25" transform="translate(-55.465985,-119.588554)"><path id="eAXvz3H2VPN26" d="M14.4333,25.9949L6.53313,31.4874C5.63026,32.1144,5.29587,33.2931,5.73476,34.3005L10.525,45.2687C11.0308,46.4391,12.3934,46.9699,13.5638,46.46L22.2122,42.6855C23.3825,42.1714,23.9176,40.8129,23.4076,39.6425L17.8734,26.9605C17.5975,26.3293,17.0499,25.8528,16.3811,25.6647C16.1805,25.6104,15.9673,25.5811,15.7625,25.5811C15.2901,25.5811,14.8304,25.7191,14.4333,25.9949Z" fill="rgb(210,124,123)" stroke="none" stroke-width="1"/><path id="eAXvz3H2VPN27" d="M13.0996,76.3842L72.9901,213.596L105.389,199.455L45.4985,62.2434L13.0996,76.3842Z" fill="rgb(206,113,112)" stroke="none" stroke-width="1"/><path id="eAXvz3H2VPN28" d="M13.0996,76.3842L18.3455,88.3932L50.7443,74.2566L45.4985,62.2434L13.0996,76.3842Z" fill="rgb(191,106,105)" stroke="none" stroke-width="1"/><path id="eAXvz3H2VPN29" d="M9.07422,43.308L9.87677,68.9896L13.0995,76.384L45.4984,62.2432L42.2965,54.9074L22.9851,37.2345L9.07422,43.308Z" fill="rgb(228,235,247)" stroke="none" stroke-width="1"/><path id="eAXvz3H2VPN30" d="M9.86816,69.1189L13.0951,76.5091L45.4898,62.3641L42.2628,54.9781L9.86816,69.1189Z" fill="rgb(245,245,245)" stroke="none" stroke-width="1"/><path id="eAXvz3H2VPN31" d="M52.8295,101.522L35.6415,102.709C35.2151,102.739,34.8264,102.977,34.6048,103.345C34.3791,103.708,34.3499,104.164,34.5212,104.561L34.6341,104.816C34.8598,105.33,35.3823,105.648,35.9424,105.606L41.7317,105.18C42.2918,105.138,42.8185,105.46,43.0442,105.974L44.5155,109.347C46.3338,113.515,49.3267,115.408,53.377,115.036C57.4274,114.668,58.556,112.44,56.7962,108.407L54.1336,102.316C53.9204,101.832,53.4397,101.522,52.9131,101.522C52.888,101.522,52.8587,101.522,52.8295,101.522ZM49.1971,111.608C48.4447,111.082,47.7717,110.2,47.2325,108.963L46.2084,106.618C46.037,106.225,46.0663,105.773,46.2878,105.405C46.5094,105.038,46.8981,104.799,47.3245,104.77L51.2369,104.482C51.797,104.444,52.3195,104.758,52.5452,105.272L53.9163,108.419C54.4429,109.619,54.56,110.547,54.305,111.153C54.0458,111.759,53.352,112.139,52.1523,112.244C51.9559,112.261,51.7552,112.269,51.5671,112.269C50.6266,112.269,49.8199,112.052,49.1971,111.608Z" fill="rgb(255,255,255)" stroke="none" stroke-width="1"/><path id="eAXvz3H2VPN32" d="M59.5136,116.909L42.5179,118.535C42.0999,118.577,41.7195,118.815,41.5063,119.179C41.289,119.542,41.2639,119.989,41.4269,120.374L45.9329,130.694C46.167,131.225,46.7187,131.543,47.2956,131.476C47.7094,131.43,48.0814,131.183,48.2904,130.824C48.4994,130.46,48.5245,130.021,48.3531,129.637L45.4271,122.924C45.2641,122.535,45.2892,122.092,45.5024,121.728C45.7155,121.369,46.0917,121.126,46.5097,121.089L49.7283,120.796C50.2968,120.742,50.8318,121.055,51.0617,121.578L54.1841,128.726C54.4182,129.256,54.9742,129.578,55.551,129.516C55.9648,129.465,56.3326,129.219,56.5458,128.855C56.7506,128.496,56.7757,128.053,56.6085,127.668L54.1674,122.075C54.0002,121.687,54.0295,121.243,54.2427,120.884C54.4558,120.524,54.832,120.282,55.25,120.24L57.9586,119.969C58.5271,119.914,59.0663,120.224,59.2962,120.746L62.6109,128.333C62.845,128.868,63.3968,129.181,63.9736,129.114C64.3916,129.064,64.7636,128.822,64.9684,128.454C65.1774,128.082,65.1983,127.639,65.0186,127.254L60.8428,117.69C60.6296,117.206,60.1573,116.9,59.639,116.9C59.5972,116.9,59.5554,116.905,59.5136,116.909Z" fill="rgb(255,255,255)" stroke="none" stroke-width="1"/></g></g><g id="eAXvz3H2VPN33"><path id="eAXvz3H2VPN34" d="M18.6172,153.028L18.6172,240.121C18.6172,243.879,21.6644,246.926,25.4222,246.926L193.243,246.926C197.001,246.926,200.048,243.879,200.048,240.121L200.048,153.028L18.6172,153.028Z" fill="rgb(135,169,252)" stroke="none" stroke-width="1"/><path id="eAXvz3H2VPN35" d="M18.6162,133.165L18.6162,183.909L200.047,169.438L200.047,133.165L18.6162,133.165Z" fill="rgb(127,158,234)" stroke="none" stroke-width="1"/><path id="eAXvz3H2VPN36" d="M18.1487,120.027L0.446575,158.972C-0.226399,160.38,-0.13444,162.031,0.693192,163.352C1.525,164.669,2.97545,165.471,4.53039,165.476L213.466,165.476C215.058,165.476,216.538,164.64,217.357,163.273C218.176,161.906,218.222,160.209,217.478,158.808L200.136,120.027L18.1487,120.027Z" fill="rgb(228,235,247)" stroke="none" stroke-width="1"/></g></g></svg>