<svg id="eWbeqZFKo9g1" xmlns="http://www.w3.org/2000/svg" xmlns:xlink="http://www.w3.org/1999/xlink" viewBox="0 0 316 296" shape-rendering="geometricPrecision" text-rendering="geometricPrecision"><style><![CDATA[#eWbeqZFKo9g13_tr {animation: eWbeqZFKo9g13_tr__tr 3000ms linear infinite normal forwards}@keyframes eWbeqZFKo9g13_tr__tr { 0% {transform: translate(172.528999px,123.985451px) rotate(180.347597deg)} 16.666667% {transform: translate(172.528999px,123.985451px) rotate(208.901278deg)} 33.333333% {transform: translate(172.528999px,123.985451px) rotate(234.308011deg)} 50% {transform: translate(172.528999px,123.985451px) rotate(269.990492deg)} 66.666667% {transform: translate(172.528999px,123.985451px) rotate(299.741818deg)} 83.333333% {transform: translate(172.528999px,123.985451px) rotate(327.185383deg)} 100% {transform: translate(172.528999px,123.985451px) rotate(360.576558deg)}} #eWbeqZFKo9g14_tr {animation: eWbeqZFKo9g14_tr__tr 3000ms linear infinite normal forwards}@keyframes eWbeqZFKo9g14_tr__tr { 0% {transform: translate(136.631504px,141.688202px) rotate(0deg)} 16.666667% {transform: translate(136.631504px,141.688202px) rotate(28.582443deg)} 33.333333% {transform: translate(136.631504px,141.688202px) rotate(91.210365deg)} 50% {transform: translate(136.631504px,141.688202px) rotate(118.942859deg)} 66.666667% {transform: translate(136.631504px,141.688202px) rotate(148.502624deg)} 83.333333% {transform: translate(136.631504px,141.688202px) rotate(177.380904deg)} 100% {transform: translate(136.631504px,141.688202px) rotate(209.833586deg)}}]]></style><path id="eWbeqZFKo9g2" d="M293.294,216.557L270.794,216.557C270.31,216.557,269.917,216.95,269.917,217.434L269.917,239.934C269.917,240.419,270.31,240.811,270.794,240.811L293.294,240.811C293.779,240.811,294.171,240.419,294.171,239.934L294.171,217.434C294.171,216.95,293.779,216.557,293.294,216.557Z" fill="rgb(89,126,247)" stroke="none" stroke-width="1"/><path id="eWbeqZFKo9g3" d="M52.0495,33.6963L13.091,33.6963C12.6066,33.6963,12.2139,34.089,12.2139,34.5733L12.2139,73.532C12.2139,74.0163,12.6065,74.409,13.0909,74.409L52.0495,74.409C52.5339,74.409,52.9266,74.0163,52.9266,73.532L52.9266,34.5733C52.9266,34.089,52.5339,33.6963,52.0495,33.6963Z" fill="rgb(89,126,247)" stroke="none" stroke-width="1"/><path id="eWbeqZFKo9g4" d="M140.201,239.612L175.506,239.612L175.506,211.872L140.201,211.872L140.201,239.612Z" clip-rule="evenodd" fill="rgb(89,126,247)" fill-rule="evenodd" stroke="none" stroke-width="1"/><path id="eWbeqZFKo9g5" d="M196.898,249.111L119.983,249.111C116.849,249.111,114.309,246.571,114.309,243.437C114.309,240.303,116.849,237.763,119.983,237.763L196.898,237.763C200.032,237.763,202.572,240.303,202.572,243.437C202.572,246.571,200.032,249.111,196.898,249.111Z" clip-rule="evenodd" fill="rgb(89,126,247)" fill-rule="evenodd" stroke="none" stroke-width="1"/><path id="eWbeqZFKo9g6" d="M276.472,208.673L37.5449,208.673C34.4409,208.673,31.9248,206.157,31.9248,203.053L31.9248,57.4329C31.9248,54.329,34.4409,51.8129,37.5449,51.8129L276.472,51.8129C279.576,51.8129,282.092,54.3288,282.092,57.4329L282.092,203.053C282.092,206.157,279.576,208.673,276.472,208.673Z" fill="rgb(221,222,255)" stroke="rgb(114,136,223)" stroke-width="10"/><path id="eWbeqZFKo9g7" d="M212.562,82.8037L100.703,82.8037L100.703,72.7808C100.703,70.6065,102.466,68.8438,104.64,68.8438L208.625,68.8438C210.799,68.8438,212.562,70.6065,212.562,72.7808L212.562,82.8037Z" clip-rule="evenodd" fill="rgb(37,51,104)" fill-rule="evenodd" stroke="none" stroke-width="1"/><path id="eWbeqZFKo9g8" d="M208.625,179.309L104.64,179.309C102.466,179.309,100.703,177.547,100.703,175.372L100.703,81.6297L212.562,81.6297L212.562,175.372C212.562,177.547,210.799,179.309,208.625,179.309Z" clip-rule="evenodd" fill="rgb(255,255,255)" fill-rule="evenodd" stroke="none" stroke-width="1"/><path id="eWbeqZFKo9g9" d="M109.793,75.3403C109.793,76.7048,108.687,77.8111,107.322,77.8111C105.958,77.8111,104.852,76.7048,104.852,75.3403C104.852,73.9758,105.958,72.8695,107.322,72.8695C108.687,72.8695,109.793,73.9758,109.793,75.3403Z" clip-rule="evenodd" fill="rgb(255,121,70)" fill-rule="evenodd" stroke="none" stroke-width="1"/><path id="eWbeqZFKo9g10" d="M119.021,75.3403C119.021,76.7048,117.914,77.8111,116.55,77.8111C115.185,77.8111,114.079,76.7048,114.079,75.3403C114.079,73.9758,115.185,72.8695,116.55,72.8695C117.914,72.8695,119.021,73.9758,119.021,75.3403Z" clip-rule="evenodd" fill="rgb(250,173,20)" fill-rule="evenodd" stroke="none" stroke-width="1"/><path id="eWbeqZFKo9g11" d="M128.248,75.3403C128.248,76.7048,127.142,77.8111,125.777,77.8111C124.413,77.8111,123.307,76.7048,123.307,75.3403C123.307,73.9758,124.413,72.8695,125.777,72.8695C127.142,72.8695,128.248,73.9758,128.248,75.3403Z" clip-rule="evenodd" fill="rgb(124,179,5)" fill-rule="evenodd" stroke="none" stroke-width="1"/><path id="eWbeqZFKo9g12" d="M112.794,166.023C112.115,166.023,111.565,165.473,111.565,164.795L111.565,93.6329C111.565,92.955,112.115,92.4053,112.794,92.4053L201.695,92.4053C202.374,92.4053,202.924,92.955,202.924,93.6329L202.924,164.795C202.924,165.473,202.374,166.023,201.695,166.023L112.794,166.023Z" clip-rule="evenodd" fill="rgb(230,231,244)" fill-rule="evenodd" stroke="none" stroke-width="1"/><g id="eWbeqZFKo9g13_tr" transform="translate(172.528999,123.985451) rotate(180.347597)"><path id="eWbeqZFKo9g13" d="M172.535,133.717C167.2,133.717,162.865,129.364,162.865,123.981C162.847,118.632,167.168,114.281,172.517,114.262C172.523,114.262,172.529,114.262,172.535,114.262C177.867,114.262,182.202,118.615,182.202,123.996C182.193,129.364,177.867,133.714,172.535,133.717ZM196.595,120.595C196.407,119.534,195.391,118.448,194.33,118.215L193.539,118.033C191.618,117.451,189.992,116.157,188.992,114.417C187.982,112.659,187.683,110.581,188.156,108.609L188.404,107.863C188.723,106.829,188.31,105.402,187.483,104.695C187.483,104.695,186.74,104.065,184.654,102.852C182.56,101.646,181.663,101.309,181.663,101.309C180.644,100.934,179.219,101.294,178.474,102.088L177.925,102.68C176.475,104.066,174.544,104.837,172.538,104.829C170.521,104.834,168.58,104.058,167.124,102.661L166.597,102.085C165.863,101.291,164.429,100.94,163.408,101.309C163.408,101.309,162.498,101.646,160.407,102.852C158.312,104.074,157.576,104.705,157.576,104.705C156.751,105.405,156.339,106.817,156.657,107.863L156.884,108.618C157.352,110.587,157.053,112.66,156.048,114.417C155.05,116.172,153.41,117.471,151.473,118.042L150.713,118.215C149.67,118.458,148.642,119.528,148.448,120.595C148.448,120.595,148.275,121.553,148.275,123.984C148.275,126.415,148.448,127.37,148.448,127.37C148.636,128.443,149.652,129.516,150.713,129.749L151.455,129.922C153.395,130.495,155.038,131.799,156.036,133.56C157.078,135.388,157.33,137.467,156.872,139.368L156.657,140.104C156.339,141.138,156.751,142.566,157.579,143.272C157.579,143.272,158.321,143.903,160.407,145.115C162.501,146.328,163.402,146.658,163.402,146.658C164.417,147.034,165.845,146.673,166.591,145.879L167.112,145.315C170.143,142.414,174.921,142.417,177.949,145.321L178.471,145.888C179.204,146.679,180.638,147.034,181.659,146.664C181.659,146.664,182.569,146.328,184.664,145.121C186.755,143.909,187.489,143.278,187.489,143.278C188.316,142.581,188.729,141.156,188.41,140.11L188.183,139.346C187.713,137.384,188.013,135.317,189.019,133.569C190.023,131.813,191.663,130.511,193.6,129.931L194.346,129.758C195.388,129.516,196.416,128.446,196.61,127.379C196.61,127.379,196.783,126.421,196.783,123.993C196.765,121.559,196.595,120.595,196.595,120.595Z" transform="translate(-172.528999,-123.985451)" clip-rule="evenodd" fill="rgb(89,126,247)" fill-rule="evenodd" stroke="none" stroke-width="1"/></g><g id="eWbeqZFKo9g14_tr" transform="translate(136.631504,141.688202) rotate(0)"><path id="eWbeqZFKo9g14" d="M139.097,146.02C136.722,147.371,133.69,146.53,132.328,144.133C130.966,141.757,131.788,138.726,134.165,137.364L134.173,137.359C136.546,136.009,139.578,136.85,140.94,139.245C142.295,141.637,141.47,144.669,139.097,146.02ZM146.487,134.088C146.134,133.663,145.408,133.437,144.876,133.602L144.478,133.721C143.475,133.948,142.424,133.784,141.538,133.262C140.644,132.735,139.984,131.886,139.695,130.888L139.617,130.493C139.497,129.952,138.952,129.421,138.405,129.316C138.405,129.316,137.915,129.223,136.68,129.212C135.442,129.205,134.957,129.282,134.957,129.282C134.409,129.373,133.866,129.894,133.735,130.436L133.64,130.838C133.346,131.823,132.681,132.654,131.786,133.158C130.889,133.672,129.829,133.817,128.827,133.564L128.447,133.441C127.919,133.273,127.192,133.48,126.831,133.903C126.831,133.903,126.511,134.283,125.885,135.349C125.262,136.424,125.093,136.891,125.093,136.891C124.904,137.411,125.078,138.144,125.484,138.529L125.776,138.808C126.483,139.566,126.875,140.565,126.872,141.601C126.872,142.635,126.471,143.629,125.753,144.373L125.458,144.643C125.055,145.015,124.869,145.751,125.052,146.275C125.052,146.275,125.218,146.745,125.833,147.828C126.449,148.91,126.767,149.291,126.767,149.291C127.123,149.721,127.846,149.942,128.378,149.778L128.752,149.666C129.761,149.43,130.822,149.595,131.712,150.126C132.639,150.676,133.277,151.538,133.555,152.5L133.645,152.883C133.765,153.423,134.31,153.955,134.857,154.06C134.857,154.06,135.348,154.152,136.583,154.164C137.823,154.174,138.307,154.093,138.307,154.093C138.854,154.003,139.399,153.481,139.53,152.939L139.619,152.556C140.234,150.497,142.362,149.289,144.445,149.815L144.821,149.936C145.347,150.102,146.076,149.897,146.437,149.474C146.437,149.474,146.756,149.094,147.383,148.027C148.008,146.957,148.175,146.491,148.175,146.491C148.367,145.971,148.19,145.233,147.783,144.848L147.488,144.565C146.783,143.811,146.393,142.814,146.398,141.781C146.4,140.746,146.801,139.751,147.517,139.002L147.805,138.737C148.208,138.365,148.394,137.628,148.211,137.104C148.211,137.104,148.045,136.634,147.43,135.553C146.806,134.474,146.487,134.088,146.487,134.088Z" transform="translate(-136.631504,-141.688202)" clip-rule="evenodd" fill="rgb(148,150,244)" fill-rule="evenodd" stroke="none" stroke-width="1"/></g><path id="eWbeqZFKo9g15" d="M135.108,105.017L121.511,105.017C120.623,105.017,119.896,104.291,119.896,103.403L119.896,103.267C119.896,102.379,120.623,101.652,121.511,101.652L135.108,101.652C135.996,101.652,136.723,102.379,136.723,103.267L136.723,103.403C136.723,104.291,135.996,105.017,135.108,105.017Z" clip-rule="evenodd" fill="rgb(173,198,255)" fill-rule="evenodd" stroke="none" stroke-width="1"/><path id="eWbeqZFKo9g16" d="M131.304,112.891L122.891,112.891C121.961,112.891,121.208,112.138,121.208,111.209C121.208,110.28,121.961,109.526,122.891,109.526L131.304,109.526C132.233,109.526,132.986,110.28,132.986,111.209C132.986,112.138,132.233,112.891,131.304,112.891Z" clip-rule="evenodd" fill="rgb(173,198,255)" fill-rule="evenodd" stroke="none" stroke-width="1"/><path id="eWbeqZFKo9g17" d="M260.908,136.117C235.235,136.117,214.424,156.929,214.424,182.601C214.424,208.273,235.235,229.085,260.908,229.085C286.58,229.085,307.392,208.273,307.392,182.601C307.392,156.929,286.58,136.117,260.908,136.117Z" clip-rule="evenodd" fill="rgb(254,170,155)" fill-rule="evenodd" stroke="none" stroke-width="1"/><path id="eWbeqZFKo9g18" d="M253.417,198.391L250.482,195.456L278.921,166.914C279.893,165.942,281.47,165.942,282.442,166.914L283.616,168.088C284.589,169.061,284.589,170.637,283.616,171.61L256.939,198.391C255.966,199.364,254.39,199.364,253.417,198.391Z" clip-rule="evenodd" fill="rgb(255,255,255)" fill-rule="evenodd" stroke="none" stroke-width="1"/><path id="eWbeqZFKo9g19" d="M259.87,195.456L256.935,198.391C255.963,199.364,254.386,199.364,253.413,198.391L241.727,186.705C240.755,185.733,240.755,184.156,241.727,183.184L242.901,182.01C243.874,181.037,245.451,181.037,246.423,182.01L259.87,195.456Z" clip-rule="evenodd" fill="rgb(255,255,255)" fill-rule="evenodd" stroke="none" stroke-width="1"/></svg>