<svg id="eckxp063FaU1" xmlns="http://www.w3.org/2000/svg" xmlns:xlink="http://www.w3.org/1999/xlink" viewBox="0 0 270 266" shape-rendering="geometricPrecision" text-rendering="geometricPrecision"><style><![CDATA[#eckxp063FaU13_to {animation: eckxp063FaU13_to__to 3000ms linear infinite normal forwards}@keyframes eckxp063FaU13_to__to { 0% {transform: translate(177.492501px,46.567193px)} 16.666667% {transform: translate(177.492501px,42px)} 33.333333% {transform: translate(177.492501px,41px)} 50% {transform: translate(177.492501px,43px)} 66.666667% {transform: translate(177.492501px,41px)} 83.333333% {transform: translate(177.492501px,45px)} 100% {transform: translate(177.492501px,46px)}}]]></style><path id="eckxp063FaU2" d="M253.391,124.253C253.391,183.708,205.191,231.904,145.74,231.904C86.2846,231.904,38.0869,183.708,38.0869,124.253C38.0869,64.7979,86.2846,16.6019,145.74,16.6019C205.191,16.6019,253.391,64.7979,253.391,124.253Z" clip-rule="evenodd" fill="rgb(173,198,255)" fill-rule="evenodd" stroke="none" stroke-width="1"/><g id="eckxp063FaU3" mask="url(#eckxp063FaU11)"><g id="eckxp063FaU4"><path id="eckxp063FaU5" d="M202.841,116.327L202.841,245.863C202.841,247.763,200.375,248.725,199.018,247.395L191.114,238.223L182.789,246.546C181.131,248.205,178.446,248.222,176.766,246.584L168.176,238.223L160.023,246.484C158.359,248.168,155.643,248.186,153.959,246.52L145.559,238.223L137.084,246.572C135.413,248.215,132.732,248.215,131.064,246.568L122.603,238.223L114.165,246.546C112.488,248.201,109.789,248.191,108.123,246.525L99.8178,238.223L92.1153,247.503C90.7634,248.848,88.6367,247.891,88.6367,245.983L88.6367,116.327L202.841,116.327Z" clip-rule="evenodd" fill="rgb(228,235,247)" fill-rule="evenodd" stroke="none" stroke-width="1"/><path id="eckxp063FaU6" d="M88.6865,115.679L203.161,115.679L203.161,102.614C203.161,98.0181,201.242,94.2935,198.876,94.2935L92.9713,94.2935C90.6038,94.2935,88.6865,98.0181,88.6865,102.614L88.6865,115.679Z" clip-rule="evenodd" fill="rgb(122,126,241)" fill-rule="evenodd" stroke="none" stroke-width="1"/><path id="eckxp063FaU7" d="M186.651,148.386C188.126,148.386,189.323,147.366,189.323,146.108L189.323,132.426C189.323,131.166,188.126,130.145,186.651,130.145L170.612,130.145C169.134,130.145,167.938,131.166,167.938,132.426L167.938,146.108C167.938,147.366,169.134,148.386,170.612,148.386L186.651,148.386Z" clip-rule="evenodd" fill="rgb(122,126,241)" fill-rule="evenodd" stroke="none" stroke-width="1"/><path id="eckxp063FaU8" d="M100.751,167.805L189.969,167.805C190.543,167.805,191.006,167.341,191.006,166.767L191.006,163.127C191.006,162.554,190.543,162.089,189.969,162.089L100.751,162.089C100.179,162.089,99.7129,162.554,99.7129,163.127L99.7129,166.767C99.7129,167.341,100.179,167.805,100.751,167.805Z" clip-rule="evenodd" fill="rgb(163,181,214)" fill-rule="evenodd" stroke="none" stroke-width="1"/><path id="eckxp063FaU9" d="M100.751,184.814L189.969,184.814C190.543,184.814,191.006,184.35,191.006,183.776L191.006,180.136C191.006,179.563,190.543,179.098,189.969,179.098L100.751,179.098C100.179,179.098,99.7129,179.563,99.7129,180.136L99.7129,183.776C99.7129,184.35,100.179,184.814,100.751,184.814Z" clip-rule="evenodd" fill="rgb(254,160,143)" fill-rule="evenodd" stroke="none" stroke-width="1"/><path id="eckxp063FaU10" d="M100.751,201.823L189.969,201.823C190.543,201.823,191.006,201.359,191.006,200.785L191.006,197.145C191.006,196.572,190.543,196.107,189.969,196.107L100.751,196.107C100.179,196.107,99.7129,196.572,99.7129,197.145L99.7129,200.785C99.7129,201.359,100.179,201.823,100.751,201.823Z" clip-rule="evenodd" fill="rgb(255,187,174)" fill-rule="evenodd" stroke="none" stroke-width="1"/></g><mask id="eckxp063FaU11" mask-type="alpha"><path id="eckxp063FaU12" d="M145.881,16.6023C86.5014,16.6023,38.3682,64.7982,38.3682,124.252C38.3682,183.708,86.5014,231.904,145.881,231.904C205.257,231.904,253.392,183.708,253.392,124.252C253.392,64.7982,205.257,16.6023,145.881,16.6023Z" fill="rgb(255,255,255)" stroke="none" stroke-width="1"/></mask></g><g id="eckxp063FaU13_to" transform="translate(177.492501,46.567193)"><g id="eckxp063FaU13" transform="translate(-177.4925,-46.567193)"><path id="eckxp063FaU14" d="M152.708,75.471C152.708,76.5131,153.553,77.3579,154.595,77.3579L200.39,77.3579C201.432,77.3579,202.277,76.5131,202.277,75.471L202.277,43.2301C202.277,42.188,201.432,41.3431,200.39,41.3431L154.595,41.3431C153.553,41.3431,152.708,42.188,152.708,43.2301L152.708,75.471Z" clip-rule="evenodd" fill="rgb(84,91,211)" fill-rule="evenodd" stroke="none" stroke-width="1"/><path id="eckxp063FaU15" d="M152.843,86.1167C152.843,87.1588,153.688,88.0036,154.73,88.0036L200.645,88.0036C201.687,88.0036,202.532,87.1588,202.532,86.1167L202.532,82.3428C202.532,81.3007,201.687,80.4559,200.645,80.4559L154.73,80.4559C153.688,80.4559,152.843,81.3007,152.843,82.3428L152.843,86.1167Z" clip-rule="evenodd" fill="rgb(84,91,211)" fill-rule="evenodd" stroke="none" stroke-width="1"/><path id="eckxp063FaU16" d="M217.791,44.6477C218.98,45.8364,218.138,47.8689,216.457,47.8689L138.528,47.8689C136.847,47.8689,136.005,45.8363,137.194,44.6476L176.16,5.68343C176.897,4.94655,178.091,4.94657,178.828,5.68348L217.791,44.6477Z" clip-rule="evenodd" fill="rgb(84,91,211)" fill-rule="evenodd" stroke="none" stroke-width="1"/></g></g><path id="eckxp063FaU17" d="M35.2624,232.725L30.9917,228.259L66.7296,194.088L71.0002,198.555L35.2624,232.725Z" clip-rule="evenodd" fill="rgb(163,181,214)" fill-rule="evenodd" stroke="none" stroke-width="1"/><path id="eckxp063FaU18" d="M103.127,203.096C81.3747,202.608,64.1365,184.579,64.6242,162.827C65.1118,141.075,83.1407,123.836,104.893,124.324C126.645,124.812,143.884,142.841,143.396,164.593C142.908,186.345,124.879,203.583,103.127,203.096ZM105.187,111.195C76.1843,110.545,52.1457,133.529,51.4955,162.533C50.8453,191.535,73.8297,215.574,102.833,216.224C131.836,216.875,155.874,193.89,156.525,164.887C157.175,135.884,134.19,111.845,105.187,111.195Z" clip-rule="evenodd" fill="rgb(89,126,247)" fill-rule="evenodd" stroke="none" stroke-width="1"/><path id="eckxp063FaU19" d="M17.953,249.276L13.6824,244.809C12.5031,243.576,12.547,241.62,13.7804,240.441L45.16,210.437C46.3935,209.258,48.3494,209.302,49.5287,210.535C49.5287,210.535,49.5287,210.535,49.5287,210.535L53.7994,215.002C54.9787,216.235,54.9349,218.191,53.7015,219.37L22.3216,249.374C21.0882,250.553,19.1323,250.51,17.953,249.276C17.953,249.276,17.953,249.276,17.953,249.276Z" clip-rule="evenodd" fill="rgb(89,126,247)" fill-rule="evenodd" stroke="none" stroke-width="1"/><circle id="eckxp063FaU20" r="42.4562" transform="matrix(1 0 0 1 104.096 163.796)" fill="rgb(255,255,255)" fill-opacity="0.5" stroke="none" stroke-width="1"/></svg>